WinkyRough.glyphspackage
{
glyphname = exclam;
kernLeft = KO_exclam;
layers = (
{
hints = (
{
horizontal = 1;
place = (-5,120);
type = Stem;
},
{
place = (82.5,87);
type = Stem;
},
{
place = (67,120);
type = Stem;
}
);
layerId = m005;
shapes = (
{
closed = 1;
nodes = (
(123,198,l),
(141,211,l),
(151,219,l),
(161,223,l),
(164,252,l),
(159,271,l),
(160,289,l),
(153,295,l),
(163,317,l),
(158,333,l),
(153,340,l),
(151,357,l),
(161,370,l),
(151,389,l),
(156,405,l),
(155,419,l),
(162,436,l),
(159,448,l),
(162,469,l),
(157,479,l),
(166,493,l),
(158,510,l),
(158,527,l),
(165,535,l),
(157,553,l),
(160,565,l),
(170,581,l),
(169,597,l),
(171,631,l),
(167,642,l),
(145,656,l),
(122,665,l),
(92,663,l),
(69,648,l),
(51,645,l),
(55,634,l),
(56,597,l),
(60,583,l),
(56,565,l),
(59,556,l),
(56,544,l),
(54,525,l),
(58,511,l),
(65,490,l),
(65,476,l),
(61,462,l),
(65,453,l),
(65,433,l),
(68,417,l),
(65,403,l),
(61,388,l),
(65,377,l),
(65,359,l),
(62,345,l),
(66,332,l),
(61,318,l),
(67,296,l),
(59,286,l),
(63,272,l),
(64,257,l),
(60,222,l),
(72,219,l),
(89,208,l),
(97,197,l)
);
},
{
ref = period;
}
);
width = 220;
},
{
hints = (
{
horizontal = 1;
place = (-5,120);
type = Stem;
},
{
place = (82.5,87);
type = Stem;
},
{
place = (67,120);
type = Stem;
}
);
layerId = m002;
shapes = (
{
closed = 1;
nodes = (
(133,205,l),
(157,218,l),
(168,231,l),
(181,244,l),
(191,272,l),
(196,277,l),
(195,307,l),
(196,330,l),
(192,356,l),
(198,370,l),
(194,388,l),
(193,401,l),
(207,417,l),
(195,432,l),
(207,451,l),
(208,475,l),
(206,508,l),
(210,525,l),
(207,534,l),
(214,551,l),
(222,568,l),
(224,602,l),
(211,616,l),
(206,628,l),
(207,647,l),
(200,654,l),
(168,676,l),
(162,681,l),
(138,689,l),
(97,691,l),
(74,691,l),
(58,684,l),
(51,679,l),
(39,667,l),
(27,652,l),
(20,642,l),
(-4,609,l),
(-6,605,l),
(5,572,l),
(4,552,l),
(10,524,l),
(16,509,l),
(12,494,l),
(16,482,l),
(18,461,l),
(23,447,l),
(23,432,l),
(12,421,l),
(19,403,l),
(13,391,l),
(24,374,l),
(23,361,l),
(13,342,l),
(23,332,l),
(16,308,l),
(24,285,l),
(16,265,l),
(34,255,l),
(42,241,l),
(42,230,l),
(61,218,l),
(64,212,l),
(78,213,l),
(88,203,l)
);
},
{
ref = period;
}
);
width = 220;
},
{
hints = (
{
horizontal = 1;
place = (-5,120);
type = Stem;
},
{
place = (82.5,87);
type = Stem;
},
{
place = (67,120);
type = Stem;
}
);
layerId = m003;
shapes = (
{
closed = 1;
nodes = (
(125,200,l),
(133,205,l),
(144,212,l),
(146,247,l),
(148,257,l),
(149,279,l),
(152,293,l),
(150,303,l),
(153,320,l),
(151,334,l),
(154,355,l),
(154,370,l),
(143,377,l),
(140,394,l),
(140,408,l),
(151,432,l),
(140,440,l),
(144,458,l),
(155,476,l),
(148,484,l),
(143,500,l),
(143,524,l),
(150,530,l),
(158,554,l),
(146,567,l),
(160,582,l),
(149,593,l),
(154,611,l),
(155,640,l),
(143,654,l),
(137,664,l),
(130,662,l),
(99,661,l),
(78,662,l),
(71,648,l),
(64,636,l),
(63,606,l),
(68,595,l),
(69,582,l),
(69,568,l),
(65,553,l),
(70,532,l),
(68,524,l),
(71,507,l),
(74,488,l),
(64,474,l),
(78,457,l),
(74,445,l),
(79,430,l),
(70,413,l),
(78,398,l),
(73,380,l),
(70,363,l),
(77,353,l),
(74,336,l),
(76,320,l),
(73,302,l),
(75,292,l),
(76,277,l),
(72,263,l),
(68,249,l),
(68,217,l),
(90,205,l),
(103,205,l)
);
},
{
ref = period;
}
);
width = 220;
}
);
note = exclam;
unicode = 33;
userData = {
KernOnName = exclam;
KernOnSpecialSpacing = {
L = "spaced-off";
};
};
}
{
glyphname = numbersign;
layers = (
{
hints = (
{
horizontal = 1;
place = (0,21);
target = up;
type = BottomGhost;
},
{
horizontal = 1;
place = (138,65);
type = Stem;
},
{
horizontal = 1;
place = (298,65);
type = Stem;
},
{
place = (70,454);
type = Stem;
}
);
layerId = m005;
shapes = (
{
closed = 1;
nodes = (
(107,2,l),
(117,4,l),
(134,2,l),
(152,13,l),
(166,40,l),
(171,53,l),
(166,70,l),
(173,101,l),
(185,115,l),
(183,128,l),
(187,142,l),
(195,168,l),
(242,165,l),
(291,162,l),
(305,160,l),
(326,165,l),
(357,157,l),
(356,136,l),
(358,118,l),
(352,101,l),
(341,87,l),
(335,64,l),
(335,29,l),
(331,20,l),
(355,5,l),
(370,-1,l),
(384,0,l),
(395,1,l),
(399,11,l),
(420,36,l),
(415,66,l),
(426,84,l),
(437,92,l),
(435,114,l),
(437,123,l),
(436,138,l),
(446,158,l),
(470,157,l),
(490,154,l),
(503,157,l),
(520,160,l),
(532,178,l),
(535,185,l),
(541,205,l),
(546,221,l),
(532,229,l),
(518,238,l),
(508,240,l),
(488,245,l),
(482,241,l),
(471,266,l),
(476,285,l),
(493,299,l),
(486,312,l),
(494,342,l),
(505,378,l),
(513,384,l),
(510,402,l),
(517,419,l),
(532,423,l),
(549,428,l),
(562,423,l),
(579,425,l),
(597,427,l),
(602,438,l),
(602,453,l),
(615,481,l),
(605,492,l),
(591,497,l),
(560,499,l),
(545,509,l),
(546,525,l),
(556,546,l),
(566,577,l),
(571,584,l),
(572,606,l),
(576,631,l),
(568,658,l),
(556,667,l),
(527,666,l),
(522,659,l),
(504,651,l),
(505,627,l),
(494,609,l),
(483,600,l),
(490,578,l),
(478,565,l),
(480,548,l),
(470,537,l),
(469,519,l),
(462,498,l),
(447,502,l),
(419,499,l),
(400,495,l),
(387,496,l),
(346,504,l),
(342,497,l),
(322,502,l),
(311,498,l),
(281,501,l),
(285,520,l),
(287,531,l),
(285,548,l),
(296,560,l),
(302,575,l),
(305,587,l),
(314,602,l),
(313,636,l),
(308,650,l),
(299,653,l),
(294,663,l),
(268,669,l),
(256,666,l),
(248,652,l),
(237,624,l),
(236,599,l),
(225,579,l),
(217,565,l),
(223,548,l),
(211,520,l),
(202,506,l),
(188,500,l),
(158,498,l),
(138,494,l),
(128,486,l),
(120,471,l),
(116,460,l),
(110,446,l),
(114,436,l),
(124,422,l),
(140,413,l),
(156,411,l),
(175,412,l),
(175,398,l),
(176,371,l),
(162,360,l),
(166,343,l),
(158,320,l),
(148,306,l),
(154,288,l),
(145,260,l),
(133,246,l),
(112,245,l),
(101,237,l),
(81,240,l),
(64,243,l),
(47,234,l),
(45,216,l),
(43,204,l),
(40,189,l),
(56,175,l),
(63,167,l),
(79,168,l),
(94,168,l),
(105,164,l),
(103,132,l),
(94,108,l),
(84,80,l),
(74,60,l),
(75,42,l),
(77,14,l),
(88,9,l)
);
},
{
closed = 1;
nodes = (
(341,239,l),
(312,242,l),
(291,238,l),
(261,244,l),
(242,238,l),
(224,246,l),
(223,258,l),
(220,280,l),
(227,301,l),
(235,316,l),
(228,324,l),
(231,340,l),
(245,373,l),
(243,385,l),
(255,400,l),
(267,416,l),
(276,420,l),
(300,420,l),
(312,420,l),
(322,426,l),
(335,419,l),
(355,426,l),
(374,421,l),
(382,419,l),
(396,420,l),
(417,422,l),
(441,419,l),
(432,399,l),
(431,382,l),
(433,368,l),
(416,350,l),
(421,339,l),
(410,321,l),
(405,310,l),
(412,293,l),
(398,279,l),
(394,257,l),
(390,239,l),
(365,240,l),
(357,237,l)
);
}
);
width = 650;
},
{
hints = (
{
horizontal = 1;
place = (0,21);
target = up;
type = BottomGhost;
},
{
horizontal = 1;
place = (138,65);
type = Stem;
},
{
horizontal = 1;
place = (298,65);
type = Stem;
},
{
place = (70,454);
type = Stem;
}
);
layerId = m002;
shapes = (
{
closed = 1;
nodes = (
(119,-28,l),
(125,-22,l),
(143,-26,l),
(163,-19,l),
(174,-12,l),
(182,-6,l),
(198,-4,l),
(208,8,l),
(224,20,l),
(230,50,l),
(237,71,l),
(226,84,l),
(244,112,l),
(267,114,l),
(289,108,l),
(290,97,l),
(290,84,l),
(298,62,l),
(299,49,l),
(294,37,l),
(310,23,l),
(309,8,l),
(315,-1,l),
(340,-4,l),
(342,-16,l),
(363,-18,l),
(382,-20,l),
(388,-28,l),
(411,-27,l),
(413,-22,l),
(434,-17,l),
(448,-6,l),
(454,6,l),
(464,22,l),
(480,53,l),
(477,61,l),
(474,80,l),
(497,99,l),
(510,103,l),
(530,106,l),
(546,114,l),
(556,113,l),
(575,140,l),
(585,146,l),
(599,166,l),
(597,178,l),
(601,193,l),
(606,210,l),
(604,226,l),
(606,240,l),
(596,253,l),
(587,261,l),
(578,268,l),
(562,280,l),
(548,287,l),
(552,307,l),
(556,324,l),
(555,334,l),
(566,347,l),
(570,370,l),
(591,372,l),
(620,380,l),
(633,392,l),
(647,414,l),
(668,428,l),
(662,432,l),
(680,468,l),
(679,477,l),
(676,487,l),
(671,508,l),
(662,512,l),
(649,526,l),
(628,541,l),
(632,567,l),
(646,589,l),
(641,605,l),
(641,628,l),
(629,638,l),
(627,650,l),
(615,667,l),
(606,669,l),
(592,681,l),
(559,688,l),
(538,695,l),
(521,693,l),
(504,682,l),
(481,674,l),
(484,661,l),
(469,646,l),
(457,616,l),
(463,603,l),
(450,574,l),
(442,555,l),
(413,547,l),
(389,548,l),
(376,559,l),
(367,581,l),
(373,595,l),
(380,610,l),
(371,622,l),
(370,634,l),
(356,650,l),
(347,676,l),
(334,684,l),
(305,687,l),
(279,696,l),
(271,686,l),
(242,680,l),
(227,666,l),
(216,661,l),
(211,642,l),
(200,614,l),
(199,595,l),
(200,579,l),
(189,564,l),
(178,550,l),
(159,551,l),
(148,545,l),
(133,547,l),
(110,538,l),
(102,524,l),
(88,516,l),
(85,500,l),
(80,476,l),
(76,457,l),
(80,447,l),
(83,423,l),
(77,415,l),
(87,396,l),
(103,384,l),
(111,373,l),
(119,363,l),
(121,354,l),
(125,335,l),
(120,327,l),
(113,319,l),
(103,308,l),
(94,298,l),
(83,290,l),
(57,292,l),
(44,279,l),
(32,267,l),
(23,258,l),
(11,246,l),
(4,223,l),
(-2,205,l),
(8,190,l),
(-1,174,l),
(16,166,l),
(18,147,l),
(38,142,l),
(42,128,l),
(38,94,l),
(39,75,l),
(41,60,l),
(36,38,l),
(44,32,l),
(50,11,l),
(66,7,l),
(71,-5,l),
(86,-19,l),
(98,-23,l)
);
},
{
closed = 1;
nodes = (
(328,294,l),
(320,294,l),
(308,295,l),
(304,302,l),
(300,308,l),
(296,313,l),
(297,320,l),
(298,324,l),
(299,329,l),
(300,337,l),
(302,340,l),
(304,345,l),
(308,352,l),
(310,356,l),
(314,363,l),
(321,366,l),
(329,370,l),
(334,372,l),
(338,374,l),
(343,374,l),
(346,374,l),
(355,374,l),
(363,374,l),
(367,369,l),
(372,363,l),
(375,355,l),
(378,347,l),
(378,344,l),
(378,338,l),
(378,332,l),
(378,323,l),
(375,317,l),
(372,310,l),
(369,303,l),
(367,300,l),
(365,295,l),
(358,295,l),
(349,294,l),
(344,294,l),
(338,293,l)
);
}
);
width = 680;
},
{
hints = (
{
horizontal = 1;
place = (0,21);
target = up;
type = BottomGhost;
},
{
horizontal = 1;
place = (138,65);
type = Stem;
},
{
horizontal = 1;
place = (298,65);
type = Stem;
},
{
place = (70,454);
type = Stem;
}
);
layerId = m003;
shapes = (
{
closed = 1;
nodes = (
(131,5,l),
(156,25,l),
(157,40,l),
(157,62,l),
(158,91,l),
(167,96,l),
(171,118,l),
(174,125,l),
(180,146,l),
(173,156,l),
(180,171,l),
(195,175,l),
(223,171,l),
(241,174,l),
(256,171,l),
(283,178,l),
(299,174,l),
(328,175,l),
(359,169,l),
(376,174,l),
(362,137,l),
(369,120,l),
(358,107,l),
(356,82,l),
(349,65,l),
(342,48,l),
(337,23,l),
(339,8,l),
(364,4,l),
(375,2,l),
(382,5,l),
(401,31,l),
(401,58,l),
(411,87,l),
(424,109,l),
(418,123,l),
(422,139,l),
(435,148,l),
(437,167,l),
(458,169,l),
(469,164,l),
(482,168,l),
(509,181,l),
(523,190,l),
(527,219,l),
(511,229,l),
(482,228,l),
(468,230,l),
(448,232,l),
(459,258,l),
(453,270,l),
(470,286,l),
(474,304,l),
(479,310,l),
(477,333,l),
(476,347,l),
(482,357,l),
(482,373,l),
(492,391,l),
(489,404,l),
(495,413,l),
(504,438,l),
(521,439,l),
(545,437,l),
(562,440,l),
(580,443,l),
(592,451,l),
(601,481,l),
(584,483,l),
(551,493,l),
(524,490,l),
(534,517,l),
(542,540,l),
(538,554,l),
(552,572,l),
(556,585,l),
(547,600,l),
(557,612,l),
(569,646,l),
(539,665,l),
(531,662,l),
(508,666,l),
(496,634,l),
(501,621,l),
(488,609,l),
(497,595,l),
(491,584,l),
(489,569,l),
(473,547,l),
(476,538,l),
(467,518,l),
(471,511,l),
(460,488,l),
(448,485,l),
(434,492,l),
(406,493,l),
(388,489,l),
(371,494,l),
(351,486,l),
(310,494,l),
(285,485,l),
(270,489,l),
(255,493,l),
(256,508,l),
(257,519,l),
(267,525,l),
(276,556,l),
(286,568,l),
(283,586,l),
(284,606,l),
(291,616,l),
(298,652,l),
(278,665,l),
(265,667,l),
(251,658,l),
(237,632,l),
(240,612,l),
(226,594,l),
(218,548,l),
(214,536,l),
(218,524,l),
(204,495,l),
(175,490,l),
(154,489,l),
(122,483,l),
(124,477,l),
(124,461,l),
(124,445,l),
(126,432,l),
(157,421,l),
(177,419,l),
(175,400,l),
(180,390,l),
(173,371,l),
(172,354,l),
(164,314,l),
(158,299,l),
(150,280,l),
(151,269,l),
(146,251,l),
(142,243,l),
(134,229,l),
(112,230,l),
(100,230,l),
(91,233,l),
(64,231,l),
(53,220,l),
(49,206,l),
(44,192,l),
(53,178,l),
(72,177,l),
(91,177,l),
(113,178,l),
(111,152,l),
(115,136,l),
(103,121,l),
(89,91,l),
(86,54,l),
(81,22,l),
(81,5,l),
(98,4,l),
(114,-1,l)
);
},
{
closed = 1;
nodes = (
(303,232,l),
(275,234,l),
(241,230,l),
(225,235,l),
(201,235,l),
(207,257,l),
(205,277,l),
(204,302,l),
(215,307,l),
(213,330,l),
(227,336,l),
(228,355,l),
(235,372,l),
(229,385,l),
(228,401,l),
(239,413,l),
(247,429,l),
(270,426,l),
(289,430,l),
(325,429,l),
(340,427,l),
(356,429,l),
(370,436,l),
(411,430,l),
(424,439,l),
(441,432,l),
(443,414,l),
(433,396,l),
(433,378,l),
(427,363,l),
(430,356,l),
(427,334,l),
(415,305,l),
(408,296,l),
(411,282,l),
(396,255,l),
(399,229,l),
(371,230,l),
(356,236,l),
(349,228,l)
);
}
);
width = 657;
}
);
metricLeft = "=period";
metricRight = "=period";
note = numbersign;
unicode = 35;
}
{
glyphname = dollar;
layers = (
{
hints = (
{
horizontal = 1;
place = (-10,77);
type = Stem;
},
{
horizontal = 1;
place = (538,142);
type = Stem;
},
{
place = (35,90);
type = Stem;
},
{
place = (183,50);
type = Stem;
},
{
place = (305,109);
type = Stem;
},
{
horizontal = 1;
place = (-85,152);
type = Stem;
}
);
layerId = m003;
name = Light;
shapes = (
{
closed = 1;
nodes = (
(232,-81,l),
(239,-75,l),
(241,-65,l),
(243,-54,l),
(245,-47,l),
(245,-40,l),
(242,-29,l),
(240,-19,l),
(247,-5,l),
(243,3,l),
(240,8,l),
(233,14,l),
(223,21,l),
(211,19,l),
(198,22,l),
(192,15,l),
(186,7,l),
(180,2,l),
(172,-6,l),
(175,-16,l),
(178,-23,l),
(178,-30,l),
(177,-40,l),
(177,-46,l),
(175,-57,l),
(174,-65,l),
(172,-76,l),
(177,-78,l),
(187,-82,l),
(194,-85,l),
(206,-86,l),
(211,-86,l),
(223,-87,l)
);
},
{
ref = S;
},
{
closed = 1;
nodes = (
(218,642,l),
(225,643,l),
(232,645,l),
(232,651,l),
(233,662,l),
(237,665,l),
(243,669,l),
(247,677,l),
(251,686,l),
(249,693,l),
(247,703,l),
(243,715,l),
(249,728,l),
(237,735,l),
(234,742,l),
(222,742,l),
(212,742,l),
(199,745,l),
(192,746,l),
(181,740,l),
(179,726,l),
(185,724,l),
(182,715,l),
(179,706,l),
(177,694,l),
(176,685,l),
(180,679,l),
(186,672,l),
(185,660,l),
(189,655,l),
(196,647,l),
(200,642,l),
(209,640,l)
);
}
);
width = 431;
},
{
hints = (
{
horizontal = 1;
place = (-10,77);
type = Stem;
},
{
horizontal = 1;
place = (538,142);
type = Stem;
},
{
place = (35,90);
type = Stem;
},
{
place = (183,50);
type = Stem;
},
{
place = (305,109);
type = Stem;
},
{
horizontal = 1;
place = (-85,152);
type = Stem;
}
);
layerId = m005;
name = Regular;
shapes = (
{
closed = 1;
nodes = (
(203,-97,l),
(211,-96,l),
(225,-94,l),
(231,-94,l),
(241,-93,l),
(248,-92,l),
(252,-79,l),
(254,-67,l),
(256,-57,l),
(257,-49,l),
(258,-34,l),
(254,-23,l),
(251,-16,l),
(251,-3,l),
(249,17,l),
(239,22,l),
(228,28,l),
(222,35,l),
(210,30,l),
(200,34,l),
(191,37,l),
(183,30,l),
(178,26,l),
(168,18,l),
(174,1,l),
(166,-11,l),
(162,-34,l),
(171,-50,l),
(168,-60,l),
(162,-78,l),
(169,-82,l),
(178,-89,l),
(186,-99,l)
);
},
{
ref = S;
},
{
closed = 1;
nodes = (
(192,629,l),
(202,631,l),
(212,632,l),
(224,633,l),
(229,628,l),
(235,638,l),
(242,650,l),
(244,659,l),
(246,666,l),
(250,677,l),
(258,687,l),
(259,695,l),
(260,704,l),
(257,725,l),
(255,736,l),
(255,740,l),
(241,747,l),
(232,751,l),
(218,752,l),
(210,754,l),
(203,756,l),
(198,752,l),
(191,749,l),
(180,744,l),
(180,733,l),
(179,724,l),
(177,708,l),
(176,701,l),
(175,690,l),
(169,678,l),
(179,657,l),
(174,646,l),
(182,628,l)
);
}
);
width = 456;
},
{
hints = (
{
horizontal = 1;
place = (-10,77);
type = Stem;
},
{
horizontal = 1;
place = (538,142);
type = Stem;
},
{
place = (35,90);
type = Stem;
},
{
place = (183,50);
type = Stem;
},
{
place = (305,109);
type = Stem;
},
{
horizontal = 1;
place = (-85,152);
type = Stem;
}
);
layerId = m002;
name = Black;
shapes = (
{
closed = 1;
nodes = (
(244,-143,l),
(267,-137,l),
(288,-114,l),
(305,-105,l),
(299,-91,l),
(305,-69,l),
(299,-27,l),
(310,-16,l),
(295,9,l),
(303,38,l),
(278,82,l),
(257,83,l),
(226,79,l),
(212,83,l),
(201,78,l),
(183,78,l),
(170,86,l),
(154,79,l),
(122,63,l),
(131,55,l),
(121,39,l),
(116,23,l),
(124,6,l),
(117,-10,l),
(114,-24,l),
(108,-69,l),
(122,-86,l),
(114,-102,l),
(140,-124,l),
(153,-139,l),
(168,-138,l),
(184,-148,l),
(197,-152,l)
);
},
{
ref = S;
},
{
closed = 1;
nodes = (
(184,587,l),
(215,580,l),
(224,586,l),
(251,583,l),
(255,585,l),
(282,580,l),
(299,613,l),
(297,624,l),
(305,660,l),
(304,674,l),
(298,680,l),
(309,698,l),
(313,731,l),
(307,740,l),
(307,756,l),
(269,794,l),
(257,802,l),
(219,806,l),
(217,803,l),
(182,803,l),
(165,795,l),
(145,792,l),
(136,760,l),
(125,746,l),
(130,731,l),
(121,709,l),
(119,685,l),
(127,671,l),
(129,644,l),
(121,593,l),
(137,585,l),
(153,587,l),
(170,578,l)
);
}
);
width = 492;
}
);
note = dollar;
unicode = 36;
userData = {
KernOnSpecialSpacing = {
L = symbols;
R = symbols;
};
};
}
{
glyphname = percent;
kernLeft = KO_percent;
layers = (
{
hints = (
{
horizontal = 1;
place = (-10,41);
type = Stem;
},
{
horizontal = 1;
place = (325,41);
type = Stem;
},
{
horizontal = 1;
place = (644,41);
type = Stem;
},
{
place = (55,110);
type = Stem;
},
{
place = (297,110);
type = Stem;
},
{
place = (472,98);
type = Stem;
},
{
place = (702,98);
type = Stem;
},
{
horizontal = 1;
place = (0,21);
target = up;
type = BottomGhost;
},
{
horizontal = 1;
place = (309,41);
type = Stem;
}
);
layerId = m005;
shapes = (
{
closed = 1;
nodes = (
(179,-34,l),
(206,-42,l),
(214,-34,l),
(228,-32,l),
(248,-9,l),
(257,7,l),
(270,17,l),
(263,31,l),
(278,49,l),
(285,63,l),
(289,71,l),
(306,83,l),
(301,97,l),
(315,116,l),
(317,128,l),
(321,136,l),
(331,152,l),
(337,165,l),
(354,181,l),
(360,190,l),
(367,209,l),
(380,216,l),
(380,231,l),
(393,244,l),
(397,253,l),
(410,268,l),
(412,279,l),
(413,294,l),
(432,311,l),
(433,327,l),
(448,333,l),
(456,343,l),
(463,365,l),
(460,370,l),
(480,386,l),
(476,400,l),
(488,411,l),
(496,426,l),
(504,438,l),
(509,450,l),
(528,464,l),
(525,472,l),
(537,488,l),
(554,505,l),
(558,515,l),
(564,525,l),
(572,538,l),
(587,553,l),
(584,570,l),
(590,574,l),
(606,590,l),
(617,600,l),
(627,620,l),
(629,647,l),
(628,663,l),
(635,671,l),
(618,680,l),
(605,694,l),
(582,696,l),
(581,690,l),
(559,686,l),
(542,655,l),
(541,643,l),
(529,631,l),
(525,620,l),
(513,602,l),
(500,592,l),
(493,576,l),
(487,572,l),
(480,558,l),
(472,540,l),
(461,529,l),
(464,518,l),
(457,504,l),
(442,492,l),
(430,475,l),
(431,462,l),
(427,456,l),
(413,438,l),
(401,425,l),
(404,409,l),
(396,397,l),
(379,391,l),
(374,371,l),
(367,362,l),
(354,345,l),
(350,333,l),
(344,326,l),
(335,311,l),
(319,301,l),
(321,287,l),
(310,277,l),
(301,260,l),
(290,249,l),
(291,234,l),
(280,227,l),
(266,196,l),
(254,186,l),
(246,172,l),
(239,160,l),
(221,142,l),
(215,131,l),
(219,123,l),
(199,106,l),
(192,91,l),
(183,82,l),
(176,71,l),
(168,62,l),
(159,49,l),
(151,18,l),
(154,2,l),
(159,-11,l),
(155,-21,l),
(170,-36,l)
);
},
{
closed = 1;
nodes = (
(213,312,l),
(228,321,l),
(239,321,l),
(253,323,l),
(263,337,l),
(287,341,l),
(292,346,l),
(300,362,l),
(320,363,l),
(335,377,l),
(333,390,l),
(339,406,l),
(355,420,l),
(360,427,l),
(355,450,l),
(371,461,l),
(366,479,l),
(368,486,l),
(367,508,l),
(367,522,l),
(369,536,l),
(360,552,l),
(358,567,l),
(355,579,l),
(349,589,l),
(343,603,l),
(340,620,l),
(331,628,l),
(319,649,l),
(311,654,l),
(300,661,l),
(291,666,l),
(279,674,l),
(277,678,l),
(264,685,l),
(254,690,l),
(244,687,l),
(232,697,l),
(217,696,l),
(203,696,l),
(186,695,l),
(173,694,l),
(161,696,l),
(145,691,l),
(129,687,l),
(123,679,l),
(105,668,l),
(92,666,l),
(74,657,l),
(62,643,l),
(66,633,l),
(54,625,l),
(39,611,l),
(30,595,l),
(26,575,l),
(29,563,l),
(23,548,l),
(27,534,l),
(20,524,l),
(17,489,l),
(23,479,l),
(24,464,l),
(32,447,l),
(32,429,l),
(30,420,l),
(35,409,l),
(51,397,l),
(52,386,l),
(53,376,l),
(60,364,l),
(78,353,l),
(83,346,l),
(98,333,l),
(111,328,l),
(117,323,l),
(138,322,l),
(150,321,l),
(166,316,l),
(175,316,l),
(187,317,l)
);
},
{
closed = 1;
nodes = (
(181,378,l),
(165,385,l),
(151,394,l),
(152,405,l),
(137,419,l),
(141,434,l),
(126,448,l),
(137,457,l),
(131,473,l),
(125,488,l),
(129,516,l),
(136,534,l),
(128,553,l),
(137,570,l),
(142,592,l),
(149,614,l),
(149,623,l),
(185,633,l),
(211,629,l),
(237,613,l),
(241,605,l),
(242,588,l),
(253,578,l),
(250,565,l),
(260,545,l),
(258,533,l),
(264,517,l),
(263,493,l),
(265,473,l),
(252,456,l),
(249,446,l),
(253,431,l),
(248,403,l),
(229,389,l),
(203,377,l)
);
},
{
closed = 1;
nodes = (
(608,-19,l),
(623,-22,l),
(639,-20,l),
(652,-16,l),
(666,-7,l),
(684,1,l),
(702,9,l),
(715,14,l),
(725,23,l),
(730,39,l),
(740,46,l),
(752,64,l),
(752,74,l),
(758,90,l),
(758,105,l),
(754,116,l),
(760,132,l),
(756,145,l),
(761,164,l),
(765,176,l),
(768,192,l),
(764,214,l),
(756,229,l),
(750,236,l),
(747,249,l),
(749,270,l),
(740,281,l),
(736,294,l),
(718,305,l),
(713,318,l),
(706,325,l),
(683,333,l),
(667,347,l),
(666,349,l),
(651,350,l),
(630,356,l),
(610,362,l),
(597,359,l),
(583,356,l),
(566,358,l),
(548,353,l),
(540,346,l),
(530,346,l),
(515,338,l),
(502,325,l),
(488,315,l),
(482,311,l),
(474,292,l),
(463,281,l),
(460,272,l),
(454,253,l),
(450,240,l),
(446,232,l),
(445,210,l),
(442,198,l),
(431,187,l),
(439,166,l),
(443,153,l),
(438,137,l),
(439,126,l),
(440,107,l),
(448,92,l),
(457,83,l),
(450,62,l),
(461,51,l),
(466,40,l),
(478,24,l),
(493,20,l),
(509,7,l),
(514,3,l),
(520,-1,l),
(546,-12,l),
(557,-18,l),
(572,-14,l),
(590,-23,l)
);
},
{
closed = 1;
nodes = (
(580,47,l),
(571,50,l),
(566,55,l),
(552,69,l),
(552,86,l),
(543,101,l),
(539,107,l),
(543,121,l),
(535,156,l),
(530,180,l),
(531,202,l),
(530,218,l),
(536,232,l),
(541,249,l),
(543,257,l),
(560,272,l),
(566,287,l),
(582,296,l),
(618,299,l),
(628,291,l),
(641,277,l),
(645,262,l),
(658,249,l),
(651,236,l),
(668,223,l),
(656,206,l),
(665,190,l),
(668,174,l),
(663,143,l),
(657,126,l),
(665,101,l),
(658,81,l),
(647,68,l),
(630,47,l),
(612,45,l)
);
}
);
width = 785;
},
{
hints = (
{
horizontal = 1;
place = (-10,41);
type = Stem;
},
{
horizontal = 1;
place = (325,41);
type = Stem;
},
{
horizontal = 1;
place = (644,41);
type = Stem;
},
{
place = (55,110);
type = Stem;
},
{
place = (297,110);
type = Stem;
},
{
place = (472,98);
type = Stem;
},
{
place = (702,98);
type = Stem;
},
{
horizontal = 1;
place = (0,21);
target = up;
type = BottomGhost;
},
{
horizontal = 1;
place = (309,41);
type = Stem;
}
);
layerId = m002;
shapes = (
{
closed = 1;
nodes = (
(205,-55,l),
(213,-61,l),
(232,-61,l),
(250,-65,l),
(256,-59,l),
(281,-49,l),
(292,-41,l),
(303,-21,l),
(309,-8,l),
(321,8,l),
(326,20,l),
(333,34,l),
(346,45,l),
(349,65,l),
(358,78,l),
(359,92,l),
(373,97,l),
(378,110,l),
(383,131,l),
(395,143,l),
(405,169,l),
(408,184,l),
(427,207,l),
(434,223,l),
(448,231,l),
(463,262,l),
(475,285,l),
(487,297,l),
(485,309,l),
(504,325,l),
(514,333,l),
(522,343,l),
(517,358,l),
(523,377,l),
(532,383,l),
(540,399,l),
(558,421,l),
(564,441,l),
(573,452,l),
(586,460,l),
(588,477,l),
(603,488,l),
(604,501,l),
(613,517,l),
(621,527,l),
(641,542,l),
(648,568,l),
(656,576,l),
(674,586,l),
(672,599,l),
(685,625,l),
(699,638,l),
(694,660,l),
(699,665,l),
(693,682,l),
(674,690,l),
(664,698,l),
(642,710,l),
(624,715,l),
(599,715,l),
(586,705,l),
(570,694,l),
(552,669,l),
(554,660,l),
(543,649,l),
(535,627,l),
(519,621,l),
(526,606,l),
(504,592,l),
(510,581,l),
(489,571,l),
(484,556,l),
(476,541,l),
(477,533,l),
(463,516,l),
(446,490,l),
(435,482,l),
(429,469,l),
(421,454,l),
(424,441,l),
(405,424,l),
(404,412,l),
(400,397,l),
(392,391,l),
(378,375,l),
(375,364,l),
(357,352,l),
(359,338,l),
(345,326,l),
(345,314,l),
(333,295,l),
(321,286,l),
(316,271,l),
(308,266,l),
(303,248,l),
(283,237,l),
(283,222,l),
(277,214,l),
(264,202,l),
(261,184,l),
(249,173,l),
(234,162,l),
(227,145,l),
(217,120,l),
(205,105,l),
(197,94,l),
(192,84,l),
(179,64,l),
(156,29,l),
(151,17,l),
(155,3,l),
(162,-15,l),
(169,-31,l),
(191,-48,l)
);
},
{
closed = 1;
nodes = (
(219,287,l),
(235,298,l),
(250,293,l),
(280,305,l),
(282,316,l),
(297,318,l),
(329,339,l),
(335,342,l),
(347,354,l),
(361,371,l),
(362,378,l),
(375,389,l),
(380,409,l),
(388,423,l),
(386,433,l),
(394,445,l),
(401,456,l),
(400,473,l),
(403,493,l),
(399,522,l),
(405,534,l),
(400,544,l),
(387,568,l),
(394,580,l),
(384,591,l),
(381,610,l),
(367,623,l),
(365,630,l),
(361,644,l),
(341,661,l),
(321,674,l),
(313,689,l),
(296,691,l),
(287,702,l),
(269,704,l),
(257,708,l),
(239,715,l),
(234,720,l),
(218,721,l),
(187,724,l),
(161,722,l),
(158,719,l),
(143,714,l),
(121,706,l),
(115,705,l),
(91,690,l),
(86,683,l),
(69,676,l),
(66,668,l),
(44,654,l),
(43,644,l),
(34,631,l),
(27,622,l),
(23,602,l),
(14,589,l),
(4,573,l),
(4,561,l),
(-5,549,l),
(1,537,l),
(-8,521,l),
(-4,493,l),
(5,475,l),
(6,462,l),
(3,445,l),
(6,425,l),
(13,418,l),
(16,400,l),
(28,387,l),
(31,371,l),
(42,363,l),
(48,345,l),
(59,342,l),
(66,330,l),
(91,318,l),
(94,312,l),
(105,308,l),
(129,294,l),
(157,292,l),
(177,293,l),
(182,285,l)
);
},
{
closed = 1;
nodes = (
(188,405,l),
(175,405,l),
(179,417,l),
(164,433,l),
(165,440,l),
(156,459,l),
(152,479,l),
(154,490,l),
(156,503,l),
(159,525,l),
(165,538,l),
(163,554,l),
(160,569,l),
(167,585,l),
(171,600,l),
(183,607,l),
(195,604,l),
(211,600,l),
(227,589,l),
(225,578,l),
(234,570,l),
(230,552,l),
(235,535,l),
(234,526,l),
(233,515,l),
(234,503,l),
(236,490,l),
(238,472,l),
(244,459,l),
(240,447,l),
(236,438,l),
(228,428,l),
(223,414,l),
(214,410,l),
(203,405,l)
);
},
{
closed = 1;
nodes = (
(685,-47,l),
(700,-41,l),
(703,-37,l),
(718,-41,l),
(745,-32,l),
(770,-25,l),
(788,-11,l),
(789,-4,l),
(809,2,l),
(806,14,l),
(815,28,l),
(829,42,l),
(837,63,l),
(833,69,l),
(838,88,l),
(846,107,l),
(843,114,l),
(852,133,l),
(854,146,l),
(859,180,l),
(852,189,l),
(852,211,l),
(842,224,l),
(846,236,l),
(834,255,l),
(842,270,l),
(828,283,l),
(817,289,l),
(815,317,l),
(804,326,l),
(795,338,l),
(782,348,l),
(769,362,l),
(755,364,l),
(731,371,l),
(720,377,l),
(704,377,l),
(687,385,l),
(678,388,l),
(655,388,l),
(627,383,l),
(604,378,l),
(575,366,l),
(566,357,l),
(552,350,l),
(536,340,l),
(534,327,l),
(512,313,l),
(515,304,l),
(497,290,l),
(499,274,l),
(488,262,l),
(480,242,l),
(488,226,l),
(479,205,l),
(468,180,l),
(481,158,l),
(483,136,l),
(476,128,l),
(489,91,l),
(493,78,l),
(485,70,l),
(501,56,l),
(507,38,l),
(516,25,l),
(535,10,l),
(542,-2,l),
(548,-9,l),
(559,-21,l),
(585,-31,l),
(594,-29,l),
(606,-41,l),
(627,-42,l),
(640,-48,l),
(652,-46,l)
);
},
{
closed = 1;
nodes = (
(683,70,l),
(670,69,l),
(656,67,l),
(646,66,l),
(644,80,l),
(635,98,l),
(628,108,l),
(626,127,l),
(621,143,l),
(620,151,l),
(621,165,l),
(621,177,l),
(622,187,l),
(627,201,l),
(626,214,l),
(627,236,l),
(633,244,l),
(644,261,l),
(650,266,l),
(663,266,l),
(682,265,l),
(684,252,l),
(698,244,l),
(699,228,l),
(698,211,l),
(702,192,l),
(707,178,l),
(704,168,l),
(698,147,l),
(705,137,l),
(707,118,l),
(706,102,l),
(704,95,l),
(700,84,l),
(694,71,l)
);
}
);
width = 852;
},
{
hints = (
{
horizontal = 1;
place = (-10,41);
type = Stem;
},
{
horizontal = 1;
place = (325,41);
type = Stem;
},
{
horizontal = 1;
place = (644,41);
type = Stem;
},
{
place = (55,110);
type = Stem;
},
{
place = (297,110);
type = Stem;
},
{
place = (472,98);
type = Stem;
},
{
place = (702,98);
type = Stem;
},
{
horizontal = 1;
place = (0,21);
target = up;
type = BottomGhost;
},
{
horizontal = 1;
place = (309,41);
type = Stem;
}
);
layerId = m003;
shapes = (
{
closed = 1;
nodes = (
(191,-27,l),
(203,-32,l),
(220,-24,l),
(238,-6,l),
(245,12,l),
(258,21,l),
(263,35,l),
(266,48,l),
(268,64,l),
(280,80,l),
(292,93,l),
(302,109,l),
(299,122,l),
(306,134,l),
(312,140,l),
(323,149,l),
(323,157,l),
(336,173,l),
(340,187,l),
(353,194,l),
(362,212,l),
(358,222,l),
(365,235,l),
(382,250,l),
(385,266,l),
(390,279,l),
(406,288,l),
(407,305,l),
(424,319,l),
(424,332,l),
(439,340,l),
(440,356,l),
(447,370,l),
(456,381,l),
(464,395,l),
(476,408,l),
(480,421,l),
(493,428,l),
(501,447,l),
(512,458,l),
(510,472,l),
(531,493,l),
(534,503,l),
(552,515,l),
(556,530,l),
(569,542,l),
(571,558,l),
(582,575,l),
(588,588,l),
(597,597,l),
(602,610,l),
(613,617,l),
(615,632,l),
(617,643,l),
(618,651,l),
(622,659,l),
(602,680,l),
(598,681,l),
(581,681,l),
(567,672,l),
(558,652,l),
(543,643,l),
(538,629,l),
(524,611,l),
(523,601,l),
(514,585,l),
(504,574,l),
(499,562,l),
(495,548,l),
(476,535,l),
(468,525,l),
(464,516,l),
(454,502,l),
(454,485,l),
(441,475,l),
(440,458,l),
(432,450,l),
(423,433,l),
(411,422,l),
(396,408,l),
(390,391,l),
(385,388,l),
(376,371,l),
(364,359,l),
(364,343,l),
(354,329,l),
(351,323,l),
(345,314,l),
(335,298,l),
(330,278,l),
(324,273,l),
(314,266,l),
(304,258,l),
(298,247,l),
(291,235,l),
(281,222,l),
(276,201,l),
(260,188,l),
(261,179,l),
(254,169,l),
(247,155,l),
(236,142,l),
(230,125,l),
(216,121,l),
(214,101,l),
(207,94,l),
(197,77,l),
(193,63,l),
(183,49,l),
(170,41,l),
(162,17,l),
(154,2,l),
(168,-14,l),
(168,-20,l)
);
},
{
closed = 1;
nodes = (
(200,326,l),
(211,327,l),
(221,328,l),
(236,334,l),
(251,342,l),
(273,346,l),
(281,348,l),
(291,361,l),
(302,370,l),
(308,377,l),
(317,391,l),
(328,401,l),
(335,409,l),
(343,419,l),
(343,433,l),
(347,449,l),
(351,458,l),
(357,474,l),
(353,489,l),
(352,502,l),
(352,513,l),
(352,523,l),
(356,532,l),
(349,548,l),
(354,568,l),
(347,577,l),
(335,597,l),
(337,610,l),
(327,613,l),
(320,616,l),
(311,634,l),
(302,643,l),
(291,654,l),
(287,665,l),
(270,671,l),
(252,675,l),
(244,675,l),
(226,680,l),
(218,682,l),
(201,683,l),
(184,679,l),
(166,680,l),
(154,680,l),
(152,683,l),
(130,675,l),
(123,670,l),
(108,660,l),
(94,657,l),
(88,656,l),
(78,641,l),
(73,632,l),
(62,624,l),
(55,609,l),
(41,596,l),
(39,576,l),
(37,564,l),
(32,547,l),
(33,539,l),
(33,531,l),
(32,516,l),
(28,506,l),
(25,498,l),
(21,487,l),
(33,475,l),
(34,455,l),
(41,445,l),
(41,429,l),
(49,415,l),
(48,398,l),
(62,384,l),
(62,376,l),
(74,360,l),
(87,354,l),
(97,349,l),
(108,346,l),
(121,334,l),
(126,335,l),
(143,325,l),
(164,323,l),
(178,321,l)
);
},
{
closed = 1;
nodes = (
(177,367,l),
(148,375,l),
(143,393,l),
(130,399,l),
(128,420,l),
(120,431,l),
(115,443,l),
(123,458,l),
(111,485,l),
(124,517,l),
(115,537,l),
(114,548,l),
(122,571,l),
(115,579,l),
(119,593,l),
(142,619,l),
(151,630,l),
(178,646,l),
(200,638,l),
(214,641,l),
(240,621,l),
(257,605,l),
(254,596,l),
(254,576,l),
(263,560,l),
(263,532,l),
(267,518,l),
(272,464,l),
(260,443,l),
(258,434,l),
(256,414,l),
(249,393,l),
(229,385,l),
(222,372,l),
(210,370,l)
);
},
{
closed = 1;
nodes = (
(602,-10,l),
(615,-13,l),
(633,-9,l),
(642,-9,l),
(662,-6,l),
(676,-1,l),
(691,6,l),
(697,21,l),
(709,26,l),
(721,37,l),
(724,46,l),
(728,59,l),
(734,77,l),
(736,85,l),
(741,95,l),
(745,105,l),
(748,120,l),
(744,134,l),
(744,144,l),
(753,163,l),
(758,175,l),
(755,198,l),
(745,207,l),
(746,225,l),
(736,235,l),
(737,258,l),
(727,264,l),
(732,280,l),
(713,294,l),
(713,302,l),
(700,321,l),
(688,326,l),
(681,330,l),
(670,338,l),
(645,347,l),
(633,348,l),
(615,345,l),
(601,347,l),
(586,349,l),
(572,350,l),
(564,350,l),
(547,348,l),
(543,340,l),
(525,337,l),
(507,327,l),
(507,315,l),
(490,302,l),
(476,294,l),
(472,280,l),
(462,273,l),
(459,252,l),
(457,246,l),
(451,225,l),
(448,217,l),
(438,196,l),
(450,180,l),
(447,170,l),
(443,155,l),
(438,137,l),
(444,122,l),
(455,108,l),
(448,97,l),
(465,82,l),
(460,70,l),
(475,50,l),
(478,42,l),
(487,27,l),
(504,20,l),
(510,11,l),
(531,5,l),
(535,-1,l),
(547,-2,l),
(561,-4,l),
(576,-6,l),
(590,-7,l)
);
},
{
closed = 1;
nodes = (
(583,27,l),
(567,36,l),
(564,44,l),
(532,65,l),
(539,77,l),
(525,94,l),
(519,111,l),
(524,122,l),
(521,143,l),
(515,182,l),
(524,198,l),
(517,211,l),
(527,231,l),
(530,244,l),
(529,263,l),
(545,270,l),
(545,284,l),
(556,294,l),
(574,303,l),
(626,305,l),
(649,281,l),
(666,252,l),
(660,234,l),
(670,219,l),
(675,206,l),
(666,194,l),
(677,181,l),
(670,148,l),
(672,135,l),
(666,99,l),
(658,85,l),
(652,65,l),
(638,44,l),
(621,32,l),
(616,36,l)
);
}
);
width = 781;
}
);
metricLeft = "=S";
metricRight = "=S";
note = percent;
unicode = 37;
userData = {
KernOnSpecialSpacing = {
L = "spaced-off";
};
};
}
{
glyphname = ampersand;
kernLeft = KO_ampersand;
kernRight = KO_ampersand;
layers = (
{
hints = (
{
horizontal = 1;
place = (-10,64);
type = Stem;
},
{
horizontal = 1;
place = (248,65);
type = Stem;
},
{
horizontal = 1;
place = (560,70);
type = Stem;
},
{
place = (98,90);
type = Stem;
},
{
place = (424,95);
type = Stem;
},
{
place = (70,95);
type = Stem;
}
);
layerId = m005;
shapes = (
{
closed = 1;
nodes = (
(293,-16,l),
(313,-18,l),
(330,-15,l),
(340,-15,l),
(359,-13,l),
(372,-5,l),
(387,6,l),
(387,12,l),
(405,11,l),
(419,25,l),
(424,35,l),
(450,45,l),
(463,34,l),
(469,27,l),
(489,18,l),
(514,-3,l),
(523,-6,l),
(544,-5,l),
(545,2,l),
(570,12,l),
(579,22,l),
(580,40,l),
(597,53,l),
(592,64,l),
(596,75,l),
(587,90,l),
(588,102,l),
(552,122,l),
(543,128,l),
(523,128,l),
(513,150,l),
(511,167,l),
(525,183,l),
(515,199,l),
(519,210,l),
(527,229,l),
(531,244,l),
(527,264,l),
(531,290,l),
(528,303,l),
(522,324,l),
(510,326,l),
(488,334,l),
(471,342,l),
(461,341,l),
(446,334,l),
(444,317,l),
(445,292,l),
(441,278,l),
(430,263,l),
(432,250,l),
(434,232,l),
(431,211,l),
(409,223,l),
(398,229,l),
(379,247,l),
(378,254,l),
(361,262,l),
(354,273,l),
(342,292,l),
(326,296,l),
(325,316,l),
(303,322,l),
(291,339,l),
(283,356,l),
(301,370,l),
(317,372,l),
(331,379,l),
(345,393,l),
(356,404,l),
(374,409,l),
(377,420,l),
(392,432,l),
(397,442,l),
(408,456,l),
(412,469,l),
(432,479,l),
(437,496,l),
(432,514,l),
(430,540,l),
(438,556,l),
(440,569,l),
(432,584,l),
(423,599,l),
(418,611,l),
(417,620,l),
(407,635,l),
(389,639,l),
(377,649,l),
(362,660,l),
(345,666,l),
(341,667,l),
(318,673,l),
(302,673,l),
(295,680,l),
(280,674,l),
(246,672,l),
(236,670,l),
(221,673,l),
(204,665,l),
(185,655,l),
(180,658,l),
(170,646,l),
(156,639,l),
(143,625,l),
(128,621,l),
(114,610,l),
(113,600,l),
(100,578,l),
(93,571,l),
(89,551,l),
(90,536,l),
(93,506,l),
(98,494,l),
(101,482,l),
(95,467,l),
(113,447,l),
(116,440,l),
(117,426,l),
(129,407,l),
(128,383,l),
(113,369,l),
(109,361,l),
(84,353,l),
(74,343,l),
(74,329,l),
(56,320,l),
(44,306,l),
(35,301,l),
(33,287,l),
(29,274,l),
(26,258,l),
(24,239,l),
(22,221,l),
(15,210,l),
(12,181,l),
(15,164,l),
(24,152,l),
(17,130,l),
(24,118,l),
(38,107,l),
(39,91,l),
(38,77,l),
(56,71,l),
(59,55,l),
(66,42,l),
(88,35,l),
(102,29,l),
(104,23,l),
(126,11,l),
(128,3,l),
(146,0,l),
(160,-10,l),
(182,-14,l),
(190,-11,l),
(210,-13,l),
(221,-13,l),
(239,-19,l),
(247,-19,l),
(272,-22,l)
);
},
{
closed = 1;
nodes = (
(203,81,l),
(197,87,l),
(173,99,l),
(170,108,l),
(142,120,l),
(141,141,l),
(126,149,l),
(133,167,l),
(128,177,l),
(123,206,l),
(136,236,l),
(139,254,l),
(137,266,l),
(148,269,l),
(173,292,l),
(190,303,l),
(214,285,l),
(225,265,l),
(241,256,l),
(244,247,l),
(263,229,l),
(273,226,l),
(276,210,l),
(287,201,l),
(293,190,l),
(311,177,l),
(323,157,l),
(345,133,l),
(369,122,l),
(367,96,l),
(342,92,l),
(340,83,l),
(322,83,l),
(300,74,l),
(281,76,l),
(251,70,l)
);
},
{
closed = 1;
nodes = (
(207,451,l),
(206,462,l),
(195,475,l),
(199,492,l),
(189,508,l),
(198,543,l),
(198,566,l),
(216,581,l),
(221,592,l),
(287,601,l),
(292,593,l),
(304,590,l),
(324,579,l),
(339,553,l),
(330,540,l),
(334,511,l),
(314,483,l),
(316,477,l),
(303,462,l),
(282,463,l),
(281,453,l),
(267,444,l),
(243,442,l),
(225,428,l)
);
}
);
width = 589;
},
{
hints = (
{
horizontal = 1;
place = (-10,64);
type = Stem;
},
{
horizontal = 1;
place = (248,65);
type = Stem;
},
{
horizontal = 1;
place = (560,70);
type = Stem;
},
{
place = (98,90);
type = Stem;
},
{
place = (424,95);
type = Stem;
},
{
place = (70,95);
type = Stem;
}
);
layerId = m002;
shapes = (
{
closed = 1;
nodes = (
(297,-73,l),
(329,-68,l),
(336,-68,l),
(361,-67,l),
(372,-61,l),
(395,-65,l),
(408,-62,l),
(413,-56,l),
(430,-46,l),
(454,-43,l),
(459,-37,l),
(473,-27,l),
(499,-18,l),
(513,-29,l),
(534,-45,l),
(550,-51,l),
(563,-56,l),
(599,-49,l),
(623,-35,l),
(637,-30,l),
(642,-19,l),
(657,-8,l),
(680,18,l),
(688,30,l),
(692,44,l),
(684,59,l),
(693,74,l),
(690,93,l),
(691,108,l),
(683,123,l),
(673,136,l),
(656,148,l),
(642,150,l),
(629,162,l),
(612,167,l),
(613,192,l),
(624,204,l),
(626,220,l),
(631,228,l),
(634,260,l),
(629,286,l),
(621,310,l),
(628,322,l),
(613,332,l),
(617,352,l),
(605,355,l),
(595,371,l),
(580,383,l),
(551,385,l),
(530,389,l),
(513,387,l),
(493,380,l),
(475,359,l),
(463,341,l),
(459,330,l),
(454,309,l),
(446,305,l),
(436,307,l),
(429,317,l),
(423,325,l),
(419,331,l),
(408,342,l),
(421,355,l),
(433,362,l),
(446,370,l),
(466,385,l),
(479,392,l),
(481,402,l),
(498,424,l),
(502,430,l),
(518,443,l),
(513,464,l),
(526,479,l),
(523,487,l),
(534,506,l),
(529,533,l),
(539,552,l),
(540,566,l),
(530,575,l),
(523,603,l),
(518,623,l),
(512,629,l),
(495,645,l),
(498,658,l),
(480,667,l),
(480,681,l),
(468,683,l),
(443,694,l),
(439,707,l),
(425,706,l),
(405,716,l),
(384,719,l),
(370,729,l),
(331,728,l),
(320,731,l),
(291,726,l),
(278,727,l),
(258,718,l),
(254,713,l),
(226,715,l),
(204,705,l),
(188,689,l),
(174,684,l),
(173,673,l),
(151,670,l),
(145,658,l),
(133,646,l),
(120,640,l),
(112,620,l),
(114,611,l),
(102,595,l),
(88,550,l),
(92,544,l),
(83,506,l),
(83,491,l),
(95,479,l),
(94,467,l),
(99,442,l),
(103,420,l),
(122,403,l),
(103,385,l),
(94,382,l),
(81,366,l),
(65,360,l),
(57,338,l),
(46,325,l),
(39,309,l),
(25,291,l),
(26,282,l),
(27,266,l),
(13,257,l),
(21,240,l),
(8,220,l),
(16,206,l),
(5,183,l),
(11,161,l),
(20,150,l),
(17,132,l),
(22,119,l),
(21,105,l),
(37,90,l),
(29,79,l),
(45,60,l),
(66,36,l),
(80,18,l),
(97,3,l),
(101,-2,l),
(117,-12,l),
(128,-23,l),
(136,-28,l),
(154,-33,l),
(159,-40,l),
(181,-43,l),
(189,-57,l),
(203,-53,l),
(216,-61,l),
(235,-64,l),
(258,-62,l),
(261,-73,l),
(280,-74,l)
);
},
{
closed = 1;
nodes = (
(268,134,l),
(259,133,l),
(252,133,l),
(246,144,l),
(236,150,l),
(228,155,l),
(222,167,l),
(216,181,l),
(219,191,l),
(221,196,l),
(226,208,l),
(228,222,l),
(229,231,l),
(237,225,l),
(245,218,l),
(248,214,l),
(253,207,l),
(258,200,l),
(263,198,l),
(269,196,l),
(277,194,l),
(284,186,l),
(286,176,l),
(288,166,l),
(296,162,l),
(304,157,l),
(309,152,l),
(316,146,l),
(319,139,l),
(326,124,l),
(320,129,l),
(312,127,l),
(304,126,l),
(299,125,l),
(287,124,l),
(275,122,l)
);
},
{
closed = 1;
nodes = (
(300,507,l),
(298,512,l),
(296,516,l),
(295,523,l),
(295,526,l),
(295,531,l),
(294,537,l),
(293,543,l),
(301,544,l),
(305,544,l),
(311,544,l),
(318,544,l),
(326,541,l),
(332,539,l),
(338,536,l),
(335,532,l),
(332,529,l),
(327,523,l),
(322,517,l),
(321,513,l),
(319,507,l),
(313,505,l),
(306,502,l),
(302,501,l)
);
}
);
width = 693;
},
{
hints = (
{
horizontal = 1;
place = (-10,64);
type = Stem;
},
{
horizontal = 1;
place = (248,65);
type = Stem;
},
{
horizontal = 1;
place = (560,70);
type = Stem;
},
{
place = (98,90);
type = Stem;
},
{
place = (424,95);
type = Stem;
},
{
place = (70,95);
type = Stem;
}
);
layerId = m003;
shapes = (
{
closed = 1;
nodes = (
(265,-11,l),
(286,-13,l),
(305,-10,l),
(319,-1,l),
(350,0,l),
(358,9,l),
(377,13,l),
(380,18,l),
(406,32,l),
(415,32,l),
(420,44,l),
(446,62,l),
(460,42,l),
(464,34,l),
(480,25,l),
(503,11,l),
(520,13,l),
(539,8,l),
(548,24,l),
(561,35,l),
(571,48,l),
(574,59,l),
(574,78,l),
(566,89,l),
(551,109,l),
(534,116,l),
(521,125,l),
(504,132,l),
(494,145,l),
(487,159,l),
(493,170,l),
(500,194,l),
(498,201,l),
(507,215,l),
(516,229,l),
(505,250,l),
(515,265,l),
(511,294,l),
(504,309,l),
(498,315,l),
(487,326,l),
(462,331,l),
(449,328,l),
(446,317,l),
(439,286,l),
(443,266,l),
(436,252,l),
(435,241,l),
(437,224,l),
(427,214,l),
(421,194,l),
(405,203,l),
(390,215,l),
(388,220,l),
(367,229,l),
(362,240,l),
(351,256,l),
(348,261,l),
(329,274,l),
(323,283,l),
(307,293,l),
(297,310,l),
(283,321,l),
(280,327,l),
(275,341,l),
(266,362,l),
(278,366,l),
(289,374,l),
(310,386,l),
(309,391,l),
(327,396,l),
(342,411,l),
(359,417,l),
(361,425,l),
(367,432,l),
(386,442,l),
(390,457,l),
(398,474,l),
(402,480,l),
(413,497,l),
(409,514,l),
(417,536,l),
(421,551,l),
(412,573,l),
(410,587,l),
(400,593,l),
(396,608,l),
(384,619,l),
(382,629,l),
(362,642,l),
(355,644,l),
(349,659,l),
(329,661,l),
(315,659,l),
(300,667,l),
(292,671,l),
(269,665,l),
(240,663,l),
(225,663,l),
(218,660,l),
(202,650,l),
(191,645,l),
(169,639,l),
(153,640,l),
(142,628,l),
(126,613,l),
(127,606,l),
(118,592,l),
(112,580,l),
(97,567,l),
(90,550,l),
(95,539,l),
(97,511,l),
(91,491,l),
(98,479,l),
(107,471,l),
(112,455,l),
(109,443,l),
(115,425,l),
(121,412,l),
(133,399,l),
(144,382,l),
(118,375,l),
(111,362,l),
(101,351,l),
(90,344,l),
(79,334,l),
(73,331,l),
(50,316,l),
(52,300,l),
(41,287,l),
(36,276,l),
(24,270,l),
(17,253,l),
(15,234,l),
(16,218,l),
(23,212,l),
(15,180,l),
(16,164,l),
(17,154,l),
(22,139,l),
(29,119,l),
(34,104,l),
(36,92,l),
(54,82,l),
(55,74,l),
(67,62,l),
(81,49,l),
(93,39,l),
(102,27,l),
(106,23,l),
(127,13,l),
(147,8,l),
(160,1,l),
(173,3,l),
(188,-2,l),
(197,-3,l),
(208,-11,l),
(230,-13,l),
(248,-15,l)
);
},
{
closed = 1;
nodes = (
(233,67,l),
(207,66,l),
(189,78,l),
(166,83,l),
(164,90,l),
(142,101,l),
(115,131,l),
(106,168,l),
(102,183,l),
(115,220,l),
(120,250,l),
(141,276,l),
(141,294,l),
(170,307,l),
(186,323,l),
(195,303,l),
(209,287,l),
(242,261,l),
(258,233,l),
(275,220,l),
(276,210,l),
(293,197,l),
(302,188,l),
(321,179,l),
(330,159,l),
(355,143,l),
(355,135,l),
(363,124,l),
(382,106,l),
(366,99,l),
(348,75,l),
(328,70,l),
(314,73,l),
(295,64,l),
(279,67,l),
(247,61,l)
);
},
{
closed = 1;
nodes = (
(197,431,l),
(192,451,l),
(185,465,l),
(190,480,l),
(175,493,l),
(168,508,l),
(167,535,l),
(171,553,l),
(182,570,l),
(183,581,l),
(204,589,l),
(216,606,l),
(246,614,l),
(301,606,l),
(332,570,l),
(343,542,l),
(341,513,l),
(326,497,l),
(306,472,l),
(302,460,l),
(272,445,l),
(269,435,l),
(242,431,l),
(228,420,l)
);
}
);
width = 578;
}
);
metricLeft = "=|B";
metricRight = "=L";
note = ampersand;
unicode = 38;
userData = {
KernOnSpecialSpacing = {
L = symbols;
R = symbols;
};
};
}
{
glyphname = quotesingle;
kernLeft = KO_quotedbl;
kernRight = KO_quotedbl;
layers = (
{
hints = (
{
horizontal = 1;
place = (500,200);
type = Stem;
},
{
place = (80,62.5);
type = Stem;
}
);
layerId = m005;
shapes = (
{
closed = 1;
nodes = (
(85,504,l),
(105,501,l),
(116,515,l),
(122,524,l),
(124,537,l),
(125,550,l),
(126,565,l),
(127,574,l),
(139,581,l),
(138,600,l),
(139,615,l),
(129,630,l),
(133,646,l),
(135,657,l),
(132,673,l),
(116,685,l),
(108,692,l),
(93,694,l),
(78,697,l),
(63,689,l),
(56,683,l),
(46,673,l),
(45,659,l),
(44,645,l),
(42,627,l),
(44,620,l),
(40,601,l),
(42,584,l),
(46,574,l),
(45,566,l),
(42,552,l),
(48,539,l),
(57,520,l),
(58,510,l),
(72,506,l)
);
}
);
width = 174;
},
{
hints = (
{
horizontal = 1;
place = (500,200);
type = Stem;
},
{
place = (80,62.5);
type = Stem;
}
);
layerId = m002;
shapes = (
{
closed = 1;
nodes = (
(125,458,l),
(136,458,l),
(148,470,l),
(174,490,l),
(181,506,l),
(190,521,l),
(190,547,l),
(197,563,l),
(198,582,l),
(190,595,l),
(197,624,l),
(187,640,l),
(187,660,l),
(172,680,l),
(158,684,l),
(137,705,l),
(124,715,l),
(108,711,l),
(66,712,l),
(55,704,l),
(24,693,l),
(17,676,l),
(18,664,l),
(1,655,l),
(4,642,l),
(-2,621,l),
(1,589,l),
(9,564,l),
(2,555,l),
(1,523,l),
(16,511,l),
(18,496,l),
(34,474,l),
(74,457,l),
(88,452,l)
);
}
);
width = 198;
},
{
hints = (
{
horizontal = 1;
place = (500,200);
type = Stem;
},
{
place = (80,62.5);
type = Stem;
}
);
layerId = m003;
shapes = (
{
closed = 1;
nodes = (
(74,500,l),
(87,499,l),
(100,499,l),
(110,508,l),
(118,516,l),
(116,533,l),
(115,544,l),
(119,562,l),
(113,574,l),
(123,590,l),
(119,606,l),
(122,617,l),
(126,629,l),
(121,644,l),
(121,654,l),
(120,666,l),
(119,676,l),
(115,687,l),
(97,692,l),
(72,697,l),
(55,692,l),
(52,675,l),
(52,660,l),
(53,645,l),
(50,633,l),
(47,620,l),
(44,611,l),
(50,591,l),
(50,582,l),
(51,570,l),
(53,557,l),
(56,544,l),
(59,530,l),
(61,516,l),
(64,500,l)
);
}
);
width = 182;
}
);
metricLeft = "=period";
metricRight = "=period";
note = quotesingle;
unicode = 39;
userData = {
KernOnSpecialSpacing = {
L = quotes;
R = quotes;
};
};
}
{
glyphname = parenleft;
kernLeft = KO_parenleft;
kernRight = KO_parenleft;
layers = (
{
hints = (
{
horizontal = 1;
place = (-80,827);
type = Stem;
},
{
place = (70,100);
type = Stem;
}
);
layerId = m005;
shapes = (
{
closed = 1;
nodes = (
(163,347,l),
(171,363,l),
(172,375,l),
(165,393,l),
(164,415,l),
(177,426,l),
(169,440,l),
(178,451,l),
(175,472,l),
(184,483,l),
(180,505,l),
(195,517,l),
(194,530,l),
(195,543,l),
(207,563,l),
(214,573,l),
(213,585,l),
(227,602,l),
(238,609,l),
(233,627,l),
(250,640,l),
(259,644,l),
(271,654,l),
(274,665,l),
(299,688,l),
(299,702,l),
(291,721,l),
(288,733,l),
(270,736,l),
(261,739,l),
(235,720,l),
(225,712,l),
(210,706,l),
(189,691,l),
(179,680,l),
(178,672,l),
(167,661,l),
(156,645,l),
(153,640,l),
(135,625,l),
(129,613,l),
(118,600,l),
(122,581,l),
(111,568,l),
(107,552,l),
(103,542,l),
(100,527,l),
(95,517,l),
(80,502,l),
(90,482,l),
(77,473,l),
(72,454,l),
(76,438,l),
(72,422,l),
(72,406,l),
(65,398,l),
(65,384,l),
(62,365,l),
(61,350,l),
(62,332,l),
(64,314,l),
(70,307,l),
(66,292,l),
(66,270,l),
(75,258,l),
(70,243,l),
(80,223,l),
(81,214,l),
(86,192,l),
(76,185,l),
(92,167,l),
(97,149,l),
(89,142,l),
(106,122,l),
(104,111,l),
(109,98,l),
(112,84,l),
(120,66,l),
(138,52,l),
(134,42,l),
(146,33,l),
(163,12,l),
(166,1,l),
(170,-9,l),
(191,-13,l),
(198,-27,l),
(211,-36,l),
(215,-52,l),
(234,-58,l),
(254,-72,l),
(261,-69,l),
(283,-59,l),
(292,-47,l),
(297,-41,l),
(293,-28,l),
(293,-12,l),
(282,-3,l),
(270,6,l),
(264,17,l),
(243,29,l),
(236,44,l),
(239,56,l),
(218,62,l),
(222,83,l),
(216,94,l),
(211,112,l),
(191,123,l),
(192,134,l),
(182,146,l),
(185,162,l),
(188,184,l),
(174,194,l),
(172,211,l),
(173,222,l),
(166,241,l),
(174,254,l),
(166,270,l),
(170,284,l),
(173,307,l),
(170,323,l)
);
}
);
width = 331;
},
{
hints = (
{
horizontal = 1;
place = (-80,827);
type = Stem;
},
{
place = (70,100);
type = Stem;
}
);
layerId = m002;
shapes = (
{
closed = 1;
nodes = (
(220,345,l),
(220,362,l),
(213,379,l),
(221,396,l),
(218,409,l),
(219,440,l),
(221,460,l),
(229,473,l),
(235,491,l),
(232,498,l),
(239,514,l),
(250,528,l),
(256,541,l),
(261,571,l),
(268,581,l),
(276,601,l),
(297,608,l),
(312,624,l),
(327,636,l),
(351,655,l),
(359,667,l),
(363,683,l),
(349,693,l),
(355,708,l),
(339,723,l),
(338,735,l),
(331,751,l),
(312,768,l),
(307,780,l),
(295,783,l),
(268,791,l),
(243,785,l),
(239,787,l),
(217,772,l),
(195,764,l),
(191,754,l),
(176,746,l),
(166,734,l),
(157,724,l),
(138,713,l),
(127,696,l),
(118,692,l),
(117,677,l),
(103,660,l),
(100,646,l),
(91,637,l),
(78,615,l),
(74,593,l),
(68,583,l),
(53,568,l),
(54,554,l),
(40,539,l),
(43,527,l),
(38,501,l),
(35,488,l),
(20,456,l),
(20,443,l),
(28,429,l),
(14,413,l),
(15,398,l),
(10,382,l),
(20,366,l),
(10,353,l),
(23,317,l),
(18,300,l),
(10,289,l),
(21,273,l),
(24,243,l),
(25,225,l),
(32,213,l),
(27,202,l),
(31,180,l),
(42,165,l),
(39,149,l),
(45,121,l),
(57,108,l),
(57,85,l),
(64,64,l),
(79,52,l),
(84,27,l),
(104,13,l),
(120,-5,l),
(129,-20,l),
(127,-29,l),
(160,-53,l),
(170,-71,l),
(187,-85,l),
(197,-100,l),
(215,-106,l),
(237,-123,l),
(254,-126,l),
(271,-128,l),
(275,-119,l),
(292,-120,l),
(305,-112,l),
(320,-98,l),
(327,-87,l),
(331,-72,l),
(344,-55,l),
(349,-23,l),
(343,-11,l),
(349,3,l),
(330,19,l),
(327,30,l),
(295,51,l),
(279,73,l),
(270,80,l),
(265,97,l),
(252,108,l),
(255,124,l),
(243,150,l),
(236,172,l),
(234,185,l),
(221,195,l),
(227,208,l),
(224,230,l),
(215,255,l),
(212,276,l),
(219,306,l),
(209,321,l)
);
}
);
width = 367;
},
{
hints = (
{
horizontal = 1;
place = (-80,827);
type = Stem;
},
{
place = (70,100);
type = Stem;
}
);
layerId = m003;
shapes = (
{
closed = 1;
nodes = (
(157,341,l),
(155,353,l),
(160,359,l),
(157,380,l),
(152,393,l),
(163,410,l),
(158,427,l),
(154,441,l),
(155,455,l),
(167,472,l),
(172,479,l),
(176,500,l),
(179,515,l),
(186,525,l),
(188,541,l),
(189,553,l),
(196,566,l),
(195,583,l),
(213,600,l),
(210,608,l),
(223,621,l),
(224,636,l),
(234,640,l),
(250,660,l),
(254,666,l),
(266,672,l),
(277,685,l),
(290,700,l),
(284,713,l),
(276,728,l),
(250,731,l),
(231,718,l),
(225,702,l),
(206,696,l),
(182,672,l),
(174,661,l),
(168,652,l),
(163,647,l),
(159,632,l),
(146,616,l),
(142,609,l),
(129,587,l),
(127,580,l),
(118,563,l),
(112,555,l),
(104,536,l),
(96,521,l),
(94,505,l),
(90,494,l),
(95,480,l),
(92,464,l),
(81,447,l),
(84,437,l),
(82,423,l),
(78,403,l),
(77,393,l),
(81,375,l),
(79,366,l),
(70,350,l),
(73,338,l),
(77,321,l),
(72,300,l),
(69,289,l),
(69,277,l),
(82,259,l),
(72,245,l),
(83,231,l),
(78,214,l),
(80,200,l),
(87,187,l),
(92,169,l),
(103,155,l),
(106,146,l),
(100,133,l),
(112,115,l),
(117,105,l),
(125,86,l),
(135,76,l),
(136,65,l),
(147,52,l),
(148,37,l),
(168,24,l),
(173,11,l),
(176,-3,l),
(195,-15,l),
(206,-18,l),
(211,-27,l),
(219,-38,l),
(228,-47,l),
(242,-54,l),
(255,-61,l),
(265,-58,l),
(286,-42,l),
(280,-30,l),
(284,-24,l),
(269,-14,l),
(256,-5,l),
(248,5,l),
(234,21,l),
(236,32,l),
(220,46,l),
(214,61,l),
(203,71,l),
(207,82,l),
(198,100,l),
(196,110,l),
(178,127,l),
(181,137,l),
(169,155,l),
(174,165,l),
(165,185,l),
(169,195,l),
(155,210,l),
(165,223,l),
(163,239,l),
(159,261,l),
(157,271,l),
(157,292,l),
(152,307,l),
(159,321,l)
);
}
);
width = 325;
}
);
metricLeft = "=n";
metricRight = "=n/2";
note = parenleft;
unicode = 40;
userData = {
KernOnSpecialSpacing = {
R = parenthesis;
};
};
}
{
glyphname = asterisk;
layers = (
{
hints = (
{
horizontal = 1;
place = (350,400);
type = Stem;
},
{
place = (239,65);
type = Stem;
}
);
layerId = m005;
shapes = (
{
closed = 1;
nodes = (
(220,354,l),
(236,362,l),
(243,375,l),
(239,393,l),
(236,405,l),
(244,425,l),
(242,442,l),
(265,436,l),
(271,426,l),
(289,422,l),
(305,412,l),
(322,411,l),
(335,422,l),
(349,447,l),
(355,461,l),
(352,480,l),
(344,493,l),
(327,511,l),
(309,512,l),
(300,524,l),
(293,532,l),
(309,542,l),
(321,550,l),
(333,560,l),
(342,568,l),
(352,579,l),
(359,587,l),
(353,598,l),
(346,629,l),
(334,631,l),
(322,636,l),
(310,641,l),
(294,633,l),
(280,627,l),
(276,614,l),
(260,610,l),
(242,596,l),
(237,608,l),
(232,621,l),
(234,631,l),
(240,652,l),
(227,679,l),
(230,686,l),
(215,695,l),
(182,694,l),
(165,690,l),
(154,687,l),
(148,671,l),
(152,649,l),
(156,632,l),
(147,617,l),
(149,610,l),
(152,595,l),
(139,604,l),
(131,609,l),
(118,613,l),
(108,619,l),
(84,631,l),
(67,628,l),
(60,628,l),
(45,596,l),
(46,578,l),
(51,569,l),
(80,551,l),
(89,549,l),
(102,534,l),
(111,522,l),
(105,512,l),
(86,501,l),
(74,492,l),
(60,486,l),
(43,478,l),
(40,469,l),
(47,453,l),
(52,428,l),
(69,416,l),
(84,409,l),
(99,415,l),
(111,419,l),
(122,432,l),
(128,441,l),
(144,443,l),
(156,425,l),
(152,415,l),
(146,402,l),
(150,392,l),
(156,379,l),
(158,360,l),
(165,360,l),
(185,349,l)
);
}
);
width = 394;
},
{
hints = (
{
horizontal = 1;
place = (350,400);
type = Stem;
},
{
place = (239,65);
type = Stem;
}
);
layerId = m002;
shapes = (
{
closed = 1;
nodes = (
(182,327,l),
(202,325,l),
(214,325,l),
(223,339,l),
(244,347,l),
(248,359,l),
(253,376,l),
(260,389,l),
(263,401,l),
(276,394,l),
(290,382,l),
(304,381,l),
(310,388,l),
(321,392,l),
(336,405,l),
(346,413,l),
(362,435,l),
(373,454,l),
(372,468,l),
(370,487,l),
(363,502,l),
(332,525,l),
(327,533,l),
(324,541,l),
(352,548,l),
(361,555,l),
(362,570,l),
(369,587,l),
(367,601,l),
(369,611,l),
(350,640,l),
(346,644,l),
(330,655,l),
(317,667,l),
(305,665,l),
(278,660,l),
(266,651,l),
(248,649,l),
(252,661,l),
(240,679,l),
(240,694,l),
(233,701,l),
(225,718,l),
(208,724,l),
(193,720,l),
(163,718,l),
(161,720,l),
(145,713,l),
(128,705,l),
(111,693,l),
(113,673,l),
(107,656,l),
(110,641,l),
(101,649,l),
(89,649,l),
(75,658,l),
(63,661,l),
(38,654,l),
(27,642,l),
(23,633,l),
(0,608,l),
(-2,595,l),
(9,584,l),
(6,575,l),
(20,557,l),
(20,549,l),
(38,530,l),
(61,525,l),
(39,517,l),
(24,503,l),
(19,489,l),
(11,481,l),
(7,463,l),
(3,447,l),
(2,440,l),
(17,412,l),
(36,401,l),
(47,388,l),
(63,380,l),
(66,386,l),
(88,382,l),
(99,393,l),
(114,402,l),
(109,394,l),
(108,372,l),
(116,361,l),
(124,350,l),
(138,332,l),
(150,334,l),
(170,328,l)
);
}
);
width = 373;
},
{
hints = (
{
horizontal = 1;
place = (350,400);
type = Stem;
},
{
place = (239,65);
type = Stem;
}
);
layerId = m003;
shapes = (
{
closed = 1;
nodes = (
(218,349,l),
(236,359,l),
(246,391,l),
(236,404,l),
(242,418,l),
(247,429,l),
(236,442,l),
(246,464,l),
(260,459,l),
(275,443,l),
(279,441,l),
(298,428,l),
(309,421,l),
(335,406,l),
(346,423,l),
(368,440,l),
(368,459,l),
(359,475,l),
(332,489,l),
(326,491,l),
(310,502,l),
(304,511,l),
(288,521,l),
(269,523,l),
(284,543,l),
(302,543,l),
(315,553,l),
(326,564,l),
(337,573,l),
(354,589,l),
(368,605,l),
(348,634,l),
(335,635,l),
(317,634,l),
(305,620,l),
(293,609,l),
(271,610,l),
(254,594,l),
(241,584,l),
(233,603,l),
(232,616,l),
(240,630,l),
(232,638,l),
(240,654,l),
(232,682,l),
(224,698,l),
(184,698,l),
(171,691,l),
(171,659,l),
(179,641,l),
(178,626,l),
(169,616,l),
(176,596,l),
(168,581,l),
(163,593,l),
(141,601,l),
(132,605,l),
(111,608,l),
(111,624,l),
(79,635,l),
(62,628,l),
(44,598,l),
(54,593,l),
(80,568,l),
(93,565,l),
(106,557,l),
(109,551,l),
(130,539,l),
(149,524,l),
(143,514,l),
(131,507,l),
(113,502,l),
(103,486,l),
(84,483,l),
(73,481,l),
(51,457,l),
(53,445,l),
(59,417,l),
(73,406,l),
(104,425,l),
(124,433,l),
(137,441,l),
(156,459,l),
(171,467,l),
(171,452,l),
(171,434,l),
(173,416,l),
(171,393,l),
(170,365,l),
(184,356,l)
);
}
);
width = 424;
}
);
metricLeft = "=period";
metricRight = period;
note = asterisk;
unicode = 42;
userData = {
KernOnSpecialSpacing = {
L = quotes;
R = quotes;
};
};
}
{
glyphname = comma;
kernLeft = KO_comma;
kernRight = KO_comma;
layers = (
{
hints = (
{
horizontal = 1;
place = (-150,35);
type = Stem;
},
{
horizontal = 1;
place = (-5,120);
type = Stem;
},
{
place = (125,51);
type = Stem;
},
{
horizontal = 1;
place = (-5,120);
type = Stem;
},
{
place = (45,121);
type = Stem;
}
);
layerId = m005;
shapes = (
{
closed = 1;
nodes = (
(104,-5,l),
(116,-4,l),
(125,-14,l),
(124,-31,l),
(129,-51,l),
(123,-68,l),
(117,-73,l),
(102,-86,l),
(68,-93,l),
(60,-99,l),
(54,-121,l),
(64,-136,l),
(76,-147,l),
(97,-144,l),
(117,-136,l),
(128,-135,l),
(150,-127,l),
(154,-115,l),
(162,-102,l),
(182,-92,l),
(177,-74,l),
(191,-65,l),
(196,-49,l),
(199,-29,l),
(193,-16,l),
(193,15,l),
(196,29,l),
(191,48,l),
(181,57,l),
(185,77,l),
(179,85,l),
(169,95,l),
(161,107,l),
(149,122,l),
(144,122,l),
(144,124,l),
(130,129,l),
(109,130,l),
(96,131,l),
(81,120,l),
(71,117,l),
(51,103,l),
(40,92,l),
(48,78,l),
(47,45,l),
(53,27,l),
(55,19,l),
(63,8,l),
(76,0,l),
(87,-6,l)
);
}
);
width = 245;
},
{
hints = (
{
horizontal = 1;
place = (-150,35);
type = Stem;
},
{
horizontal = 1;
place = (-5,120);
type = Stem;
},
{
place = (125,51);
type = Stem;
},
{
horizontal = 1;
place = (-5,120);
type = Stem;
},
{
place = (45,121);
type = Stem;
}
);
layerId = m002;
shapes = (
{
closed = 1;
nodes = (
(116,-23,l),
(119,-32,l),
(122,-54,l),
(90,-54,l),
(83,-64,l),
(63,-76,l),
(64,-89,l),
(55,-108,l),
(60,-121,l),
(59,-141,l),
(72,-149,l),
(78,-157,l),
(99,-160,l),
(148,-160,l),
(189,-138,l),
(191,-131,l),
(206,-117,l),
(223,-105,l),
(221,-87,l),
(234,-73,l),
(234,-46,l),
(250,-34,l),
(237,-20,l),
(237,27,l),
(247,47,l),
(236,61,l),
(229,69,l),
(234,83,l),
(218,104,l),
(208,118,l),
(201,141,l),
(190,147,l),
(173,172,l),
(158,178,l),
(129,182,l),
(124,186,l),
(118,181,l),
(84,177,l),
(73,178,l),
(39,158,l),
(29,144,l),
(19,139,l),
(16,124,l),
(4,113,l),
(10,91,l),
(-2,66,l),
(16,27,l),
(38,-5,l),
(59,-14,l),
(93,-22,l)
);
}
);
width = 245;
},
{
hints = (
{
horizontal = 1;
place = (-150,35);
type = Stem;
},
{
horizontal = 1;
place = (-5,120);
type = Stem;
},
{
place = (125,51);
type = Stem;
},
{
horizontal = 1;
place = (-5,120);
type = Stem;
},
{
place = (45,121);
type = Stem;
}
);
layerId = m003;
shapes = (
{
closed = 1;
nodes = (
(104,-8,l),
(114,-9,l),
(117,-9,l),
(119,-17,l),
(124,-23,l),
(126,-57,l),
(118,-71,l),
(113,-77,l),
(104,-83,l),
(91,-87,l),
(66,-94,l),
(59,-99,l),
(56,-124,l),
(63,-137,l),
(69,-147,l),
(86,-145,l),
(98,-144,l),
(112,-142,l),
(136,-131,l),
(142,-126,l),
(156,-114,l),
(161,-98,l),
(171,-86,l),
(175,-77,l),
(183,-65,l),
(196,-45,l),
(199,-36,l),
(191,-16,l),
(196,-1,l),
(201,11,l),
(198,34,l),
(189,48,l),
(179,59,l),
(177,73,l),
(163,88,l),
(147,93,l),
(135,106,l),
(127,104,l),
(110,107,l),
(92,109,l),
(84,103,l),
(60,92,l),
(64,79,l),
(48,69,l),
(46,51,l),
(44,32,l),
(54,18,l),
(66,7,l),
(74,1,l),
(89,-8,l)
);
}
);
width = 245;
}
);
note = comma;
unicode = 44;
userData = {
KernOnSpecialSpacing = {
L = period;
R = period;
};
};
}
{
glyphname = hyphen;
kernLeft = KO_hyphen;
kernRight = KO_hyphen;
layers = (
{
hints = (
{
horizontal = 1;
place = (-75,64);
type = Stem;
},
{
place = (80,400);
type = Stem;
}
);
layerId = m005;
shapes = (
{
closed = 1;
nodes = (
(365,256,l),
(357,267,l),
(357,284,l),
(344,298,l),
(344,306,l),
(324,305,l),
(310,304,l),
(298,306,l),
(278,296,l),
(272,301,l),
(251,295,l),
(227,300,l),
(210,300,l),
(199,298,l),
(178,294,l),
(160,299,l),
(153,297,l),
(135,297,l),
(120,299,l),
(97,293,l),
(81,289,l),
(72,284,l),
(72,268,l),
(66,254,l),
(61,238,l),
(69,230,l),
(81,218,l),
(89,211,l),
(114,210,l),
(129,207,l),
(154,207,l),
(179,209,l),
(199,216,l),
(201,211,l),
(219,218,l),
(237,217,l),
(244,216,l),
(265,210,l),
(279,214,l),
(302,211,l),
(313,210,l),
(335,214,l),
(346,220,l),
(361,229,l),
(355,242,l)
);
}
);
width = 428;
},
{
hints = (
{
horizontal = 1;
place = (-75,64);
type = Stem;
},
{
place = (80,400);
type = Stem;
}
);
layerId = m002;
shapes = (
{
closed = 1;
nodes = (
(408,254,l),
(413,276,l),
(401,303,l),
(399,319,l),
(391,327,l),
(391,338,l),
(363,352,l),
(340,359,l),
(311,349,l),
(293,356,l),
(284,348,l),
(240,345,l),
(225,350,l),
(205,341,l),
(164,348,l),
(152,345,l),
(116,344,l),
(72,345,l),
(50,336,l),
(48,323,l),
(24,322,l),
(21,288,l),
(11,278,l),
(20,255,l),
(10,231,l),
(23,201,l),
(24,188,l),
(38,184,l),
(46,169,l),
(63,160,l),
(89,152,l),
(112,154,l),
(156,164,l),
(173,160,l),
(184,164,l),
(221,159,l),
(257,168,l),
(278,167,l),
(296,160,l),
(316,168,l),
(341,166,l),
(391,178,l),
(394,191,l),
(417,221,l),
(415,238,l)
);
}
);
width = 425;
},
{
hints = (
{
horizontal = 1;
place = (-75,64);
type = Stem;
},
{
place = (80,400);
type = Stem;
}
);
layerId = m003;
shapes = (
{
closed = 1;
nodes = (
(352,246,l),
(356,255,l),
(346,266,l),
(342,280,l),
(335,289,l),
(316,293,l),
(303,296,l),
(289,292,l),
(277,286,l),
(272,288,l),
(257,289,l),
(230,291,l),
(218,283,l),
(210,290,l),
(196,287,l),
(170,287,l),
(163,288,l),
(145,289,l),
(124,280,l),
(111,287,l),
(99,287,l),
(86,287,l),
(69,276,l),
(70,259,l),
(77,243,l),
(76,223,l),
(94,222,l),
(112,219,l),
(121,217,l),
(137,215,l),
(139,220,l),
(156,221,l),
(177,221,l),
(194,221,l),
(201,218,l),
(226,228,l),
(237,228,l),
(255,224,l),
(257,221,l),
(281,229,l),
(288,221,l),
(306,221,l),
(322,223,l),
(344,225,l),
(346,235,l)
);
}
);
width = 427;
}
);
metricLeft = "=n";
metricRight = "=n";
note = underscore;
unicode = 45;
userData = {
KernOnName = hyphen;
KernOnSpecialSpacing = {
L = hyphen;
R = hyphen;
};
};
}
{
glyphname = slash;
kernLeft = KO_slash;
kernRight = KO_slash;
layers = (
{
hints = (
{
horizontal = 1;
place = (0,21);
target = up;
type = BottomGhost;
},
{
place = (10,405);
type = Stem;
}
);
layerId = m005;
shapes = (
{
closed = 1;
nodes = (
(91,-93,l),
(109,-93,l),
(126,-84,l),
(125,-72,l),
(144,-67,l),
(149,-42,l),
(156,-23,l),
(155,4,l),
(170,18,l),
(169,38,l),
(164,45,l),
(177,62,l),
(171,74,l),
(176,92,l),
(185,111,l),
(182,126,l),
(186,138,l),
(199,154,l),
(192,170,l),
(203,175,l),
(211,199,l),
(209,212,l),
(221,224,l),
(222,237,l),
(227,250,l),
(226,263,l),
(227,282,l),
(238,297,l),
(235,314,l),
(237,321,l),
(245,342,l),
(254,359,l),
(247,370,l),
(251,387,l),
(257,395,l),
(256,415,l),
(270,431,l),
(275,445,l),
(281,452,l),
(285,470,l),
(288,489,l),
(288,503,l),
(292,518,l),
(295,526,l),
(297,543,l),
(306,559,l),
(300,569,l),
(304,589,l),
(319,601,l),
(310,617,l),
(315,649,l),
(317,659,l),
(311,672,l),
(297,682,l),
(264,694,l),
(246,683,l),
(242,679,l),
(231,669,l),
(216,640,l),
(210,626,l),
(212,616,l),
(199,598,l),
(202,586,l),
(194,566,l),
(189,549,l),
(192,540,l),
(184,524,l),
(181,510,l),
(183,493,l),
(170,481,l),
(167,468,l),
(163,446,l),
(171,438,l),
(159,416,l),
(164,404,l),
(156,392,l),
(151,378,l),
(141,364,l),
(135,349,l),
(145,333,l),
(129,315,l),
(127,308,l),
(128,289,l),
(118,270,l),
(117,265,l),
(109,245,l),
(118,232,l),
(104,215,l),
(104,199,l),
(104,190,l),
(87,178,l),
(86,154,l),
(89,145,l),
(83,127,l),
(73,120,l),
(78,98,l),
(62,82,l),
(68,75,l),
(54,54,l),
(59,46,l),
(54,31,l),
(49,3,l),
(45,-12,l),
(32,-43,l),
(39,-57,l),
(45,-77,l),
(69,-83,l)
);
}
);
width = 365;
},
{
hints = (
{
horizontal = 1;
place = (0,21);
target = up;
type = BottomGhost;
},
{
place = (10,405);
type = Stem;
}
);
layerId = m002;
shapes = (
{
closed = 1;
nodes = (
(83,-103,l),
(96,-101,l),
(109,-108,l),
(130,-103,l),
(133,-98,l),
(159,-82,l),
(177,-65,l),
(192,-57,l),
(198,-43,l),
(196,-13,l),
(208,16,l),
(208,29,l),
(216,40,l),
(222,59,l),
(222,76,l),
(227,89,l),
(225,106,l),
(236,115,l),
(242,135,l),
(252,157,l),
(250,174,l),
(252,189,l),
(263,209,l),
(264,222,l),
(272,229,l),
(276,247,l),
(277,261,l),
(276,279,l),
(290,291,l),
(291,304,l),
(298,332,l),
(296,349,l),
(307,362,l),
(307,374,l),
(317,392,l),
(326,425,l),
(323,440,l),
(335,469,l),
(345,481,l),
(341,498,l),
(346,507,l),
(358,520,l),
(353,538,l),
(366,549,l),
(367,568,l),
(365,600,l),
(376,613,l),
(369,642,l),
(354,652,l),
(354,663,l),
(339,688,l),
(323,693,l),
(309,702,l),
(276,701,l),
(266,708,l),
(257,701,l),
(231,695,l),
(205,687,l),
(202,677,l),
(187,672,l),
(176,643,l),
(168,616,l),
(158,592,l),
(151,571,l),
(158,562,l),
(153,549,l),
(145,532,l),
(136,512,l),
(136,500,l),
(136,473,l),
(125,458,l),
(127,449,l),
(117,429,l),
(116,411,l),
(108,403,l),
(102,387,l),
(94,373,l),
(87,341,l),
(87,327,l),
(79,315,l),
(82,307,l),
(66,290,l),
(69,271,l),
(63,249,l),
(55,236,l),
(50,217,l),
(51,203,l),
(36,186,l),
(28,162,l),
(23,144,l),
(24,132,l),
(20,120,l),
(6,101,l),
(13,89,l),
(-3,77,l),
(1,62,l),
(-7,53,l),
(-10,34,l),
(-11,7,l),
(-15,-22,l),
(-11,-38,l),
(-12,-50,l),
(0,-64,l),
(19,-69,l),
(29,-86,l),
(37,-91,l),
(53,-91,l)
);
}
);
width = 365;
},
{
hints = (
{
horizontal = 1;
place = (0,21);
target = up;
type = BottomGhost;
},
{
place = (10,405);
type = Stem;
}
);
layerId = m003;
shapes = (
{
closed = 1;
nodes = (
(98,-94,l),
(114,-84,l),
(124,-82,l),
(126,-73,l),
(142,-43,l),
(142,-29,l),
(149,-14,l),
(155,1,l),
(158,16,l),
(160,28,l),
(164,39,l),
(160,53,l),
(161,69,l),
(169,84,l),
(181,98,l),
(179,113,l),
(178,128,l),
(183,141,l),
(181,155,l),
(192,177,l),
(188,191,l),
(206,208,l),
(204,213,l),
(213,229,l),
(203,248,l),
(218,263,l),
(220,275,l),
(225,289,l),
(225,305,l),
(228,323,l),
(227,331,l),
(237,349,l),
(238,361,l),
(249,383,l),
(245,392,l),
(257,405,l),
(249,427,l),
(257,436,l),
(254,452,l),
(272,464,l),
(275,480,l),
(277,493,l),
(280,513,l),
(276,528,l),
(287,536,l),
(291,550,l),
(287,570,l),
(301,581,l),
(295,594,l),
(310,611,l),
(310,631,l),
(305,662,l),
(303,676,l),
(290,688,l),
(272,693,l),
(247,685,l),
(240,682,l),
(224,654,l),
(216,630,l),
(222,623,l),
(213,603,l),
(206,593,l),
(205,575,l),
(199,558,l),
(199,549,l),
(193,529,l),
(194,521,l),
(198,505,l),
(182,487,l),
(183,472,l),
(180,464,l),
(177,447,l),
(178,431,l),
(172,417,l),
(168,401,l),
(159,391,l),
(164,372,l),
(148,364,l),
(158,342,l),
(150,329,l),
(148,314,l),
(137,305,l),
(135,287,l),
(131,268,l),
(131,258,l),
(127,240,l),
(122,225,l),
(122,211,l),
(113,198,l),
(114,185,l),
(101,169,l),
(95,160,l),
(103,147,l),
(88,129,l),
(93,117,l),
(92,97,l),
(80,84,l),
(72,69,l),
(70,62,l),
(64,45,l),
(61,32,l),
(59,15,l),
(53,4,l),
(52,-12,l),
(53,-27,l),
(46,-63,l),
(55,-75,l)
);
}
);
width = 365;
}
);
note = slash;
unicode = 47;
userData = {
KernOnSpecialSpacing = {
L = slash;
R = slash;
};
};
}
{
glyphname = zero;
kernLeft = KO_zero;
kernRight = KO_zero;
layers = (
{
hints = (
{
horizontal = 1;
place = (-10,80);
type = Stem;
},
{
horizontal = 1;
place = (597,80);
type = Stem;
},
{
place = (35,110);
type = Stem;
},
{
place = (425,110);
type = Stem;
}
);
layerId = m005;
shapes = (
{
closed = 1;
nodes = (
(312,-5,l),
(326,-10,l),
(351,-8,l),
(363,0,l),
(380,5,l),
(380,6,l),
(404,14,l),
(406,20,l),
(423,29,l),
(432,36,l),
(451,45,l),
(462,55,l),
(465,66,l),
(472,86,l),
(488,99,l),
(488,109,l),
(502,119,l),
(499,135,l),
(512,147,l),
(507,161,l),
(520,183,l),
(523,193,l),
(528,211,l),
(518,224,l),
(523,257,l),
(521,270,l),
(524,288,l),
(524,317,l),
(517,327,l),
(522,343,l),
(512,361,l),
(516,373,l),
(513,390,l),
(508,406,l),
(506,418,l),
(502,430,l),
(495,445,l),
(500,465,l),
(491,482,l),
(490,494,l),
(480,508,l),
(468,519,l),
(465,529,l),
(453,537,l),
(449,553,l),
(438,562,l),
(418,576,l),
(405,585,l),
(396,592,l),
(393,599,l),
(367,595,l),
(347,606,l),
(328,604,l),
(308,614,l),
(277,607,l),
(250,606,l),
(230,602,l),
(218,596,l),
(204,588,l),
(190,587,l),
(177,585,l),
(160,574,l),
(143,569,l),
(141,553,l),
(130,550,l),
(112,539,l),
(109,523,l),
(90,515,l),
(81,503,l),
(87,492,l),
(69,478,l),
(73,457,l),
(65,443,l),
(57,430,l),
(50,421,l),
(52,401,l),
(57,386,l),
(45,376,l),
(51,357,l),
(48,341,l),
(50,330,l),
(40,319,l),
(38,286,l),
(43,265,l),
(51,255,l),
(52,241,l),
(52,224,l),
(57,204,l),
(47,193,l),
(51,182,l),
(57,159,l),
(59,147,l),
(70,131,l),
(78,121,l),
(73,103,l),
(87,97,l),
(101,84,l),
(102,74,l),
(118,57,l),
(130,51,l),
(133,37,l),
(147,34,l),
(153,21,l),
(167,15,l),
(176,5,l),
(190,5,l),
(218,1,l),
(232,0,l),
(240,-11,l),
(259,-11,l),
(271,-12,l),
(297,-14,l)
);
},
{
closed = 1;
nodes = (
(224,84,l),
(207,91,l),
(202,99,l),
(192,108,l),
(179,125,l),
(178,139,l),
(164,153,l),
(161,169,l),
(152,181,l),
(153,196,l),
(146,208,l),
(155,223,l),
(141,241,l),
(150,257,l),
(138,274,l),
(150,285,l),
(151,318,l),
(140,329,l),
(145,342,l),
(146,364,l),
(146,376,l),
(147,398,l),
(158,410,l),
(151,425,l),
(159,443,l),
(173,448,l),
(168,471,l),
(180,483,l),
(187,491,l),
(203,500,l),
(208,512,l),
(223,519,l),
(248,519,l),
(266,528,l),
(298,535,l),
(311,534,l),
(334,528,l),
(340,519,l),
(362,521,l),
(374,500,l),
(381,488,l),
(400,478,l),
(395,462,l),
(408,448,l),
(416,427,l),
(409,420,l),
(413,399,l),
(421,390,l),
(427,369,l),
(420,363,l),
(425,344,l),
(427,331,l),
(424,319,l),
(418,289,l),
(429,271,l),
(427,253,l),
(420,239,l),
(417,226,l),
(419,190,l),
(414,176,l),
(409,162,l),
(401,150,l),
(398,138,l),
(390,129,l),
(377,119,l),
(369,104,l),
(351,97,l),
(337,88,l),
(317,80,l),
(298,82,l),
(271,74,l),
(248,74,l)
);
}
);
width = 570;
},
{
hints = (
{
horizontal = 1;
place = (-10,80);
type = Stem;
},
{
horizontal = 1;
place = (597,80);
type = Stem;
},
{
place = (35,110);
type = Stem;
},
{
place = (425,110);
type = Stem;
}
);
layerId = m002;
shapes = (
{
closed = 1;
nodes = (
(325,-25,l),
(344,-19,l),
(361,-17,l),
(368,-15,l),
(395,-8,l),
(396,-2,l),
(413,-2,l),
(425,4,l),
(443,16,l),
(453,18,l),
(467,34,l),
(478,36,l),
(495,47,l),
(510,59,l),
(508,72,l),
(522,81,l),
(526,95,l),
(543,112,l),
(539,128,l),
(551,151,l),
(566,162,l),
(562,179,l),
(567,192,l),
(567,228,l),
(576,238,l),
(576,254,l),
(573,276,l),
(575,285,l),
(569,316,l),
(567,336,l),
(562,348,l),
(563,361,l),
(561,373,l),
(556,394,l),
(560,411,l),
(552,422,l),
(543,433,l),
(546,444,l),
(533,464,l),
(527,479,l),
(524,493,l),
(501,499,l),
(501,512,l),
(488,526,l),
(476,534,l),
(463,542,l),
(460,549,l),
(437,560,l),
(430,566,l),
(416,577,l),
(395,584,l),
(388,590,l),
(370,596,l),
(364,594,l),
(348,601,l),
(333,596,l),
(313,595,l),
(297,602,l),
(260,598,l),
(250,597,l),
(244,596,l),
(218,590,l),
(209,589,l),
(199,580,l),
(181,574,l),
(157,570,l),
(158,566,l),
(130,556,l),
(105,543,l),
(104,540,l),
(90,532,l),
(80,516,l),
(74,508,l),
(63,498,l),
(50,479,l),
(39,471,l),
(27,443,l),
(22,431,l),
(20,413,l),
(9,401,l),
(2,370,l),
(3,364,l),
(-7,334,l),
(-9,319,l),
(-9,284,l),
(-10,266,l),
(3,253,l),
(-3,235,l),
(1,225,l),
(8,207,l),
(15,178,l),
(16,168,l),
(13,152,l),
(24,128,l),
(31,115,l),
(50,93,l),
(48,88,l),
(74,58,l),
(94,42,l),
(104,30,l),
(114,24,l),
(132,12,l),
(147,8,l),
(160,-4,l),
(180,-12,l),
(195,-12,l),
(206,-22,l),
(226,-19,l),
(245,-20,l),
(257,-24,l),
(272,-23,l),
(317,-26,l)
);
},
{
closed = 1;
nodes = (
(253,170,l),
(239,174,l),
(231,176,l),
(218,182,l),
(217,193,l),
(217,199,l),
(210,203,l),
(202,207,l),
(205,215,l),
(209,225,l),
(202,235,l),
(197,241,l),
(201,252,l),
(202,256,l),
(199,267,l),
(198,275,l),
(196,285,l),
(196,296,l),
(196,307,l),
(196,314,l),
(199,327,l),
(197,344,l),
(198,356,l),
(202,364,l),
(207,373,l),
(218,382,l),
(222,392,l),
(225,400,l),
(236,400,l),
(245,401,l),
(251,401,l),
(255,409,l),
(259,415,l),
(267,416,l),
(278,418,l),
(289,418,l),
(302,417,l),
(310,417,l),
(321,418,l),
(328,407,l),
(339,398,l),
(347,389,l),
(353,383,l),
(365,376,l),
(368,368,l),
(373,357,l),
(373,344,l),
(370,334,l),
(368,327,l),
(368,311,l),
(369,302,l),
(371,292,l),
(373,279,l),
(372,271,l),
(376,262,l),
(379,254,l),
(374,243,l),
(370,235,l),
(362,224,l),
(357,217,l),
(365,209,l),
(357,201,l),
(352,195,l),
(339,184,l),
(331,181,l),
(324,178,l),
(316,173,l),
(306,166,l),
(297,167,l),
(289,168,l),
(278,165,l),
(268,162,l)
);
}
);
width = 570;
},
{
hints = (
{
horizontal = 1;
place = (-10,80);
type = Stem;
},
{
horizontal = 1;
place = (597,80);
type = Stem;
},
{
place = (35,110);
type = Stem;
},
{
place = (425,110);
type = Stem;
}
);
layerId = m003;
shapes = (
{
closed = 1;
nodes = (
(335,-1,l),
(340,2,l),
(367,4,l),
(373,5,l),
(382,14,l),
(397,19,l),
(422,22,l),
(432,33,l),
(437,43,l),
(444,53,l),
(466,69,l),
(468,78,l),
(483,91,l),
(482,104,l),
(493,121,l),
(492,135,l),
(501,144,l),
(499,162,l),
(504,173,l),
(505,190,l),
(507,205,l),
(509,220,l),
(511,236,l),
(522,249,l),
(516,267,l),
(521,284,l),
(512,318,l),
(511,326,l),
(511,342,l),
(509,361,l),
(515,380,l),
(500,395,l),
(497,405,l),
(499,427,l),
(496,442,l),
(496,449,l),
(481,471,l),
(484,484,l),
(479,496,l),
(474,509,l),
(457,524,l),
(450,539,l),
(444,544,l),
(432,560,l),
(418,562,l),
(413,573,l),
(408,581,l),
(382,593,l),
(376,593,l),
(354,604,l),
(350,604,l),
(338,610,l),
(318,610,l),
(308,607,l),
(276,604,l),
(258,600,l),
(237,605,l),
(224,602,l),
(209,590,l),
(199,585,l),
(188,581,l),
(168,574,l),
(160,571,l),
(140,564,l),
(142,555,l),
(120,537,l),
(107,533,l),
(100,522,l),
(93,503,l),
(88,492,l),
(89,479,l),
(84,459,l),
(76,445,l),
(71,439,l),
(70,424,l),
(67,405,l),
(55,390,l),
(60,376,l),
(63,356,l),
(56,342,l),
(54,330,l),
(57,316,l),
(53,287,l),
(55,268,l),
(61,250,l),
(51,242,l),
(62,218,l),
(55,209,l),
(66,189,l),
(62,176,l),
(75,166,l),
(81,148,l),
(77,136,l),
(86,116,l),
(87,103,l),
(91,87,l),
(102,76,l),
(107,68,l),
(122,53,l),
(136,43,l),
(149,32,l),
(153,31,l),
(166,19,l),
(186,14,l),
(203,6,l),
(208,0,l),
(223,3,l),
(241,-5,l),
(260,-7,l),
(263,-3,l),
(297,-8,l),
(320,-11,l)
);
},
{
closed = 1;
nodes = (
(277,66,l),
(249,65,l),
(228,62,l),
(211,69,l),
(199,79,l),
(194,92,l),
(180,102,l),
(173,111,l),
(157,127,l),
(164,136,l),
(160,157,l),
(149,184,l),
(142,196,l),
(133,213,l),
(142,226,l),
(129,256,l),
(133,271,l),
(131,286,l),
(140,313,l),
(131,332,l),
(134,347,l),
(130,356,l),
(134,377,l),
(147,388,l),
(147,408,l),
(141,423,l),
(151,436,l),
(155,459,l),
(162,473,l),
(181,489,l),
(195,515,l),
(203,516,l),
(220,529,l),
(244,534,l),
(258,546,l),
(293,548,l),
(316,542,l),
(337,540,l),
(355,534,l),
(362,523,l),
(385,501,l),
(391,497,l),
(400,478,l),
(410,466,l),
(414,438,l),
(431,422,l),
(423,403,l),
(434,388,l),
(428,378,l),
(427,360,l),
(429,342,l),
(437,331,l),
(435,319,l),
(429,285,l),
(431,269,l),
(440,254,l),
(430,234,l),
(433,224,l),
(429,205,l),
(432,186,l),
(416,179,l),
(423,157,l),
(409,143,l),
(407,131,l),
(393,123,l),
(392,109,l),
(387,94,l),
(374,91,l),
(346,73,l),
(335,71,l),
(308,67,l),
(297,61,l)
);
}
);
width = 570;
}
);
note = O;
unicode = 48;
}
{
glyphname = two;
kernLeft = KO_two;
kernRight = KO_two;
layers = (
{
hints = (
{
horizontal = 1;
place = (0,70);
type = Stem;
},
{
horizontal = 1;
place = (535,75);
type = Stem;
},
{
place = (14,118);
type = Stem;
},
{
place = (342,122);
type = Stem;
}
);
layerId = m005;
shapes = (
{
closed = 1;
nodes = (
(95,-10,l),
(111,-7,l),
(118,-11,l),
(138,-10,l),
(153,-4,l),
(176,-1,l),
(191,-4,l),
(199,-3,l),
(217,-6,l),
(236,-2,l),
(248,3,l),
(256,1,l),
(269,2,l),
(294,1,l),
(302,3,l),
(315,4,l),
(331,1,l),
(345,4,l),
(367,0,l),
(375,-3,l),
(390,-2,l),
(415,-1,l),
(442,1,l),
(463,13,l),
(466,19,l),
(475,54,l),
(464,64,l),
(464,77,l),
(458,85,l),
(442,93,l),
(404,91,l),
(395,93,l),
(374,90,l),
(366,86,l),
(344,83,l),
(337,85,l),
(323,86,l),
(311,83,l),
(293,84,l),
(278,85,l),
(254,78,l),
(245,81,l),
(236,78,l),
(210,78,l),
(201,80,l),
(178,75,l),
(165,79,l),
(161,77,l),
(141,79,l),
(122,78,l),
(118,98,l),
(126,114,l),
(122,130,l),
(129,136,l),
(140,152,l),
(142,166,l),
(152,176,l),
(170,186,l),
(179,189,l),
(191,198,l),
(214,215,l),
(251,230,l),
(266,229,l),
(274,237,l),
(281,239,l),
(296,255,l),
(313,260,l),
(325,266,l),
(342,274,l),
(352,276,l),
(360,286,l),
(382,298,l),
(389,299,l),
(399,308,l),
(414,324,l),
(432,333,l),
(442,347,l),
(445,362,l),
(455,371,l),
(452,381,l),
(458,399,l),
(456,411,l),
(463,442,l),
(454,462,l),
(463,475,l),
(449,486,l),
(453,506,l),
(446,519,l),
(437,530,l),
(427,542,l),
(417,548,l),
(405,565,l),
(397,575,l),
(385,583,l),
(363,585,l),
(344,596,l),
(338,593,l),
(320,597,l),
(304,602,l),
(285,608,l),
(273,606,l),
(258,605,l),
(250,606,l),
(222,614,l),
(205,610,l),
(189,604,l),
(169,602,l),
(150,604,l),
(137,605,l),
(129,596,l),
(112,597,l),
(90,587,l),
(75,584,l),
(60,583,l),
(45,570,l),
(28,561,l),
(16,548,l),
(10,534,l),
(23,509,l),
(33,496,l),
(47,486,l),
(56,485,l),
(73,489,l),
(96,501,l),
(108,502,l),
(118,513,l),
(138,520,l),
(156,524,l),
(172,530,l),
(186,527,l),
(199,530,l),
(219,530,l),
(242,532,l),
(260,530,l),
(270,528,l),
(291,528,l),
(304,525,l),
(319,512,l),
(334,507,l),
(350,503,l),
(354,491,l),
(359,476,l),
(376,459,l),
(371,446,l),
(366,417,l),
(371,405,l),
(362,384,l),
(353,374,l),
(350,367,l),
(337,356,l),
(318,349,l),
(311,340,l),
(296,332,l),
(290,328,l),
(274,322,l),
(261,308,l),
(242,305,l),
(230,299,l),
(220,291,l),
(201,284,l),
(181,273,l),
(165,265,l),
(145,258,l),
(133,247,l),
(123,241,l),
(103,230,l),
(94,228,l),
(84,209,l),
(72,206,l),
(70,188,l),
(56,184,l),
(43,167,l),
(41,158,l),
(37,137,l),
(23,124,l),
(26,108,l),
(14,98,l),
(21,78,l),
(10,64,l),
(18,34,l),
(14,25,l),
(31,13,l),
(39,0,l),
(48,-7,l),
(79,-14,l)
);
}
);
width = 509;
},
{
hints = (
{
horizontal = 1;
place = (0,70);
type = Stem;
},
{
horizontal = 1;
place = (535,75);
type = Stem;
},
{
place = (14,118);
type = Stem;
},
{
place = (342,122);
type = Stem;
}
);
layerId = m002;
shapes = (
{
closed = 1;
nodes = (
(126,-10,l),
(152,-13,l),
(161,-4,l),
(183,-8,l),
(189,-9,l),
(209,-6,l),
(218,-6,l),
(242,-3,l),
(253,-2,l),
(262,-5,l),
(284,2,l),
(298,-1,l),
(313,-4,l),
(318,-4,l),
(336,-6,l),
(354,-5,l),
(375,4,l),
(386,1,l),
(395,2,l),
(412,-1,l),
(448,4,l),
(491,0,l),
(501,8,l),
(513,4,l),
(537,18,l),
(548,19,l),
(557,34,l),
(556,45,l),
(571,58,l),
(575,72,l),
(570,97,l),
(572,118,l),
(561,130,l),
(550,148,l),
(556,155,l),
(532,173,l),
(523,180,l),
(507,190,l),
(499,192,l),
(481,197,l),
(448,189,l),
(438,196,l),
(431,190,l),
(414,190,l),
(398,187,l),
(373,188,l),
(363,182,l),
(352,185,l),
(331,183,l),
(323,181,l),
(301,184,l),
(278,179,l),
(262,189,l),
(260,201,l),
(273,209,l),
(287,218,l),
(316,234,l),
(335,233,l),
(348,240,l),
(367,245,l),
(369,242,l),
(390,249,l),
(400,260,l),
(412,260,l),
(428,263,l),
(442,273,l),
(456,275,l),
(489,288,l),
(495,295,l),
(517,309,l),
(523,322,l),
(526,329,l),
(544,342,l),
(555,352,l),
(558,367,l),
(555,386,l),
(565,398,l),
(564,429,l),
(560,445,l),
(552,460,l),
(551,470,l),
(552,484,l),
(539,505,l),
(529,513,l),
(527,524,l),
(510,534,l),
(509,552,l),
(491,563,l),
(488,565,l),
(476,573,l),
(463,588,l),
(438,594,l),
(423,593,l),
(419,606,l),
(402,611,l),
(389,612,l),
(374,617,l),
(362,614,l),
(343,619,l),
(323,620,l),
(307,623,l),
(303,624,l),
(263,623,l),
(252,619,l),
(243,626,l),
(221,617,l),
(197,615,l),
(181,615,l),
(162,611,l),
(145,609,l),
(142,603,l),
(123,602,l),
(109,592,l),
(94,592,l),
(69,573,l),
(57,564,l),
(44,562,l),
(35,543,l),
(18,529,l),
(18,518,l),
(12,509,l),
(14,489,l),
(24,460,l),
(34,447,l),
(39,435,l),
(52,419,l),
(77,404,l),
(81,402,l),
(119,398,l),
(129,405,l),
(146,406,l),
(175,421,l),
(182,426,l),
(195,431,l),
(216,435,l),
(224,447,l),
(233,442,l),
(259,451,l),
(273,452,l),
(294,447,l),
(316,445,l),
(325,448,l),
(336,442,l),
(351,440,l),
(364,426,l),
(371,397,l),
(360,390,l),
(337,383,l),
(321,379,l),
(316,368,l),
(301,366,l),
(278,353,l),
(250,349,l),
(245,343,l),
(231,332,l),
(201,317,l),
(192,311,l),
(177,311,l),
(162,296,l),
(150,298,l),
(136,289,l),
(118,277,l),
(109,275,l),
(93,264,l),
(88,253,l),
(77,247,l),
(64,235,l),
(48,229,l),
(46,210,l),
(43,201,l),
(25,185,l),
(19,161,l),
(11,148,l),
(17,130,l),
(17,112,l),
(23,89,l),
(23,65,l),
(16,50,l),
(27,40,l),
(30,23,l),
(43,18,l),
(60,1,l),
(71,1,l),
(91,-7,l),
(104,-15,l)
);
}
);
width = 560;
},
{
hints = (
{
horizontal = 1;
place = (0,70);
type = Stem;
},
{
horizontal = 1;
place = (535,75);
type = Stem;
},
{
place = (14,118);
type = Stem;
},
{
place = (342,122);
type = Stem;
}
);
layerId = m003;
shapes = (
{
closed = 1;
nodes = (
(76,-4,l),
(84,-5,l),
(98,-7,l),
(121,-5,l),
(136,-7,l),
(148,-2,l),
(163,-7,l),
(174,0,l),
(213,0,l),
(225,-5,l),
(239,-2,l),
(251,-1,l),
(266,-4,l),
(281,0,l),
(299,-4,l),
(314,1,l),
(328,-2,l),
(344,0,l),
(364,3,l),
(371,-2,l),
(393,-3,l),
(425,6,l),
(434,14,l),
(435,38,l),
(443,50,l),
(433,67,l),
(412,69,l),
(391,71,l),
(380,75,l),
(356,68,l),
(348,67,l),
(327,72,l),
(318,62,l),
(301,62,l),
(288,64,l),
(264,64,l),
(261,65,l),
(235,63,l),
(233,58,l),
(211,62,l),
(200,60,l),
(182,53,l),
(159,51,l),
(144,57,l),
(139,52,l),
(119,51,l),
(102,51,l),
(81,61,l),
(79,71,l),
(79,90,l),
(87,106,l),
(93,118,l),
(94,127,l),
(102,148,l),
(118,156,l),
(122,167,l),
(130,182,l),
(139,187,l),
(164,196,l),
(169,203,l),
(185,212,l),
(200,221,l),
(227,238,l),
(231,245,l),
(245,247,l),
(260,254,l),
(282,263,l),
(293,271,l),
(302,269,l),
(311,281,l),
(337,283,l),
(349,293,l),
(353,306,l),
(365,317,l),
(380,327,l),
(388,337,l),
(410,346,l),
(407,362,l),
(413,374,l),
(430,384,l),
(432,397,l),
(430,417,l),
(438,448,l),
(438,458,l),
(424,477,l),
(425,484,l),
(425,500,l),
(421,520,l),
(416,533,l),
(394,537,l),
(385,551,l),
(383,563,l),
(373,570,l),
(353,582,l),
(337,585,l),
(330,595,l),
(310,596,l),
(304,597,l),
(288,604,l),
(278,606,l),
(255,608,l),
(241,610,l),
(226,606,l),
(196,614,l),
(185,604,l),
(171,607,l),
(147,604,l),
(133,605,l),
(122,601,l),
(110,594,l),
(86,589,l),
(75,593,l),
(65,587,l),
(52,584,l),
(23,569,l),
(12,561,l),
(7,545,l),
(14,513,l),
(29,505,l),
(42,507,l),
(62,513,l),
(78,518,l),
(79,520,l),
(98,529,l),
(106,538,l),
(123,540,l),
(134,543,l),
(149,544,l),
(163,547,l),
(182,555,l),
(199,550,l),
(227,557,l),
(239,553,l),
(254,553,l),
(270,551,l),
(289,538,l),
(304,540,l),
(303,527,l),
(328,522,l),
(333,514,l),
(338,503,l),
(350,485,l),
(362,475,l),
(367,461,l),
(362,440,l),
(362,417,l),
(364,400,l),
(346,384,l),
(346,376,l),
(328,358,l),
(323,350,l),
(317,344,l),
(299,328,l),
(279,324,l),
(270,314,l),
(256,307,l),
(242,302,l),
(234,298,l),
(213,295,l),
(198,288,l),
(187,280,l),
(156,263,l),
(151,255,l),
(126,251,l),
(123,243,l),
(106,236,l),
(94,222,l),
(79,214,l),
(75,208,l),
(61,189,l),
(57,176,l),
(44,165,l),
(44,157,l),
(28,142,l),
(30,131,l),
(19,113,l),
(21,96,l),
(14,88,l),
(2,67,l),
(8,52,l),
(4,26,l),
(9,9,l),
(19,4,l),
(28,-8,l),
(59,-13,l)
);
}
);
width = 488;
}
);
metricLeft = "=H/2";
metricRight = "=O";
note = two;
unicode = 50;
}
{
glyphname = three;
kernLeft = KO_three;
kernRight = KO_three;
layers = (
{
hints = (
{
horizontal = 1;
place = (-78,70);
type = Stem;
},
{
horizontal = 1;
place = (282,64);
type = Stem;
},
{
horizontal = 1;
place = (531,69);
type = Stem;
},
{
place = (340,116);
type = Stem;
}
);
layerId = m005;
shapes = (
{
closed = 1;
nodes = (
(236,-79,l),
(251,-78,l),
(263,-78,l),
(277,-69,l),
(299,-71,l),
(305,-62,l),
(315,-60,l),
(333,-55,l),
(354,-45,l),
(356,-38,l),
(376,-25,l),
(392,-17,l),
(398,-8,l),
(416,11,l),
(424,33,l),
(427,44,l),
(433,57,l),
(450,70,l),
(443,82,l),
(449,99,l),
(448,112,l),
(458,133,l),
(455,157,l),
(459,173,l),
(448,189,l),
(448,207,l),
(436,224,l),
(440,239,l),
(437,250,l),
(425,263,l),
(411,272,l),
(406,291,l),
(387,295,l),
(388,307,l),
(373,312,l),
(358,324,l),
(339,333,l),
(325,328,l),
(305,332,l),
(296,342,l),
(279,338,l),
(266,342,l),
(245,339,l),
(224,347,l),
(246,362,l),
(248,372,l),
(256,386,l),
(272,389,l),
(286,409,l),
(290,419,l),
(306,426,l),
(319,437,l),
(322,452,l),
(338,460,l),
(337,464,l),
(357,481,l),
(359,494,l),
(378,500,l),
(391,514,l),
(391,521,l),
(420,549,l),
(424,556,l),
(424,570,l),
(405,581,l),
(396,598,l),
(387,595,l),
(353,599,l),
(340,597,l),
(322,602,l),
(312,602,l),
(294,601,l),
(285,604,l),
(265,601,l),
(253,602,l),
(235,602,l),
(213,601,l),
(203,604,l),
(194,600,l),
(178,597,l),
(150,599,l),
(142,602,l),
(122,603,l),
(116,602,l),
(101,604,l),
(89,598,l),
(54,595,l),
(36,592,l),
(28,586,l),
(27,577,l),
(17,544,l),
(24,532,l),
(37,517,l),
(50,507,l),
(83,507,l),
(94,515,l),
(109,517,l),
(123,513,l),
(136,520,l),
(158,521,l),
(165,519,l),
(182,521,l),
(201,517,l),
(208,517,l),
(237,524,l),
(242,518,l),
(253,519,l),
(277,518,l),
(275,491,l),
(256,489,l),
(252,472,l),
(233,462,l),
(235,446,l),
(212,435,l),
(208,424,l),
(198,411,l),
(192,404,l),
(174,396,l),
(173,383,l),
(163,367,l),
(150,355,l),
(144,345,l),
(120,328,l),
(110,313,l),
(112,297,l),
(108,264,l),
(121,261,l),
(134,259,l),
(160,265,l),
(176,265,l),
(183,260,l),
(214,268,l),
(239,270,l),
(244,274,l),
(271,268,l),
(283,263,l),
(291,263,l),
(307,256,l),
(311,240,l),
(327,237,l),
(342,218,l),
(346,208,l),
(350,196,l),
(357,179,l),
(359,158,l),
(356,128,l),
(358,116,l),
(343,100,l),
(342,83,l),
(345,74,l),
(334,62,l),
(321,54,l),
(306,43,l),
(306,33,l),
(287,24,l),
(275,23,l),
(257,18,l),
(252,18,l),
(237,10,l),
(200,16,l),
(185,11,l),
(170,11,l),
(155,21,l),
(147,24,l),
(119,27,l),
(119,32,l),
(99,32,l),
(75,49,l),
(53,46,l),
(35,35,l),
(33,24,l),
(24,7,l),
(18,-24,l),
(32,-38,l),
(45,-46,l),
(70,-54,l),
(75,-67,l),
(95,-64,l),
(109,-69,l),
(129,-76,l),
(140,-69,l),
(156,-74,l),
(169,-80,l),
(181,-75,l),
(208,-77,l)
);
}
);
width = 476;
},
{
hints = (
{
horizontal = 1;
place = (-78,70);
type = Stem;
},
{
horizontal = 1;
place = (282,64);
type = Stem;
},
{
horizontal = 1;
place = (531,69);
type = Stem;
},
{
place = (340,116);
type = Stem;
}
);
layerId = m002;
shapes = (
{
closed = 1;
nodes = (
(261,-95,l),
(269,-91,l),
(284,-93,l),
(301,-91,l),
(316,-86,l),
(330,-84,l),
(343,-81,l),
(363,-71,l),
(381,-63,l),
(393,-60,l),
(407,-54,l),
(420,-47,l),
(422,-41,l),
(440,-35,l),
(451,-25,l),
(458,-16,l),
(472,0,l),
(481,15,l),
(497,17,l),
(493,37,l),
(511,47,l),
(507,57,l),
(513,72,l),
(529,90,l),
(525,98,l),
(523,118,l),
(537,128,l),
(531,160,l),
(530,171,l),
(532,194,l),
(525,201,l),
(529,224,l),
(513,235,l),
(510,250,l),
(511,258,l),
(507,275,l),
(493,289,l),
(490,299,l),
(470,315,l),
(472,324,l),
(452,329,l),
(445,345,l),
(428,353,l),
(420,364,l),
(411,362,l),
(389,376,l),
(374,385,l),
(374,389,l),
(387,405,l),
(398,418,l),
(403,421,l),
(420,433,l),
(434,447,l),
(434,458,l),
(451,467,l),
(467,476,l),
(466,487,l),
(477,502,l),
(479,514,l),
(484,530,l),
(481,542,l),
(484,560,l),
(471,578,l),
(473,585,l),
(462,597,l),
(435,600,l),
(431,607,l),
(413,617,l),
(387,616,l),
(362,616,l),
(345,613,l),
(342,619,l),
(323,617,l),
(313,610,l),
(284,617,l),
(270,612,l),
(259,618,l),
(247,613,l),
(225,612,l),
(212,617,l),
(194,614,l),
(183,617,l),
(175,614,l),
(160,616,l),
(133,617,l),
(126,616,l),
(103,617,l),
(85,609,l),
(60,613,l),
(49,608,l),
(25,593,l),
(9,585,l),
(5,566,l),
(8,551,l),
(-8,542,l),
(-5,508,l),
(1,496,l),
(9,480,l),
(17,471,l),
(18,459,l),
(29,443,l),
(45,438,l),
(55,427,l),
(75,425,l),
(84,428,l),
(108,424,l),
(127,431,l),
(143,433,l),
(175,432,l),
(171,412,l),
(152,394,l),
(147,381,l),
(135,375,l),
(105,359,l),
(104,347,l),
(95,340,l),
(85,324,l),
(79,312,l),
(88,297,l),
(82,262,l),
(82,250,l),
(101,238,l),
(101,224,l),
(124,220,l),
(135,214,l),
(147,217,l),
(162,207,l),
(179,211,l),
(193,215,l),
(203,211,l),
(230,214,l),
(253,214,l),
(265,221,l),
(286,212,l),
(301,207,l),
(316,196,l),
(320,192,l),
(332,170,l),
(328,156,l),
(325,129,l),
(332,123,l),
(317,113,l),
(295,106,l),
(281,105,l),
(267,102,l),
(264,94,l),
(248,96,l),
(226,98,l),
(212,99,l),
(198,100,l),
(192,105,l),
(177,101,l),
(152,108,l),
(143,117,l),
(117,122,l),
(105,126,l),
(90,129,l),
(70,131,l),
(57,124,l),
(52,113,l),
(28,107,l),
(26,102,l),
(13,85,l),
(14,78,l),
(1,61,l),
(-3,46,l),
(-2,19,l),
(4,2,l),
(10,-14,l),
(18,-25,l),
(23,-42,l),
(44,-52,l),
(45,-59,l),
(72,-70,l),
(89,-78,l),
(113,-76,l),
(126,-80,l),
(144,-89,l),
(152,-82,l),
(167,-92,l),
(179,-89,l),
(194,-93,l),
(208,-92,l),
(229,-96,l)
);
}
);
width = 530;
},
{
hints = (
{
horizontal = 1;
place = (-78,70);
type = Stem;
},
{
horizontal = 1;
place = (282,64);
type = Stem;
},
{
horizontal = 1;
place = (531,69);
type = Stem;
},
{
place = (340,116);
type = Stem;
}
);
layerId = m003;
shapes = (
{
closed = 1;
nodes = (
(231,-74,l),
(238,-72,l),
(257,-79,l),
(278,-72,l),
(292,-64,l),
(304,-60,l),
(321,-62,l),
(331,-54,l),
(350,-49,l),
(356,-36,l),
(375,-27,l),
(376,-19,l),
(390,-13,l),
(397,3,l),
(410,16,l),
(414,46,l),
(419,58,l),
(436,70,l),
(438,85,l),
(442,98,l),
(434,120,l),
(438,134,l),
(436,157,l),
(445,177,l),
(436,190,l),
(431,206,l),
(432,223,l),
(431,236,l),
(418,243,l),
(416,259,l),
(407,268,l),
(387,282,l),
(387,288,l),
(371,306,l),
(359,306,l),
(343,320,l),
(330,326,l),
(304,333,l),
(279,335,l),
(269,327,l),
(262,332,l),
(244,335,l),
(227,329,l),
(209,331,l),
(189,324,l),
(200,340,l),
(218,356,l),
(215,367,l),
(229,379,l),
(239,383,l),
(250,395,l),
(263,403,l),
(273,418,l),
(288,433,l),
(290,443,l),
(301,451,l),
(316,461,l),
(329,477,l),
(337,483,l),
(346,492,l),
(351,504,l),
(366,522,l),
(377,525,l),
(384,537,l),
(399,568,l),
(408,577,l),
(396,596,l),
(388,599,l),
(346,602,l),
(334,604,l),
(317,601,l),
(306,604,l),
(294,601,l),
(278,596,l),
(253,604,l),
(244,595,l),
(233,603,l),
(221,599,l),
(201,603,l),
(183,596,l),
(163,597,l),
(157,604,l),
(132,596,l),
(128,599,l),
(89,597,l),
(78,601,l),
(56,597,l),
(38,593,l),
(22,586,l),
(24,560,l),
(41,546,l),
(49,528,l),
(77,528,l),
(87,530,l),
(107,536,l),
(126,532,l),
(130,536,l),
(155,538,l),
(161,534,l),
(175,537,l),
(201,536,l),
(211,543,l),
(230,540,l),
(245,540,l),
(258,537,l),
(262,538,l),
(282,541,l),
(304,536,l),
(293,516,l),
(288,506,l),
(280,492,l),
(261,488,l),
(258,476,l),
(240,463,l),
(237,449,l),
(223,438,l),
(217,425,l),
(214,418,l),
(199,411,l),
(187,393,l),
(173,385,l),
(164,372,l),
(164,366,l),
(149,349,l),
(148,341,l),
(117,311,l),
(118,297,l),
(117,271,l),
(127,269,l),
(148,265,l),
(163,268,l),
(188,277,l),
(212,283,l),
(223,275,l),
(245,277,l),
(264,276,l),
(272,279,l),
(283,271,l),
(295,267,l),
(318,255,l),
(329,249,l),
(331,235,l),
(349,217,l),
(343,206,l),
(348,189,l),
(354,178,l),
(366,158,l),
(362,132,l),
(351,117,l),
(362,96,l),
(356,80,l),
(344,68,l),
(335,55,l),
(336,40,l),
(329,27,l),
(312,26,l),
(304,13,l),
(295,5,l),
(268,2,l),
(264,-3,l),
(248,-6,l),
(230,-5,l),
(196,-3,l),
(183,-4,l),
(167,-6,l),
(158,-7,l),
(128,1,l),
(127,6,l),
(98,9,l),
(92,12,l),
(59,27,l),
(44,24,l),
(37,9,l),
(23,-3,l),
(31,-36,l),
(41,-51,l),
(73,-62,l),
(89,-69,l),
(103,-65,l),
(122,-76,l),
(138,-78,l),
(149,-74,l),
(176,-72,l),
(198,-74,l)
);
}
);
width = 468;
}
);
metricLeft = "=T";
metricRight = "=S";
note = three;
unicode = 51;
}
{
glyphname = four;
kernLeft = KO_four;
kernRight = KO_four;
layers = (
{
hints = (
{
horizontal = 1;
place = (110,70);
type = Stem;
},
{
place = (315,102);
type = Stem;
}
);
layerId = m005;
shapes = (
{
closed = 1;
nodes = (
(367,-79,l),
(391,-68,l),
(406,-61,l),
(404,-47,l),
(410,-35,l),
(402,-1,l),
(411,9,l),
(395,26,l),
(404,36,l),
(402,57,l),
(395,67,l),
(408,92,l),
(432,92,l),
(446,96,l),
(472,99,l),
(490,104,l),
(490,117,l),
(495,146,l),
(497,160,l),
(487,176,l),
(463,179,l),
(439,182,l),
(429,187,l),
(407,189,l),
(395,214,l),
(404,221,l),
(399,239,l),
(406,250,l),
(398,268,l),
(408,279,l),
(406,296,l),
(397,311,l),
(398,333,l),
(398,346,l),
(403,359,l),
(410,376,l),
(411,387,l),
(404,402,l),
(406,412,l),
(408,435,l),
(410,451,l),
(406,459,l),
(414,479,l),
(415,489,l),
(405,505,l),
(406,522,l),
(416,534,l),
(406,567,l),
(411,581,l),
(391,591,l),
(382,597,l),
(356,597,l),
(339,598,l),
(320,582,l),
(293,565,l),
(288,558,l),
(270,542,l),
(246,525,l),
(238,514,l),
(231,507,l),
(222,488,l),
(207,471,l),
(196,461,l),
(180,452,l),
(163,432,l),
(166,430,l),
(146,413,l),
(136,404,l),
(125,389,l),
(125,375,l),
(114,367,l),
(106,357,l),
(96,341,l),
(90,329,l),
(72,320,l),
(74,306,l),
(63,291,l),
(46,282,l),
(50,270,l),
(33,247,l),
(22,231,l),
(12,216,l),
(-1,188,l),
(2,178,l),
(-4,157,l),
(2,129,l),
(7,115,l),
(6,99,l),
(17,87,l),
(36,84,l),
(53,82,l),
(79,92,l),
(102,89,l),
(130,91,l),
(144,89,l),
(171,93,l),
(187,95,l),
(200,97,l),
(214,90,l),
(229,91,l),
(252,93,l),
(268,97,l),
(274,94,l),
(300,90,l),
(299,71,l),
(301,56,l),
(293,38,l),
(297,27,l),
(301,11,l),
(306,-7,l),
(300,-31,l),
(305,-52,l),
(315,-59,l),
(335,-68,l),
(343,-76,l)
);
},
{
closed = 1;
nodes = (
(114,177,l),
(122,199,l),
(117,214,l),
(130,224,l),
(140,238,l),
(152,268,l),
(166,273,l),
(173,292,l),
(184,302,l),
(189,314,l),
(204,329,l),
(223,350,l),
(224,360,l),
(242,373,l),
(249,390,l),
(260,392,l),
(272,409,l),
(288,432,l),
(299,442,l),
(308,426,l),
(302,387,l),
(307,376,l),
(301,357,l),
(312,342,l),
(306,335,l),
(302,301,l),
(296,289,l),
(301,273,l),
(299,254,l),
(306,225,l),
(303,189,l),
(272,180,l),
(260,185,l),
(244,183,l),
(228,186,l),
(216,182,l),
(184,181,l),
(160,182,l),
(150,178,l),
(128,173,l)
);
}
);
width = 520;
},
{
hints = (
{
horizontal = 1;
place = (110,70);
type = Stem;
},
{
place = (315,102);
type = Stem;
}
);
layerId = m002;
shapes = (
{
closed = 1;
nodes = (
(434,-88,l),
(461,-81,l),
(475,-65,l),
(490,-53,l),
(507,-45,l),
(512,-31,l),
(517,-15,l),
(520,-2,l),
(516,19,l),
(511,40,l),
(509,55,l),
(511,72,l),
(518,75,l),
(526,80,l),
(547,87,l),
(563,94,l),
(572,99,l),
(589,122,l),
(592,140,l),
(593,157,l),
(604,187,l),
(596,203,l),
(582,235,l),
(570,252,l),
(555,252,l),
(547,260,l),
(518,268,l),
(512,273,l),
(498,295,l),
(507,309,l),
(510,323,l),
(511,338,l),
(512,353,l),
(502,368,l),
(505,382,l),
(515,396,l),
(511,414,l),
(506,424,l),
(516,440,l),
(508,452,l),
(515,473,l),
(513,484,l),
(519,498,l),
(510,526,l),
(517,544,l),
(510,562,l),
(495,577,l),
(489,581,l),
(481,594,l),
(471,609,l),
(453,606,l),
(434,610,l),
(405,611,l),
(388,613,l),
(385,603,l),
(365,599,l),
(345,586,l),
(319,571,l),
(307,559,l),
(285,538,l),
(269,528,l),
(260,521,l),
(249,507,l),
(233,501,l),
(216,485,l),
(205,469,l),
(191,454,l),
(171,438,l),
(163,424,l),
(152,417,l),
(138,405,l),
(131,393,l),
(116,383,l),
(102,358,l),
(89,350,l),
(87,338,l),
(67,322,l),
(59,311,l),
(54,288,l),
(32,278,l),
(19,253,l),
(15,240,l),
(1,223,l),
(-4,191,l),
(-6,163,l),
(6,144,l),
(4,128,l),
(8,123,l),
(25,108,l),
(37,97,l),
(40,87,l),
(65,76,l),
(110,73,l),
(131,72,l),
(153,70,l),
(163,77,l),
(173,80,l),
(204,75,l),
(230,77,l),
(253,82,l),
(260,78,l),
(279,81,l),
(300,77,l),
(305,55,l),
(306,42,l),
(298,29,l),
(310,6,l),
(312,-19,l),
(307,-27,l),
(319,-47,l),
(324,-55,l),
(341,-69,l),
(372,-79,l),
(379,-91,l),
(401,-88,l)
);
},
{
closed = 1;
nodes = (
(267,265,l),
(263,266,l),
(260,267,l),
(257,268,l),
(257,273,l),
(257,275,l),
(257,280,l),
(257,284,l),
(260,289,l),
(262,294,l),
(266,294,l),
(268,294,l),
(267,301,l),
(266,304,l),
(273,305,l),
(276,305,l),
(279,305,l),
(284,306,l),
(287,308,l),
(291,311,l),
(296,307,l),
(301,308,l),
(302,305,l),
(305,300,l),
(307,298,l),
(310,295,l),
(312,293,l),
(312,289,l),
(312,286,l),
(312,281,l),
(312,277,l),
(312,272,l),
(312,266,l),
(307,266,l),
(299,265,l),
(294,262,l),
(287,263,l),
(281,264,l),
(277,264,l),
(273,264,l)
);
}
);
width = 614;
},
{
hints = (
{
horizontal = 1;
place = (110,70);
type = Stem;
},
{
place = (315,102);
type = Stem;
}
);
layerId = m003;
shapes = (
{
closed = 1;
nodes = (
(376,-70,l),
(399,-71,l),
(411,-56,l),
(405,-43,l),
(401,-20,l),
(408,-3,l),
(397,14,l),
(406,27,l),
(395,47,l),
(398,75,l),
(405,88,l),
(423,96,l),
(438,97,l),
(456,92,l),
(478,97,l),
(496,108,l),
(500,142,l),
(486,147,l),
(472,161,l),
(457,164,l),
(444,165,l),
(429,166,l),
(414,160,l),
(405,162,l),
(402,182,l),
(401,199,l),
(406,214,l),
(401,230,l),
(403,245,l),
(396,275,l),
(398,295,l),
(407,320,l),
(405,337,l),
(400,356,l),
(405,364,l),
(399,378,l),
(399,393,l),
(409,410,l),
(400,429,l),
(407,437,l),
(404,454,l),
(401,469,l),
(413,482,l),
(409,502,l),
(405,519,l),
(415,530,l),
(409,545,l),
(405,564,l),
(404,572,l),
(405,585,l),
(390,601,l),
(370,603,l),
(353,596,l),
(335,588,l),
(312,570,l),
(307,555,l),
(292,547,l),
(277,539,l),
(266,524,l),
(256,514,l),
(245,504,l),
(234,494,l),
(236,487,l),
(226,468,l),
(203,454,l),
(186,439,l),
(183,424,l),
(172,414,l),
(154,395,l),
(136,382,l),
(141,362,l),
(123,353,l),
(122,341,l),
(101,322,l),
(86,309,l),
(89,295,l),
(71,281,l),
(70,267,l),
(61,256,l),
(54,236,l),
(44,229,l),
(37,218,l),
(27,200,l),
(21,180,l),
(17,159,l),
(11,143,l),
(10,117,l),
(18,105,l),
(19,95,l),
(42,86,l),
(66,84,l),
(84,91,l),
(104,85,l),
(121,94,l),
(154,87,l),
(168,91,l),
(196,97,l),
(211,94,l),
(231,99,l),
(234,90,l),
(262,91,l),
(283,93,l),
(299,95,l),
(323,88,l),
(322,69,l),
(318,56,l),
(314,41,l),
(325,26,l),
(314,0,l),
(315,-10,l),
(317,-26,l),
(319,-45,l),
(333,-53,l),
(339,-62,l),
(356,-72,l)
);
},
{
closed = 1;
nodes = (
(97,158,l),
(108,188,l),
(121,199,l),
(120,216,l),
(137,224,l),
(150,256,l),
(174,293,l),
(180,310,l),
(194,319,l),
(199,338,l),
(210,350,l),
(227,376,l),
(243,390,l),
(249,406,l),
(267,427,l),
(292,450,l),
(307,461,l),
(323,484,l),
(323,465,l),
(334,444,l),
(329,422,l),
(322,401,l),
(325,368,l),
(318,354,l),
(330,337,l),
(316,307,l),
(329,296,l),
(320,261,l),
(327,236,l),
(326,215,l),
(318,198,l),
(315,168,l),
(299,168,l),
(257,164,l),
(243,161,l),
(212,165,l),
(182,157,l),
(152,160,l),
(144,159,l),
(126,151,l)
);
}
);
width = 529;
}
);
metricLeft = "=A";
metricRight = "=F";
note = four;
unicode = 52;
}
{
glyphname = five;
kernLeft = KO_five;
kernRight = KO_five;
layers = (
{
hints = (
{
horizontal = 1;
place = (-78,70);
type = Stem;
},
{
horizontal = 1;
place = (297,72);
type = Stem;
},
{
horizontal = 1;
place = (530,70);
type = Stem;
},
{
place = (29,97);
type = Stem;
},
{
place = (340,116);
type = Stem;
}
);
layerId = m005;
shapes = (
{
closed = 1;
nodes = (
(275,-75,l),
(294,-72,l),
(319,-76,l),
(327,-69,l),
(345,-69,l),
(361,-61,l),
(376,-58,l),
(383,-55,l),
(404,-42,l),
(411,-42,l),
(429,-29,l),
(437,-18,l),
(451,-10,l),
(458,6,l),
(472,12,l),
(469,28,l),
(483,40,l),
(480,55,l),
(488,68,l),
(500,85,l),
(495,104,l),
(506,116,l),
(499,133,l),
(500,165,l),
(502,173,l),
(503,191,l),
(500,202,l),
(490,216,l),
(494,236,l),
(486,249,l),
(476,266,l),
(464,271,l),
(452,290,l),
(447,296,l),
(435,306,l),
(428,325,l),
(417,328,l),
(396,340,l),
(389,350,l),
(376,358,l),
(365,362,l),
(351,367,l),
(340,372,l),
(317,369,l),
(295,375,l),
(284,373,l),
(276,369,l),
(242,376,l),
(233,369,l),
(214,372,l),
(193,363,l),
(180,370,l),
(173,392,l),
(177,408,l),
(182,418,l),
(179,438,l),
(172,451,l),
(175,473,l),
(170,487,l),
(178,510,l),
(200,509,l),
(211,512,l),
(234,507,l),
(238,510,l),
(254,507,l),
(277,509,l),
(290,510,l),
(300,515,l),
(321,511,l),
(335,511,l),
(352,508,l),
(357,510,l),
(374,513,l),
(401,511,l),
(426,513,l),
(434,513,l),
(444,527,l),
(466,529,l),
(460,548,l),
(473,579,l),
(459,584,l),
(456,597,l),
(442,607,l),
(423,615,l),
(416,618,l),
(380,613,l),
(375,619,l),
(358,616,l),
(342,607,l),
(327,605,l),
(312,603,l),
(288,605,l),
(278,605,l),
(267,602,l),
(248,599,l),
(231,597,l),
(214,601,l),
(209,601,l),
(189,597,l),
(181,599,l),
(162,602,l),
(138,604,l),
(136,596,l),
(115,600,l),
(107,600,l),
(67,598,l),
(47,594,l),
(46,592,l),
(36,575,l),
(34,545,l),
(34,537,l),
(36,523,l),
(54,515,l),
(79,505,l),
(81,483,l),
(70,467,l),
(81,450,l),
(81,434,l),
(74,420,l),
(80,404,l),
(76,392,l),
(75,377,l),
(78,364,l),
(76,342,l),
(75,329,l),
(84,304,l),
(88,291,l),
(105,283,l),
(124,284,l),
(142,283,l),
(160,291,l),
(172,292,l),
(198,296,l),
(206,296,l),
(229,296,l),
(239,290,l),
(266,298,l),
(281,291,l),
(294,289,l),
(311,289,l),
(330,283,l),
(341,270,l),
(349,263,l),
(368,253,l),
(371,241,l),
(381,236,l),
(388,218,l),
(388,203,l),
(404,194,l),
(397,177,l),
(400,159,l),
(398,133,l),
(397,117,l),
(401,105,l),
(387,89,l),
(383,78,l),
(383,61,l),
(367,46,l),
(363,37,l),
(348,29,l),
(345,23,l),
(328,22,l),
(304,21,l),
(290,11,l),
(276,12,l),
(258,13,l),
(233,16,l),
(220,13,l),
(205,17,l),
(187,19,l),
(169,18,l),
(161,28,l),
(151,32,l),
(114,42,l),
(107,42,l),
(92,32,l),
(82,20,l),
(68,12,l),
(67,-16,l),
(79,-38,l),
(95,-44,l),
(121,-56,l),
(125,-66,l),
(144,-70,l),
(159,-67,l),
(190,-68,l),
(205,-76,l),
(214,-73,l),
(230,-80,l),
(246,-82,l)
);
}
);
width = 523;
},
{
hints = (
{
horizontal = 1;
place = (-78,70);
type = Stem;
},
{
horizontal = 1;
place = (297,72);
type = Stem;
},
{
horizontal = 1;
place = (530,70);
type = Stem;
},
{
place = (29,97);
type = Stem;
},
{
place = (340,116);
type = Stem;
}
);
layerId = m002;
shapes = (
{
closed = 1;
nodes = (
(293,-99,l),
(310,-97,l),
(339,-99,l),
(359,-94,l),
(364,-91,l),
(382,-84,l),
(396,-85,l),
(422,-70,l),
(436,-68,l),
(455,-52,l),
(454,-44,l),
(475,-34,l),
(486,-31,l),
(488,-19,l),
(508,-8,l),
(510,2,l),
(519,12,l),
(533,24,l),
(535,39,l),
(547,50,l),
(540,70,l),
(557,87,l),
(560,93,l),
(561,114,l),
(565,129,l),
(571,154,l),
(558,188,l),
(568,199,l),
(565,212,l),
(565,234,l),
(549,242,l),
(543,258,l),
(545,273,l),
(543,283,l),
(537,302,l),
(518,307,l),
(509,318,l),
(502,331,l),
(495,346,l),
(478,354,l),
(475,358,l),
(457,362,l),
(447,371,l),
(432,379,l),
(421,385,l),
(403,385,l),
(392,392,l),
(366,391,l),
(357,396,l),
(337,398,l),
(323,398,l),
(300,397,l),
(285,394,l),
(255,400,l),
(242,401,l),
(244,413,l),
(240,435,l),
(271,438,l),
(300,434,l),
(322,435,l),
(346,437,l),
(373,434,l),
(393,438,l),
(440,435,l),
(468,444,l),
(475,449,l),
(490,459,l),
(494,471,l),
(511,481,l),
(526,490,l),
(524,509,l),
(529,523,l),
(527,549,l),
(525,568,l),
(527,576,l),
(512,594,l),
(513,599,l),
(495,614,l),
(481,627,l),
(467,631,l),
(458,640,l),
(452,637,l),
(432,643,l),
(416,646,l),
(394,643,l),
(379,639,l),
(361,637,l),
(337,638,l),
(324,633,l),
(316,635,l),
(297,634,l),
(282,631,l),
(258,627,l),
(247,630,l),
(222,625,l),
(207,630,l),
(186,623,l),
(162,629,l),
(131,621,l),
(108,629,l),
(87,619,l),
(74,626,l),
(57,618,l),
(43,618,l),
(33,604,l),
(19,601,l),
(11,586,l),
(5,580,l),
(-13,568,l),
(-16,548,l),
(-6,520,l),
(-15,505,l),
(-4,496,l),
(-1,475,l),
(9,471,l),
(36,440,l),
(31,412,l),
(34,391,l),
(39,380,l),
(38,365,l),
(39,349,l),
(40,328,l),
(37,305,l),
(49,290,l),
(44,275,l),
(55,258,l),
(63,252,l),
(84,243,l),
(95,239,l),
(116,226,l),
(132,226,l),
(147,235,l),
(172,239,l),
(178,237,l),
(199,240,l),
(214,241,l),
(222,246,l),
(240,243,l),
(253,248,l),
(277,245,l),
(299,238,l),
(319,234,l),
(327,231,l),
(338,228,l),
(357,217,l),
(361,198,l),
(357,184,l),
(365,152,l),
(365,141,l),
(354,129,l),
(351,119,l),
(342,104,l),
(322,92,l),
(303,88,l),
(291,90,l),
(269,91,l),
(256,84,l),
(230,93,l),
(224,95,l),
(204,96,l),
(197,100,l),
(181,107,l),
(144,113,l),
(129,119,l),
(108,114,l),
(97,113,l),
(77,105,l),
(65,103,l),
(56,92,l),
(54,78,l),
(38,65,l),
(33,52,l),
(33,35,l),
(38,6,l),
(31,-10,l),
(48,-28,l),
(51,-41,l),
(53,-53,l),
(64,-60,l),
(90,-66,l),
(117,-76,l),
(125,-81,l),
(144,-90,l),
(160,-96,l),
(174,-93,l),
(189,-100,l),
(206,-96,l),
(220,-103,l),
(238,-99,l),
(256,-107,l)
);
}
);
width = 564;
},
{
hints = (
{
horizontal = 1;
place = (-78,70);
type = Stem;
},
{
horizontal = 1;
place = (297,72);
type = Stem;
},
{
horizontal = 1;
place = (530,70);
type = Stem;
},
{
place = (29,97);
type = Stem;
},
{
place = (340,116);
type = Stem;
}
);
layerId = m003;
shapes = (
{
closed = 1;
nodes = (
(289,-75,l),
(308,-81,l),
(324,-71,l),
(330,-68,l),
(353,-72,l),
(364,-68,l),
(371,-63,l),
(391,-49,l),
(405,-49,l),
(420,-35,l),
(427,-30,l),
(431,-16,l),
(450,-6,l),
(463,5,l),
(469,20,l),
(480,29,l),
(474,44,l),
(479,54,l),
(484,72,l),
(493,86,l),
(488,103,l),
(491,120,l),
(492,126,l),
(503,157,l),
(496,178,l),
(502,186,l),
(485,202,l),
(485,223,l),
(484,237,l),
(480,249,l),
(474,261,l),
(461,275,l),
(458,291,l),
(441,303,l),
(438,307,l),
(420,321,l),
(409,325,l),
(402,334,l),
(372,351,l),
(360,356,l),
(344,358,l),
(326,362,l),
(316,367,l),
(290,368,l),
(277,361,l),
(252,365,l),
(232,364,l),
(223,363,l),
(214,359,l),
(200,358,l),
(177,359,l),
(178,377,l),
(171,388,l),
(177,409,l),
(172,422,l),
(177,430,l),
(173,452,l),
(171,468,l),
(172,476,l),
(174,493,l),
(166,507,l),
(173,528,l),
(190,529,l),
(208,530,l),
(223,530,l),
(241,535,l),
(257,527,l),
(264,532,l),
(275,537,l),
(293,536,l),
(308,530,l),
(333,531,l),
(339,534,l),
(352,536,l),
(369,529,l),
(381,533,l),
(395,533,l),
(435,529,l),
(446,532,l),
(449,542,l),
(463,561,l),
(467,585,l),
(453,602,l),
(453,609,l),
(430,615,l),
(418,621,l),
(387,617,l),
(372,617,l),
(361,613,l),
(352,610,l),
(327,604,l),
(320,608,l),
(304,605,l),
(288,601,l),
(275,606,l),
(263,607,l),
(240,605,l),
(220,603,l),
(216,603,l),
(197,603,l),
(176,603,l),
(165,596,l),
(152,603,l),
(139,601,l),
(127,603,l),
(101,597,l),
(67,597,l),
(53,591,l),
(43,589,l),
(48,557,l),
(45,545,l),
(61,532,l),
(71,529,l),
(82,527,l),
(97,506,l),
(89,494,l),
(98,474,l),
(87,467,l),
(88,452,l),
(96,432,l),
(98,416,l),
(85,408,l),
(96,389,l),
(99,375,l),
(97,356,l),
(92,341,l),
(85,335,l),
(94,305,l),
(108,290,l),
(117,291,l),
(159,297,l),
(173,297,l),
(185,297,l),
(194,306,l),
(213,298,l),
(236,299,l),
(251,307,l),
(279,307,l),
(292,307,l),
(308,299,l),
(318,299,l),
(334,292,l),
(353,288,l),
(363,274,l),
(370,272,l),
(387,255,l),
(389,246,l),
(399,228,l),
(407,215,l),
(414,201,l),
(414,188,l),
(411,176,l),
(416,158,l),
(414,130,l),
(418,118,l),
(408,103,l),
(414,87,l),
(412,70,l),
(405,61,l),
(389,41,l),
(387,36,l),
(370,17,l),
(353,13,l),
(332,-2,l),
(318,-8,l),
(296,-10,l),
(282,-5,l),
(258,-11,l),
(234,-3,l),
(224,-9,l),
(208,-2,l),
(186,-3,l),
(178,7,l),
(159,4,l),
(142,12,l),
(116,25,l),
(106,17,l),
(97,16,l),
(93,-3,l),
(93,-30,l),
(103,-44,l),
(121,-53,l),
(141,-64,l),
(157,-64,l),
(179,-75,l),
(193,-69,l),
(208,-75,l),
(229,-74,l),
(248,-81,l),
(256,-80,l)
);
}
);
width = 526;
}
);
metricLeft = "=O";
metricRight = "=S";
note = five;
unicode = 53;
}
{
glyphname = six;
kernLeft = KO_six;
kernRight = KO_six;
layers = (
{
hints = (
{
horizontal = 1;
place = (-10,70);
type = Stem;
},
{
horizontal = 1;
place = (340,70);
type = Stem;
},
{
horizontal = 1;
place = (612,65);
type = Stem;
},
{
place = (24,117);
type = Stem;
},
{
place = (369,112);
type = Stem;
}
);
layerId = m005;
shapes = (
{
closed = 1;
nodes = (
(234,-6,l),
(263,-8,l),
(281,-7,l),
(311,-3,l),
(331,-5,l),
(340,6,l),
(356,10,l),
(370,10,l),
(388,18,l),
(402,28,l),
(419,35,l),
(430,43,l),
(429,56,l),
(444,60,l),
(457,73,l),
(459,89,l),
(476,100,l),
(484,110,l),
(490,121,l),
(496,140,l),
(488,158,l),
(488,172,l),
(496,185,l),
(500,217,l),
(492,232,l),
(499,250,l),
(489,264,l),
(483,279,l),
(476,289,l),
(468,307,l),
(465,317,l),
(454,331,l),
(448,343,l),
(438,356,l),
(429,360,l),
(409,369,l),
(402,377,l),
(393,392,l),
(382,391,l),
(367,402,l),
(352,400,l),
(329,404,l),
(310,408,l),
(290,409,l),
(262,405,l),
(234,408,l),
(229,399,l),
(207,395,l),
(190,393,l),
(188,392,l),
(158,382,l),
(163,408,l),
(168,425,l),
(178,431,l),
(179,453,l),
(186,466,l),
(184,478,l),
(198,488,l),
(212,500,l),
(218,514,l),
(231,529,l),
(241,538,l),
(247,548,l),
(260,553,l),
(266,562,l),
(279,574,l),
(301,576,l),
(305,586,l),
(322,590,l),
(336,590,l),
(353,596,l),
(365,600,l),
(378,605,l),
(397,605,l),
(410,611,l),
(413,627,l),
(414,646,l),
(414,658,l),
(404,661,l),
(389,667,l),
(385,677,l),
(365,673,l),
(349,670,l),
(338,671,l),
(322,665,l),
(303,658,l),
(294,661,l),
(272,651,l),
(259,646,l),
(252,641,l),
(233,633,l),
(222,623,l),
(209,617,l),
(192,608,l),
(191,600,l),
(168,589,l),
(159,584,l),
(154,568,l),
(145,560,l),
(126,548,l),
(117,523,l),
(107,510,l),
(93,499,l),
(92,486,l),
(84,471,l),
(76,455,l),
(75,427,l),
(61,417,l),
(52,401,l),
(57,382,l),
(46,366,l),
(54,355,l),
(43,338,l),
(43,312,l),
(48,292,l),
(34,281,l),
(37,262,l),
(47,231,l),
(40,218,l),
(48,203,l),
(39,191,l),
(50,179,l),
(47,158,l),
(51,142,l),
(59,133,l),
(60,115,l),
(72,108,l),
(73,87,l),
(87,83,l),
(88,65,l),
(102,47,l),
(114,32,l),
(134,29,l),
(136,21,l),
(158,7,l),
(176,-4,l),
(196,-2,l),
(214,-10,l)
);
},
{
closed = 1;
nodes = (
(243,73,l),
(221,77,l),
(207,88,l),
(201,91,l),
(181,107,l),
(181,117,l),
(174,122,l),
(158,144,l),
(157,153,l),
(158,173,l),
(141,180,l),
(138,211,l),
(140,231,l),
(149,245,l),
(143,268,l),
(149,277,l),
(160,301,l),
(174,314,l),
(190,315,l),
(208,325,l),
(223,326,l),
(238,336,l),
(252,338,l),
(269,338,l),
(289,337,l),
(300,336,l),
(318,324,l),
(327,318,l),
(348,318,l),
(357,310,l),
(368,300,l),
(370,285,l),
(374,274,l),
(394,254,l),
(395,242,l),
(393,230,l),
(394,211,l),
(394,182,l),
(397,173,l),
(392,155,l),
(382,141,l),
(381,127,l),
(366,118,l),
(362,105,l),
(351,95,l),
(333,83,l),
(320,82,l),
(302,82,l),
(292,78,l),
(261,71,l)
);
}
);
width = 547;
},
{
hints = (
{
horizontal = 1;
place = (-10,70);
type = Stem;
},
{
horizontal = 1;
place = (340,70);
type = Stem;
},
{
horizontal = 1;
place = (612,65);
type = Stem;
},
{
place = (24,117);
type = Stem;
},
{
place = (369,112);
type = Stem;
}
);
layerId = m002;
shapes = (
{
closed = 1;
nodes = (
(234,-23,l),
(245,-22,l),
(253,-28,l),
(296,-21,l),
(302,-18,l),
(325,-22,l),
(337,-17,l),
(349,-17,l),
(373,-3,l),
(393,5,l),
(411,10,l),
(427,12,l),
(430,18,l),
(452,27,l),
(453,37,l),
(477,46,l),
(480,55,l),
(491,61,l),
(500,75,l),
(510,91,l),
(519,97,l),
(528,114,l),
(539,142,l),
(539,156,l),
(546,167,l),
(543,189,l),
(552,210,l),
(553,226,l),
(541,241,l),
(547,263,l),
(538,277,l),
(526,299,l),
(516,313,l),
(507,326,l),
(502,340,l),
(493,354,l),
(485,360,l),
(478,376,l),
(460,381,l),
(452,388,l),
(431,401,l),
(422,405,l),
(410,412,l),
(395,418,l),
(377,421,l),
(366,417,l),
(350,422,l),
(333,423,l),
(310,422,l),
(301,427,l),
(276,425,l),
(259,426,l),
(252,438,l),
(258,449,l),
(275,470,l),
(289,479,l),
(298,494,l),
(311,493,l),
(327,498,l),
(349,506,l),
(358,512,l),
(386,521,l),
(415,525,l),
(417,525,l),
(431,540,l),
(443,549,l),
(462,556,l),
(460,569,l),
(473,593,l),
(468,615,l),
(458,632,l),
(462,648,l),
(442,661,l),
(430,668,l),
(425,681,l),
(401,685,l),
(384,688,l),
(342,691,l),
(323,682,l),
(295,677,l),
(283,670,l),
(270,673,l),
(253,668,l),
(241,660,l),
(230,651,l),
(202,644,l),
(195,632,l),
(183,622,l),
(172,613,l),
(149,609,l),
(137,584,l),
(123,579,l),
(105,567,l),
(93,556,l),
(97,546,l),
(78,529,l),
(66,519,l),
(59,503,l),
(57,490,l),
(41,477,l),
(45,467,l),
(34,458,l),
(34,436,l),
(25,428,l),
(20,416,l),
(19,402,l),
(12,388,l),
(9,374,l),
(6,350,l),
(3,341,l),
(-9,322,l),
(-12,298,l),
(-4,283,l),
(-16,265,l),
(-7,236,l),
(-8,217,l),
(-10,209,l),
(-2,188,l),
(-3,172,l),
(-5,161,l),
(1,142,l),
(15,128,l),
(16,119,l),
(25,102,l),
(31,91,l),
(43,82,l),
(46,65,l),
(64,55,l),
(66,47,l),
(86,31,l),
(90,29,l),
(103,15,l),
(113,8,l),
(125,-3,l),
(161,-9,l),
(167,-13,l),
(201,-15,l),
(214,-29,l)
);
},
{
closed = 1;
nodes = (
(269,159,l),
(257,160,l),
(247,159,l),
(238,158,l),
(233,164,l),
(229,168,l),
(225,173,l),
(215,182,l),
(207,194,l),
(200,203,l),
(195,210,l),
(189,219,l),
(190,232,l),
(190,241,l),
(189,251,l),
(188,257,l),
(193,260,l),
(199,264,l),
(207,269,l),
(214,274,l),
(219,277,l),
(226,280,l),
(234,283,l),
(244,282,l),
(252,282,l),
(262,281,l),
(270,283,l),
(280,285,l),
(287,283,l),
(298,281,l),
(306,279,l),
(311,279,l),
(323,270,l),
(329,261,l),
(335,253,l),
(341,246,l),
(347,240,l),
(347,231,l),
(347,221,l),
(347,211,l),
(344,205,l),
(342,199,l),
(337,187,l),
(331,185,l),
(320,180,l),
(316,175,l),
(309,167,l),
(304,165,l),
(293,160,l),
(284,157,l)
);
}
);
width = 561;
},
{
hints = (
{
horizontal = 1;
place = (-10,70);
type = Stem;
},
{
horizontal = 1;
place = (340,70);
type = Stem;
},
{
horizontal = 1;
place = (612,65);
type = Stem;
},
{
place = (24,117);
type = Stem;
},
{
place = (369,112);
type = Stem;
}
);
layerId = m003;
shapes = (
{
closed = 1;
nodes = (
(234,-7,l),
(259,-10,l),
(282,-10,l),
(298,-6,l),
(320,-7,l),
(341,0,l),
(353,7,l),
(372,11,l),
(386,17,l),
(396,26,l),
(402,37,l),
(423,45,l),
(437,56,l),
(442,58,l),
(448,70,l),
(461,86,l),
(458,102,l),
(467,115,l),
(482,122,l),
(476,144,l),
(480,158,l),
(488,169,l),
(487,183,l),
(481,210,l),
(477,231,l),
(482,247,l),
(483,259,l),
(473,275,l),
(470,284,l),
(460,303,l),
(451,318,l),
(439,327,l),
(430,337,l),
(429,355,l),
(421,357,l),
(402,374,l),
(383,373,l),
(382,384,l),
(363,389,l),
(336,397,l),
(311,402,l),
(305,404,l),
(289,400,l),
(257,396,l),
(236,395,l),
(235,390,l),
(214,389,l),
(194,383,l),
(174,373,l),
(160,367,l),
(144,356,l),
(148,375,l),
(153,391,l),
(148,414,l),
(160,426,l),
(163,434,l),
(165,455,l),
(169,469,l),
(177,481,l),
(191,490,l),
(201,502,l),
(199,517,l),
(211,528,l),
(220,542,l),
(233,557,l),
(238,560,l),
(249,572,l),
(265,585,l),
(276,592,l),
(302,597,l),
(321,605,l),
(345,609,l),
(357,612,l),
(388,619,l),
(394,630,l),
(405,634,l),
(401,663,l),
(398,668,l),
(379,674,l),
(349,670,l),
(342,666,l),
(325,662,l),
(302,664,l),
(286,654,l),
(280,654,l),
(268,643,l),
(255,639,l),
(238,630,l),
(230,623,l),
(211,623,l),
(208,614,l),
(188,597,l),
(177,586,l),
(164,585,l),
(164,569,l),
(150,555,l),
(136,548,l),
(126,537,l),
(114,523,l),
(105,511,l),
(101,496,l),
(97,482,l),
(95,474,l),
(90,458,l),
(73,440,l),
(70,424,l),
(78,410,l),
(67,388,l),
(55,370,l),
(64,357,l),
(61,337,l),
(48,323,l),
(55,310,l),
(43,291,l),
(53,278,l),
(54,267,l),
(47,239,l),
(44,218,l),
(51,199,l),
(52,193,l),
(54,170,l),
(51,158,l),
(59,140,l),
(71,127,l),
(66,110,l),
(69,104,l),
(86,90,l),
(95,64,l),
(110,49,l),
(112,38,l),
(122,31,l),
(145,23,l),
(152,8,l),
(158,10,l),
(174,2,l),
(192,-1,l),
(203,-9,l),
(221,-14,l)
);
},
{
closed = 1;
nodes = (
(263,56,l),
(232,58,l),
(206,62,l),
(198,65,l),
(191,79,l),
(175,85,l),
(165,103,l),
(154,111,l),
(151,127,l),
(151,143,l),
(140,155,l),
(144,172,l),
(139,185,l),
(126,216,l),
(130,227,l),
(129,246,l),
(136,256,l),
(138,270,l),
(140,288,l),
(156,312,l),
(171,322,l),
(181,320,l),
(189,328,l),
(216,339,l),
(253,347,l),
(288,345,l),
(317,338,l),
(329,330,l),
(343,324,l),
(356,322,l),
(358,305,l),
(378,295,l),
(385,284,l),
(396,271,l),
(390,263,l),
(406,240,l),
(409,217,l),
(412,184,l),
(402,172,l),
(399,152,l),
(396,141,l),
(391,122,l),
(380,111,l),
(372,100,l),
(365,87,l),
(340,75,l),
(329,70,l),
(310,65,l),
(302,55,l),
(278,51,l)
);
}
);
width = 542;
}
);
metricLeft = "=O";
metricRight = "=o";
note = six;
unicode = 54;
}
{
glyphname = seven;
kernLeft = KO_seven;
kernRight = KO_seven;
layers = (
{
hints = (
{
horizontal = 1;
place = (0,21);
target = up;
type = BottomGhost;
},
{
horizontal = 1;
place = (525,75);
type = Stem;
},
{
place = (94,110);
type = Stem;
}
);
layerId = m005;
shapes = (
{
closed = 1;
nodes = (
(158,-73,l),
(167,-65,l),
(174,-64,l),
(195,-49,l),
(203,-33,l),
(199,-9,l),
(211,7,l),
(208,28,l),
(206,44,l),
(218,60,l),
(208,73,l),
(220,82,l),
(222,97,l),
(225,113,l),
(227,132,l),
(241,150,l),
(237,157,l),
(242,171,l),
(251,191,l),
(251,204,l),
(260,218,l),
(266,234,l),
(278,248,l),
(285,258,l),
(279,271,l),
(294,286,l),
(298,300,l),
(312,317,l),
(317,335,l),
(314,343,l),
(323,356,l),
(341,371,l),
(338,387,l),
(351,401,l),
(351,411,l),
(365,430,l),
(367,448,l),
(376,456,l),
(393,472,l),
(395,480,l),
(408,494,l),
(411,512,l),
(419,524,l),
(432,531,l),
(441,550,l),
(431,562,l),
(440,572,l),
(424,584,l),
(416,592,l),
(410,602,l),
(380,598,l),
(356,597,l),
(338,604,l),
(323,604,l),
(311,600,l),
(297,598,l),
(284,600,l),
(273,598,l),
(249,600,l),
(237,598,l),
(230,597,l),
(206,602,l),
(197,606,l),
(171,602,l),
(169,599,l),
(145,606,l),
(130,601,l),
(115,606,l),
(96,608,l),
(91,610,l),
(70,613,l),
(38,608,l),
(33,601,l),
(21,594,l),
(5,572,l),
(18,546,l),
(25,530,l),
(31,515,l),
(40,509,l),
(71,515,l),
(89,508,l),
(95,517,l),
(136,517,l),
(149,516,l),
(162,516,l),
(176,522,l),
(195,523,l),
(208,522,l),
(222,522,l),
(227,522,l),
(254,520,l),
(261,521,l),
(272,524,l),
(295,521,l),
(314,515,l),
(300,496,l),
(299,480,l),
(294,469,l),
(278,453,l),
(279,442,l),
(267,430,l),
(260,415,l),
(246,400,l),
(243,393,l),
(231,379,l),
(229,365,l),
(214,354,l),
(217,334,l),
(211,321,l),
(205,310,l),
(189,298,l),
(185,284,l),
(188,270,l),
(171,261,l),
(172,245,l),
(164,227,l),
(150,218,l),
(155,203,l),
(153,192,l),
(135,177,l),
(132,163,l),
(127,148,l),
(128,132,l),
(128,113,l),
(120,104,l),
(106,88,l),
(109,75,l),
(107,56,l),
(107,48,l),
(101,25,l),
(102,12,l),
(99,-6,l),
(96,-27,l),
(88,-48,l),
(99,-62,l),
(111,-66,l),
(131,-74,l)
);
}
);
width = 452;
},
{
hints = (
{
horizontal = 1;
place = (0,21);
target = up;
type = BottomGhost;
},
{
horizontal = 1;
place = (525,75);
type = Stem;
},
{
place = (94,110);
type = Stem;
}
);
layerId = m002;
shapes = (
{
closed = 1;
nodes = (
(206,-92,l),
(224,-79,l),
(248,-75,l),
(256,-66,l),
(271,-55,l),
(277,-42,l),
(285,-27,l),
(292,-15,l),
(299,-4,l),
(304,26,l),
(302,41,l),
(300,56,l),
(313,71,l),
(312,89,l),
(307,99,l),
(315,116,l),
(315,126,l),
(334,145,l),
(335,172,l),
(340,181,l),
(348,197,l),
(351,208,l),
(361,222,l),
(371,233,l),
(384,250,l),
(385,261,l),
(399,270,l),
(399,290,l),
(407,297,l),
(411,314,l),
(420,327,l),
(427,340,l),
(446,346,l),
(451,359,l),
(466,377,l),
(466,386,l),
(473,402,l),
(487,415,l),
(489,425,l),
(496,433,l),
(512,451,l),
(530,475,l),
(537,488,l),
(531,506,l),
(532,519,l),
(528,528,l),
(526,548,l),
(529,554,l),
(517,569,l),
(498,586,l),
(485,592,l),
(469,602,l),
(447,599,l),
(421,607,l),
(400,607,l),
(389,609,l),
(368,604,l),
(359,600,l),
(343,608,l),
(332,602,l),
(317,603,l),
(293,603,l),
(277,608,l),
(262,607,l),
(240,611,l),
(229,606,l),
(215,611,l),
(193,613,l),
(175,613,l),
(174,606,l),
(149,610,l),
(133,615,l),
(92,618,l),
(72,614,l),
(70,605,l),
(53,602,l),
(46,589,l),
(34,578,l),
(18,566,l),
(14,553,l),
(6,547,l),
(12,525,l),
(13,501,l),
(11,475,l),
(20,464,l),
(27,447,l),
(48,435,l),
(53,430,l),
(69,421,l),
(95,417,l),
(124,420,l),
(131,413,l),
(143,415,l),
(157,418,l),
(167,421,l),
(184,417,l),
(197,421,l),
(215,426,l),
(225,426,l),
(234,425,l),
(247,423,l),
(253,415,l),
(260,405,l),
(255,395,l),
(247,379,l),
(237,367,l),
(229,356,l),
(227,338,l),
(219,329,l),
(202,318,l),
(198,301,l),
(189,292,l),
(178,262,l),
(165,248,l),
(165,234,l),
(147,221,l),
(138,181,l),
(130,173,l),
(120,154,l),
(119,140,l),
(107,123,l),
(101,113,l),
(95,96,l),
(104,89,l),
(97,73,l),
(86,53,l),
(82,41,l),
(93,13,l),
(84,-11,l),
(85,-18,l),
(103,-41,l),
(111,-54,l),
(121,-66,l),
(122,-74,l),
(140,-83,l),
(159,-86,l),
(172,-92,l)
);
}
);
width = 542;
},
{
hints = (
{
horizontal = 1;
place = (0,21);
target = up;
type = BottomGhost;
},
{
horizontal = 1;
place = (525,75);
type = Stem;
},
{
place = (94,110);
type = Stem;
}
);
layerId = m003;
shapes = (
{
closed = 1;
nodes = (
(136,-71,l),
(145,-62,l),
(161,-54,l),
(175,-43,l),
(180,-11,l),
(169,-1,l),
(184,15,l),
(182,26,l),
(177,50,l),
(192,60,l),
(183,79,l),
(185,89,l),
(195,104,l),
(194,116,l),
(201,134,l),
(203,146,l),
(213,158,l),
(214,177,l),
(223,193,l),
(225,204,l),
(227,220,l),
(240,234,l),
(239,249,l),
(254,263,l),
(250,275,l),
(255,283,l),
(268,305,l),
(268,316,l),
(287,331,l),
(289,337,l),
(300,354,l),
(306,373,l),
(308,384,l),
(312,391,l),
(324,404,l),
(326,421,l),
(335,436,l),
(345,445,l),
(353,457,l),
(362,473,l),
(362,482,l),
(375,503,l),
(381,509,l),
(385,525,l),
(395,541,l),
(412,568,l),
(406,584,l),
(406,590,l),
(381,597,l),
(361,602,l),
(338,598,l),
(328,599,l),
(308,600,l),
(295,602,l),
(273,597,l),
(265,601,l),
(249,604,l),
(238,597,l),
(220,598,l),
(204,604,l),
(183,600,l),
(173,603,l),
(155,603,l),
(141,600,l),
(122,605,l),
(120,607,l),
(100,603,l),
(90,603,l),
(64,605,l),
(56,610,l),
(30,606,l),
(13,602,l),
(9,581,l),
(1,551,l),
(17,546,l),
(23,536,l),
(48,534,l),
(61,536,l),
(88,537,l),
(104,534,l),
(106,534,l),
(126,539,l),
(143,537,l),
(161,541,l),
(171,543,l),
(195,537,l),
(197,544,l),
(214,544,l),
(240,538,l),
(257,541,l),
(258,544,l),
(278,544,l),
(294,537,l),
(317,533,l),
(300,516,l),
(299,510,l),
(294,496,l),
(286,482,l),
(270,469,l),
(273,452,l),
(262,447,l),
(248,435,l),
(241,414,l),
(233,409,l),
(236,388,l),
(221,374,l),
(218,365,l),
(210,347,l),
(209,334,l),
(192,320,l),
(189,312,l),
(191,302,l),
(179,283,l),
(175,273,l),
(174,261,l),
(154,243,l),
(150,231,l),
(142,205,l),
(136,190,l),
(137,173,l),
(127,159,l),
(131,142,l),
(112,132,l),
(117,120,l),
(112,106,l),
(108,92,l),
(100,78,l),
(99,61,l),
(99,44,l),
(90,34,l),
(88,14,l),
(93,5,l),
(81,-9,l),
(86,-41,l),
(91,-51,l),
(101,-63,l),
(107,-69,l)
);
}
);
width = 427;
}
);
metricLeft = "=Z";
metricRight = "=Z";
note = seven;
unicode = 55;
}
{
glyphname = eight;
kernLeft = KO_eight;
kernRight = KO_eight;
layers = (
{
hints = (
{
horizontal = 1;
place = (-10,70);
type = Stem;
},
{
horizontal = 1;
place = (326,70);
type = Stem;
},
{
horizontal = 1;
place = (608,69);
type = Stem;
},
{
place = (49,105);
type = Stem;
},
{
place = (364,112);
type = Stem;
},
{
place = (24,112);
type = Stem;
},
{
place = (345,105);
type = Stem;
}
);
layerId = m005;
shapes = (
{
closed = 1;
nodes = (
(264,-11,l),
(291,-6,l),
(298,-1,l),
(306,-2,l),
(327,-1,l),
(346,10,l),
(355,12,l),
(367,22,l),
(379,31,l),
(398,40,l),
(408,43,l),
(422,60,l),
(422,68,l),
(426,77,l),
(448,90,l),
(448,106,l),
(449,120,l),
(452,137,l),
(465,151,l),
(468,166,l),
(470,180,l),
(466,211,l),
(463,221,l),
(454,235,l),
(445,256,l),
(443,269,l),
(439,276,l),
(424,294,l),
(418,305,l),
(402,315,l),
(392,321,l),
(379,330,l),
(365,339,l),
(358,345,l),
(342,351,l),
(327,357,l),
(352,368,l),
(361,380,l),
(381,391,l),
(396,397,l),
(403,404,l),
(417,415,l),
(416,432,l),
(432,447,l),
(429,461,l),
(428,471,l),
(434,489,l),
(432,518,l),
(430,526,l),
(437,541,l),
(422,558,l),
(424,575,l),
(421,584,l),
(417,599,l),
(399,610,l),
(396,617,l),
(380,635,l),
(370,643,l),
(362,652,l),
(334,660,l),
(331,660,l),
(313,670,l),
(306,674,l),
(288,674,l),
(268,670,l),
(254,680,l),
(220,673,l),
(213,671,l),
(174,670,l),
(159,664,l),
(148,664,l),
(139,651,l),
(129,651,l),
(103,639,l),
(97,629,l),
(86,624,l),
(78,608,l),
(74,602,l),
(59,589,l),
(57,574,l),
(42,557,l),
(49,545,l),
(39,526,l),
(35,515,l),
(37,486,l),
(36,472,l),
(52,451,l),
(58,442,l),
(54,431,l),
(65,420,l),
(77,408,l),
(90,392,l),
(103,387,l),
(118,376,l),
(137,361,l),
(117,352,l),
(99,347,l),
(82,338,l),
(71,329,l),
(59,313,l),
(48,299,l),
(50,292,l),
(38,281,l),
(30,263,l),
(28,257,l),
(12,242,l),
(16,220,l),
(18,205,l),
(14,176,l),
(13,165,l),
(15,148,l),
(17,131,l),
(19,117,l),
(25,102,l),
(35,97,l),
(42,83,l),
(52,72,l),
(62,56,l),
(72,48,l),
(87,36,l),
(100,31,l),
(106,22,l),
(119,16,l),
(136,10,l),
(154,3,l),
(167,0,l),
(186,0,l),
(192,-10,l),
(214,-12,l),
(230,-10,l),
(249,-14,l)
);
},
{
closed = 1;
nodes = (
(190,83,l),
(185,83,l),
(161,87,l),
(146,103,l),
(141,106,l),
(132,122,l),
(131,131,l),
(124,151,l),
(121,166,l),
(113,183,l),
(119,213,l),
(121,228,l),
(124,244,l),
(128,250,l),
(140,271,l),
(145,278,l),
(161,287,l),
(166,294,l),
(189,307,l),
(206,309,l),
(222,320,l),
(242,311,l),
(254,312,l),
(274,301,l),
(289,299,l),
(293,288,l),
(308,285,l),
(326,275,l),
(329,262,l),
(348,255,l),
(351,239,l),
(355,229,l),
(361,211,l),
(359,175,l),
(362,165,l),
(360,148,l),
(345,137,l),
(344,127,l),
(342,107,l),
(331,106,l),
(309,92,l),
(294,87,l),
(287,83,l),
(263,83,l),
(254,73,l),
(224,78,l),
(205,73,l)
);
},
{
closed = 1;
nodes = (
(224,404,l),
(210,407,l),
(204,413,l),
(189,412,l),
(177,420,l),
(159,427,l),
(152,440,l),
(132,450,l),
(134,468,l),
(130,485,l),
(133,519,l),
(133,532,l),
(131,542,l),
(140,553,l),
(147,574,l),
(172,582,l),
(179,585,l),
(191,591,l),
(214,595,l),
(230,598,l),
(255,604,l),
(266,599,l),
(289,597,l),
(293,592,l),
(304,576,l),
(321,573,l),
(337,558,l),
(333,548,l),
(350,530,l),
(347,517,l),
(341,484,l),
(348,472,l),
(335,451,l),
(332,441,l),
(322,428,l),
(303,420,l),
(287,416,l),
(268,406,l),
(258,402,l),
(244,399,l)
);
}
);
width = 482;
},
{
hints = (
{
horizontal = 1;
place = (-10,70);
type = Stem;
},
{
horizontal = 1;
place = (326,70);
type = Stem;
},
{
horizontal = 1;
place = (608,69);
type = Stem;
},
{
place = (49,105);
type = Stem;
},
{
place = (364,112);
type = Stem;
},
{
place = (24,112);
type = Stem;
},
{
place = (345,105);
type = Stem;
}
);
layerId = m002;
shapes = (
{
closed = 1;
nodes = (
(312,-22,l),
(332,-22,l),
(344,-19,l),
(361,-17,l),
(381,-18,l),
(393,-8,l),
(400,-6,l),
(423,-4,l),
(433,4,l),
(438,12,l),
(452,23,l),
(464,30,l),
(481,42,l),
(501,44,l),
(498,57,l),
(508,71,l),
(519,78,l),
(527,93,l),
(535,106,l),
(550,123,l),
(555,133,l),
(554,149,l),
(558,162,l),
(565,181,l),
(560,207,l),
(552,229,l),
(548,243,l),
(544,258,l),
(545,265,l),
(530,283,l),
(527,298,l),
(520,313,l),
(508,322,l),
(508,336,l),
(478,356,l),
(483,369,l),
(491,388,l),
(505,405,l),
(516,411,l),
(527,429,l),
(518,445,l),
(533,457,l),
(533,468,l),
(532,486,l),
(531,515,l),
(527,525,l),
(535,542,l),
(530,557,l),
(518,570,l),
(512,589,l),
(501,600,l),
(488,605,l),
(477,623,l),
(469,633,l),
(463,638,l),
(439,647,l),
(437,659,l),
(417,661,l),
(399,671,l),
(397,676,l),
(377,677,l),
(359,686,l),
(340,687,l),
(334,690,l),
(318,689,l),
(301,687,l),
(272,689,l),
(257,688,l),
(238,693,l),
(230,682,l),
(201,681,l),
(197,674,l),
(178,677,l),
(160,667,l),
(136,651,l),
(128,652,l),
(112,639,l),
(94,626,l),
(83,622,l),
(79,604,l),
(69,597,l),
(52,580,l),
(49,576,l),
(43,561,l),
(38,544,l),
(41,534,l),
(37,514,l),
(35,484,l),
(43,466,l),
(40,448,l),
(49,441,l),
(54,421,l),
(56,407,l),
(89,371,l),
(75,358,l),
(56,336,l),
(51,329,l),
(37,312,l),
(40,293,l),
(27,283,l),
(20,270,l),
(25,252,l),
(10,235,l),
(6,220,l),
(7,213,l),
(12,180,l),
(5,164,l),
(16,151,l),
(18,135,l),
(16,124,l),
(27,108,l),
(30,96,l),
(46,79,l),
(49,71,l),
(66,55,l),
(72,46,l),
(94,43,l),
(93,27,l),
(104,19,l),
(121,9,l),
(132,6,l),
(158,0,l),
(166,-2,l),
(175,-11,l),
(188,-16,l),
(202,-15,l),
(227,-25,l),
(245,-18,l),
(254,-22,l),
(266,-25,l),
(306,-26,l)
);
},
{
closed = 1;
nodes = (
(272,161,l),
(265,161,l),
(258,166,l),
(249,164,l),
(241,162,l),
(237,167,l),
(232,173,l),
(229,178,l),
(221,180,l),
(214,181,l),
(213,190,l),
(212,198,l),
(210,207,l),
(208,216,l),
(207,225,l),
(206,231,l),
(213,235,l),
(224,240,l),
(233,247,l),
(240,252,l),
(248,259,l),
(255,264,l),
(263,262,l),
(270,262,l),
(277,261,l),
(290,260,l),
(303,259,l),
(312,256,l),
(320,253,l),
(324,249,l),
(332,242,l),
(336,237,l),
(342,230,l),
(345,226,l),
(350,221,l),
(350,211,l),
(351,199,l),
(348,187,l),
(347,182,l),
(345,173,l),
(335,169,l),
(328,166,l),
(319,163,l),
(312,161,l),
(304,161,l),
(290,160,l),
(281,160,l)
);
},
{
closed = 1;
nodes = (
(280,456,l),
(272,457,l),
(264,457,l),
(257,457,l),
(248,462,l),
(237,468,l),
(231,472,l),
(225,474,l),
(225,481,l),
(226,490,l),
(226,498,l),
(231,501,l),
(235,503,l),
(241,507,l),
(244,509,l),
(250,510,l),
(256,510,l),
(263,511,l),
(264,512,l),
(273,513,l),
(281,514,l),
(290,515,l),
(295,515,l),
(304,515,l),
(310,517,l),
(315,516,l),
(322,514,l),
(327,513,l),
(330,507,l),
(333,501,l),
(336,496,l),
(338,490,l),
(340,484,l),
(341,479,l),
(334,471,l),
(327,466,l),
(322,462,l),
(308,459,l),
(300,457,l),
(291,455,l)
);
}
);
width = 570;
},
{
hints = (
{
horizontal = 1;
place = (-10,70);
type = Stem;
},
{
horizontal = 1;
place = (326,70);
type = Stem;
},
{
horizontal = 1;
place = (608,69);
type = Stem;
},
{
place = (49,105);
type = Stem;
},
{
place = (364,112);
type = Stem;
},
{
place = (24,112);
type = Stem;
},
{
place = (345,105);
type = Stem;
}
);
layerId = m003;
shapes = (
{
closed = 1;
nodes = (
(250,-3,l),
(263,-2,l),
(277,-5,l),
(299,2,l),
(302,6,l),
(326,4,l),
(330,16,l),
(358,21,l),
(357,27,l),
(369,34,l),
(383,39,l),
(404,56,l),
(413,70,l),
(424,77,l),
(428,89,l),
(431,109,l),
(434,122,l),
(434,128,l),
(443,147,l),
(453,159,l),
(449,183,l),
(442,205,l),
(448,220,l),
(443,239,l),
(436,246,l),
(431,267,l),
(418,273,l),
(405,292,l),
(394,295,l),
(395,308,l),
(376,313,l),
(366,322,l),
(348,335,l),
(338,341,l),
(318,344,l),
(319,351,l),
(299,362,l),
(314,370,l),
(326,379,l),
(336,387,l),
(352,395,l),
(361,404,l),
(375,409,l),
(393,418,l),
(403,429,l),
(402,445,l),
(415,455,l),
(419,469,l),
(419,480,l),
(419,511,l),
(422,534,l),
(422,548,l),
(417,559,l),
(410,572,l),
(404,590,l),
(388,604,l),
(379,610,l),
(369,628,l),
(356,637,l),
(354,644,l),
(340,647,l),
(317,658,l),
(303,658,l),
(300,669,l),
(277,674,l),
(264,672,l),
(245,673,l),
(224,673,l),
(196,676,l),
(187,673,l),
(166,664,l),
(147,656,l),
(122,647,l),
(112,644,l),
(105,632,l),
(94,628,l),
(75,613,l),
(66,604,l),
(56,585,l),
(58,571,l),
(51,564,l),
(44,545,l),
(42,531,l),
(49,515,l),
(41,480,l),
(38,471,l),
(49,455,l),
(52,438,l),
(59,429,l),
(71,417,l),
(72,407,l),
(91,387,l),
(94,380,l),
(111,376,l),
(127,363,l),
(141,364,l),
(162,351,l),
(145,345,l),
(131,335,l),
(106,331,l),
(98,322,l),
(91,321,l),
(79,311,l),
(65,294,l),
(61,290,l),
(46,280,l),
(40,261,l),
(32,252,l),
(27,238,l),
(19,227,l),
(24,207,l),
(23,182,l),
(15,164,l),
(27,144,l),
(19,129,l),
(32,114,l),
(28,108,l),
(39,86,l),
(43,78,l),
(56,65,l),
(71,51,l),
(74,39,l),
(90,35,l),
(108,22,l),
(108,18,l),
(131,7,l),
(135,3,l),
(160,6,l),
(177,-2,l),
(192,-2,l),
(217,-12,l)
);
},
{
closed = 1;
nodes = (
(205,60,l),
(188,56,l),
(167,67,l),
(150,82,l),
(125,96,l),
(117,113,l),
(117,123,l),
(100,138,l),
(95,161,l),
(96,180,l),
(94,210,l),
(106,224,l),
(103,240,l),
(114,250,l),
(117,262,l),
(119,276,l),
(140,286,l),
(138,296,l),
(159,307,l),
(165,316,l),
(177,319,l),
(196,323,l),
(212,332,l),
(234,327,l),
(237,319,l),
(264,313,l),
(285,308,l),
(294,295,l),
(315,290,l),
(331,268,l),
(339,262,l),
(349,246,l),
(353,235,l),
(366,225,l),
(361,205,l),
(368,181,l),
(371,158,l),
(365,151,l),
(365,129,l),
(346,119,l),
(339,102,l),
(334,93,l),
(314,87,l),
(299,75,l),
(280,66,l),
(245,56,l),
(213,54,l)
);
},
{
closed = 1;
nodes = (
(215,385,l),
(190,397,l),
(185,402,l),
(165,407,l),
(149,419,l),
(128,434,l),
(131,440,l),
(123,454,l),
(110,488,l),
(108,511,l),
(114,526,l),
(116,541,l),
(127,561,l),
(127,573,l),
(136,577,l),
(143,588,l),
(164,605,l),
(183,616,l),
(208,618,l),
(215,613,l),
(241,620,l),
(271,609,l),
(286,610,l),
(311,596,l),
(318,581,l),
(327,568,l),
(341,555,l),
(340,543,l),
(353,514,l),
(351,482,l),
(350,475,l),
(341,454,l),
(338,447,l),
(333,435,l),
(318,422,l),
(305,412,l),
(289,408,l),
(279,398,l),
(243,391,l),
(229,379,l)
);
}
);
width = 468;
}
);
metricLeft = "=|B";
metricRight = "=B";
note = eight;
unicode = 56;
}
{
glyphname = nine;
kernLeft = KO_nine;
kernRight = KO_nine;
layers = (
{
hints = (
{
horizontal = 1;
place = (610,-70);
type = Stem;
},
{
horizontal = 1;
place = (260,-70);
type = Stem;
},
{
horizontal = 1;
place = (-12,-65);
type = Stem;
},
{
place = (523,-117);
type = Stem;
},
{
place = (178,-112);
type = Stem;
}
);
layerId = m005;
shapes = (
{
closed = 1;
nodes = (
(183,-69,l),
(197,-67,l),
(207,-71,l),
(227,-64,l),
(245,-59,l),
(252,-53,l),
(268,-50,l),
(285,-51,l),
(293,-41,l),
(308,-29,l),
(327,-27,l),
(328,-19,l),
(343,-10,l),
(350,1,l),
(364,8,l),
(376,19,l),
(393,34,l),
(394,45,l),
(408,55,l),
(414,64,l),
(416,80,l),
(437,87,l),
(437,102,l),
(451,115,l),
(445,128,l),
(458,147,l),
(455,160,l),
(460,176,l),
(472,191,l),
(476,205,l),
(475,219,l),
(477,233,l),
(492,249,l),
(494,261,l),
(493,270,l),
(491,286,l),
(494,303,l),
(490,320,l),
(486,337,l),
(490,365,l),
(486,384,l),
(484,400,l),
(485,409,l),
(492,426,l),
(479,446,l),
(474,457,l),
(476,467,l),
(475,485,l),
(456,501,l),
(457,514,l),
(443,523,l),
(437,534,l),
(432,547,l),
(411,558,l),
(404,570,l),
(392,571,l),
(383,585,l),
(365,593,l),
(344,603,l),
(326,600,l),
(302,605,l),
(288,610,l),
(275,607,l),
(244,614,l),
(226,613,l),
(219,605,l),
(208,606,l),
(184,602,l),
(174,597,l),
(154,590,l),
(136,582,l),
(116,570,l),
(114,560,l),
(92,547,l),
(78,535,l),
(74,530,l),
(64,517,l),
(64,502,l),
(58,486,l),
(55,473,l),
(49,464,l),
(45,449,l),
(41,429,l),
(34,418,l),
(40,383,l),
(42,366,l),
(42,356,l),
(39,338,l),
(42,322,l),
(46,313,l),
(61,293,l),
(70,281,l),
(73,273,l),
(90,260,l),
(98,246,l),
(99,232,l),
(118,226,l),
(132,222,l),
(136,211,l),
(158,200,l),
(173,202,l),
(188,195,l),
(198,191,l),
(209,194,l),
(232,189,l),
(246,186,l),
(275,191,l),
(292,189,l),
(307,200,l),
(320,201,l),
(332,203,l),
(355,214,l),
(369,219,l),
(378,196,l),
(363,181,l),
(359,164,l),
(360,151,l),
(348,133,l),
(344,120,l),
(341,112,l),
(332,102,l),
(320,90,l),
(307,79,l),
(296,66,l),
(286,52,l),
(269,52,l),
(255,44,l),
(246,32,l),
(230,22,l),
(218,18,l),
(203,15,l),
(186,14,l),
(183,12,l),
(146,10,l),
(130,2,l),
(130,-11,l),
(112,-28,l),
(114,-51,l),
(121,-68,l),
(135,-68,l),
(155,-75,l)
);
},
{
closed = 1;
nodes = (
(226,275,l),
(217,285,l),
(204,290,l),
(190,288,l),
(171,303,l),
(148,323,l),
(146,339,l),
(136,353,l),
(135,367,l),
(138,387,l),
(133,410,l),
(132,431,l),
(140,443,l),
(150,453,l),
(152,465,l),
(162,483,l),
(168,494,l),
(177,503,l),
(197,515,l),
(222,519,l),
(226,526,l),
(250,527,l),
(279,523,l),
(299,522,l),
(310,513,l),
(320,511,l),
(327,500,l),
(340,498,l),
(354,487,l),
(359,467,l),
(373,456,l),
(372,439,l),
(383,429,l),
(390,412,l),
(388,382,l),
(385,366,l),
(391,352,l),
(384,335,l),
(385,319,l),
(361,300,l),
(359,293,l),
(345,286,l),
(327,279,l),
(314,283,l),
(290,275,l),
(278,279,l),
(251,272,l)
);
}
);
width = 541;
},
{
layerId = m002;
shapes = (
{
closed = 1;
nodes = (
(182,-86,l),
(205,-87,l),
(223,-79,l),
(260,-77,l),
(281,-66,l),
(303,-58,l),
(310,-52,l),
(322,-43,l),
(341,-40,l),
(350,-24,l),
(372,-21,l),
(374,-12,l),
(392,-1,l),
(397,13,l),
(409,15,l),
(422,29,l),
(429,38,l),
(437,57,l),
(460,68,l),
(461,76,l),
(471,85,l),
(475,101,l),
(480,116,l),
(497,126,l),
(496,143,l),
(513,156,l),
(509,166,l),
(514,182,l),
(526,197,l),
(527,218,l),
(531,228,l),
(526,244,l),
(535,260,l),
(542,271,l),
(534,292,l),
(538,307,l),
(549,323,l),
(544,334,l),
(537,368,l),
(546,378,l),
(541,392,l),
(532,410,l),
(540,421,l),
(524,439,l),
(531,457,l),
(520,469,l),
(519,486,l),
(510,500,l),
(493,509,l),
(489,526,l),
(475,530,l),
(471,542,l),
(466,557,l),
(454,565,l),
(431,578,l),
(419,583,l),
(401,592,l),
(386,602,l),
(370,610,l),
(360,610,l),
(324,619,l),
(305,626,l),
(284,620,l),
(243,627,l),
(237,620,l),
(221,617,l),
(195,619,l),
(190,617,l),
(166,613,l),
(155,607,l),
(144,607,l),
(123,593,l),
(108,590,l),
(95,581,l),
(72,568,l),
(67,554,l),
(47,549,l),
(45,532,l),
(30,526,l),
(22,510,l),
(9,496,l),
(4,470,l),
(-9,462,l),
(-14,448,l),
(-16,431,l),
(-7,415,l),
(-16,383,l),
(-12,372,l),
(-7,356,l),
(-1,342,l),
(-5,327,l),
(7,307,l),
(3,302,l),
(5,280,l),
(17,270,l),
(28,246,l),
(38,237,l),
(45,218,l),
(62,211,l),
(90,196,l),
(95,186,l),
(107,176,l),
(124,167,l),
(134,163,l),
(155,159,l),
(160,156,l),
(181,147,l),
(186,151,l),
(203,146,l),
(217,141,l),
(233,143,l),
(244,144,l),
(255,135,l),
(268,139,l),
(279,143,l),
(289,141,l),
(281,130,l),
(271,118,l),
(255,107,l),
(241,105,l),
(228,104,l),
(223,104,l),
(206,98,l),
(188,97,l),
(172,92,l),
(159,94,l),
(148,95,l),
(125,88,l),
(100,78,l),
(94,68,l),
(87,52,l),
(78,37,l),
(78,28,l),
(67,6,l),
(72,-18,l),
(78,-33,l),
(74,-44,l),
(83,-64,l),
(93,-74,l),
(118,-86,l),
(144,-89,l)
);
},
{
closed = 1;
nodes = (
(268,324,l),
(258,326,l),
(248,329,l),
(238,330,l),
(229,331,l),
(217,330,l),
(207,329,l),
(196,336,l),
(196,344,l),
(196,350,l),
(194,360,l),
(192,366,l),
(192,381,l),
(192,387,l),
(192,402,l),
(191,412,l),
(196,418,l),
(200,422,l),
(203,426,l),
(210,433,l),
(224,437,l),
(234,436,l),
(248,435,l),
(257,437,l),
(270,440,l),
(283,437,l),
(295,435,l),
(303,431,l),
(307,429,l),
(320,426,l),
(320,414,l),
(328,410,l),
(333,408,l),
(337,399,l),
(341,386,l),
(345,377,l),
(348,370,l),
(353,359,l),
(351,354,l),
(347,345,l),
(343,342,l),
(336,336,l),
(326,327,l),
(316,328,l),
(305,329,l),
(296,323,l),
(282,321,l)
);
}
);
width = 557;
},
{
hints = (
{
horizontal = 1;
place = (610,-70);
type = Stem;
},
{
horizontal = 1;
place = (260,-70);
type = Stem;
},
{
horizontal = 1;
place = (-12,-65);
type = Stem;
},
{
place = (523,-117);
type = Stem;
},
{
place = (178,-112);
type = Stem;
}
);
layerId = m003;
shapes = (
{
closed = 1;
nodes = (
(176,-77,l),
(195,-71,l),
(218,-70,l),
(226,-64,l),
(236,-64,l),
(258,-59,l),
(276,-48,l),
(281,-41,l),
(292,-39,l),
(310,-32,l),
(321,-27,l),
(333,-12,l),
(340,-6,l),
(360,10,l),
(365,12,l),
(381,29,l),
(390,36,l),
(395,50,l),
(399,61,l),
(414,79,l),
(420,89,l),
(434,102,l),
(431,117,l),
(447,130,l),
(450,141,l),
(447,156,l),
(454,173,l),
(466,185,l),
(462,200,l),
(468,213,l),
(476,230,l),
(473,242,l),
(485,262,l),
(477,275,l),
(487,286,l),
(477,308,l),
(488,324,l),
(490,337,l),
(479,361,l),
(485,380,l),
(490,398,l),
(486,414,l),
(473,429,l),
(482,440,l),
(467,458,l),
(470,470,l),
(457,486,l),
(451,498,l),
(453,514,l),
(448,524,l),
(437,531,l),
(420,549,l),
(414,557,l),
(393,573,l),
(387,579,l),
(372,585,l),
(346,593,l),
(332,600,l),
(318,600,l),
(304,602,l),
(292,612,l),
(287,614,l),
(243,613,l),
(231,612,l),
(223,610,l),
(209,608,l),
(190,604,l),
(178,593,l),
(161,588,l),
(151,580,l),
(143,579,l),
(125,569,l),
(115,561,l),
(106,553,l),
(87,540,l),
(81,530,l),
(69,510,l),
(64,497,l),
(61,490,l),
(62,476,l),
(48,456,l),
(55,442,l),
(43,434,l),
(45,413,l),
(54,389,l),
(53,370,l),
(48,357,l),
(52,343,l),
(64,324,l),
(66,309,l),
(70,300,l),
(75,285,l),
(91,266,l),
(103,256,l),
(104,253,l),
(126,239,l),
(126,229,l),
(140,218,l),
(156,214,l),
(172,213,l),
(182,203,l),
(201,200,l),
(223,205,l),
(227,202,l),
(250,195,l),
(271,200,l),
(286,205,l),
(312,205,l),
(322,210,l),
(339,218,l),
(355,220,l),
(369,228,l),
(398,232,l),
(396,205,l),
(383,189,l),
(376,177,l),
(375,159,l),
(372,140,l),
(366,131,l),
(362,114,l),
(347,101,l),
(337,94,l),
(330,77,l),
(316,70,l),
(316,59,l),
(301,41,l),
(287,40,l),
(285,29,l),
(270,22,l),
(247,15,l),
(243,7,l),
(226,2,l),
(217,-7,l),
(191,-11,l),
(182,-5,l),
(151,-12,l),
(143,-23,l),
(129,-37,l),
(136,-62,l),
(142,-72,l),
(148,-79,l)
);
},
{
closed = 1;
nodes = (
(216,275,l),
(194,281,l),
(178,288,l),
(157,311,l),
(146,320,l),
(143,338,l),
(127,355,l),
(130,373,l),
(126,384,l),
(134,414,l),
(124,431,l),
(139,447,l),
(144,472,l),
(156,487,l),
(153,504,l),
(162,508,l),
(180,526,l),
(197,535,l),
(224,539,l),
(257,541,l),
(281,542,l),
(300,543,l),
(316,538,l),
(340,528,l),
(350,519,l),
(354,505,l),
(361,495,l),
(373,488,l),
(384,472,l),
(384,456,l),
(399,443,l),
(397,430,l),
(393,419,l),
(408,386,l),
(406,368,l),
(409,359,l),
(401,346,l),
(394,328,l),
(398,310,l),
(386,286,l),
(369,281,l),
(358,283,l),
(329,274,l),
(310,264,l),
(287,271,l),
(273,262,l),
(255,261,l)
);
}
);
width = 544;
}
);
metricLeft = six;
metricRight = six;
unicode = 57;
}
{
glyphname = greater;
layers = (
{
hints = (
{
horizontal = 1;
place = (30,440);
type = Stem;
},
{
place = (490,90);
type = Stem;
}
);
layerId = m005;
shapes = (
{
closed = 1;
nodes = (
(551,252,l),
(545,263,l),
(538,272,l),
(535,286,l),
(522,294,l),
(503,310,l),
(491,310,l),
(479,317,l),
(461,327,l),
(447,324,l),
(431,333,l),
(414,341,l),
(407,340,l),
(394,346,l),
(373,350,l),
(365,361,l),
(348,367,l),
(339,372,l),
(315,377,l),
(311,383,l),
(290,389,l),
(273,390,l),
(273,401,l),
(249,402,l),
(237,411,l),
(221,419,l),
(208,423,l),
(196,430,l),
(187,439,l),
(171,438,l),
(155,443,l),
(143,453,l),
(124,456,l),
(111,467,l),
(83,474,l),
(79,472,l),
(59,453,l),
(57,434,l),
(63,420,l),
(52,407,l),
(72,386,l),
(76,376,l),
(108,370,l),
(114,365,l),
(133,364,l),
(146,362,l),
(169,353,l),
(179,351,l),
(185,344,l),
(209,340,l),
(214,337,l),
(237,326,l),
(249,323,l),
(266,319,l),
(280,310,l),
(299,304,l),
(312,301,l),
(318,294,l),
(339,288,l),
(350,289,l),
(365,281,l),
(378,278,l),
(395,268,l),
(406,268,l),
(417,266,l),
(447,253,l),
(420,241,l),
(410,242,l),
(389,236,l),
(384,234,l),
(369,230,l),
(352,219,l),
(336,216,l),
(323,212,l),
(310,205,l),
(289,204,l),
(277,202,l),
(258,197,l),
(251,185,l),
(236,189,l),
(227,180,l),
(205,176,l),
(187,173,l),
(173,160,l),
(162,156,l),
(144,155,l),
(141,147,l),
(128,145,l),
(89,134,l),
(63,118,l),
(63,112,l),
(46,100,l),
(52,76,l),
(51,52,l),
(59,38,l),
(62,27,l),
(88,27,l),
(93,23,l),
(121,30,l),
(143,40,l),
(159,45,l),
(162,57,l),
(182,57,l),
(194,67,l),
(203,72,l),
(228,82,l),
(242,86,l),
(253,87,l),
(265,94,l),
(283,107,l),
(297,104,l),
(311,112,l),
(323,124,l),
(331,124,l),
(351,128,l),
(355,141,l),
(370,142,l),
(396,144,l),
(408,154,l),
(424,155,l),
(431,162,l),
(445,172,l),
(460,173,l),
(480,184,l),
(481,184,l),
(499,186,l),
(525,204,l),
(540,217,l),
(540,229,l)
);
}
);
width = 600;
},
{
hints = (
{
horizontal = 1;
place = (30,440);
type = Stem;
},
{
place = (490,90);
type = Stem;
}
);
layerId = m002;
shapes = (
{
closed = 1;
nodes = (
(573,242,l),
(570,264,l),
(572,272,l),
(569,292,l),
(560,297,l),
(549,310,l),
(541,324,l),
(515,330,l),
(495,333,l),
(481,346,l),
(472,345,l),
(450,355,l),
(438,356,l),
(422,365,l),
(421,363,l),
(405,377,l),
(388,376,l),
(379,386,l),
(351,388,l),
(344,389,l),
(334,397,l),
(318,406,l),
(308,411,l),
(295,419,l),
(280,423,l),
(258,429,l),
(246,430,l),
(229,439,l),
(216,444,l),
(209,451,l),
(197,455,l),
(174,459,l),
(166,470,l),
(152,475,l),
(142,485,l),
(133,490,l),
(94,502,l),
(86,502,l),
(73,499,l),
(59,484,l),
(56,479,l),
(38,464,l),
(43,451,l),
(28,440,l),
(40,420,l),
(35,403,l),
(37,392,l),
(46,374,l),
(58,366,l),
(65,355,l),
(100,342,l),
(111,346,l),
(119,340,l),
(135,333,l),
(151,327,l),
(175,329,l),
(185,317,l),
(200,321,l),
(217,313,l),
(224,309,l),
(237,297,l),
(260,300,l),
(261,288,l),
(282,289,l),
(292,278,l),
(314,277,l),
(320,271,l),
(330,265,l),
(359,250,l),
(333,248,l),
(323,238,l),
(313,235,l),
(298,229,l),
(281,226,l),
(269,219,l),
(258,213,l),
(244,216,l),
(227,207,l),
(207,203,l),
(197,193,l),
(188,193,l),
(167,186,l),
(148,181,l),
(132,177,l),
(120,166,l),
(105,163,l),
(92,160,l),
(81,153,l),
(55,141,l),
(38,130,l),
(40,124,l),
(30,109,l),
(22,97,l),
(27,80,l),
(19,59,l),
(31,43,l),
(39,25,l),
(48,19,l),
(57,4,l),
(69,-2,l),
(85,-5,l),
(93,-1,l),
(117,-2,l),
(132,6,l),
(158,16,l),
(170,27,l),
(171,33,l),
(192,40,l),
(204,42,l),
(220,44,l),
(236,60,l),
(248,61,l),
(253,67,l),
(280,74,l),
(286,84,l),
(316,90,l),
(334,96,l),
(340,107,l),
(364,118,l),
(391,120,l),
(444,146,l),
(451,143,l),
(472,153,l),
(487,161,l),
(504,163,l),
(532,177,l),
(555,191,l),
(560,210,l),
(564,225,l)
);
}
);
width = 600;
},
{
hints = (
{
horizontal = 1;
place = (30,440);
type = Stem;
},
{
place = (490,90);
type = Stem;
}
);
layerId = m003;
shapes = (
{
closed = 1;
nodes = (
(533,246,l),
(532,261,l),
(536,280,l),
(524,284,l),
(500,296,l),
(478,309,l),
(478,311,l),
(463,316,l),
(441,315,l),
(434,328,l),
(412,326,l),
(404,334,l),
(386,341,l),
(370,349,l),
(356,354,l),
(348,355,l),
(338,358,l),
(319,364,l),
(307,376,l),
(288,379,l),
(272,382,l),
(255,391,l),
(254,391,l),
(238,400,l),
(224,403,l),
(208,415,l),
(191,415,l),
(187,422,l),
(171,436,l),
(146,441,l),
(143,447,l),
(120,454,l),
(110,459,l),
(87,460,l),
(78,452,l),
(74,438,l),
(75,420,l),
(63,406,l),
(80,387,l),
(99,381,l),
(125,376,l),
(131,370,l),
(153,367,l),
(170,362,l),
(176,363,l),
(189,349,l),
(225,348,l),
(237,337,l),
(248,337,l),
(268,332,l),
(280,327,l),
(299,317,l),
(306,317,l),
(327,309,l),
(331,298,l),
(356,302,l),
(366,295,l),
(386,285,l),
(394,286,l),
(402,276,l),
(418,276,l),
(435,263,l),
(448,259,l),
(467,262,l),
(492,248,l),
(459,241,l),
(446,236,l),
(444,237,l),
(418,234,l),
(405,232,l),
(372,218,l),
(358,216,l),
(343,215,l),
(329,212,l),
(325,206,l),
(308,199,l),
(291,198,l),
(285,191,l),
(268,189,l),
(244,175,l),
(240,173,l),
(230,169,l),
(212,169,l),
(200,162,l),
(188,151,l),
(168,154,l),
(155,140,l),
(144,136,l),
(128,131,l),
(115,130,l),
(104,119,l),
(67,113,l),
(60,94,l),
(61,76,l),
(67,58,l),
(64,48,l),
(78,30,l),
(98,30,l),
(120,37,l),
(129,44,l),
(156,56,l),
(158,65,l),
(172,72,l),
(186,79,l),
(208,81,l),
(212,84,l),
(226,91,l),
(246,95,l),
(253,110,l),
(276,108,l),
(293,113,l),
(302,127,l),
(309,125,l),
(334,133,l),
(347,140,l),
(359,148,l),
(369,153,l),
(388,153,l),
(396,166,l),
(411,173,l),
(429,177,l),
(437,176,l),
(460,185,l),
(466,193,l),
(480,197,l),
(494,202,l),
(510,208,l),
(528,215,l),
(528,228,l)
);
}
);
width = 600;
}
);
note = greater;
unicode = 62;
userData = {
KernOnSpecialSpacing = {
L = math;
R = math;
};
};
}
{
glyphname = question;
kernLeft = KO_question;
layers = (
{
hints = (
{
horizontal = 1;
place = (-5,120);
type = Stem;
},
{
horizontal = 1;
place = (597,70);
type = Stem;
},
{
place = (188,93);
type = Stem;
},
{
place = (313,100);
type = Stem;
},
{
place = (178,120);
type = Stem;
},
{
horizontal = 1;
place = (-10,85);
type = Stem;
},
{
horizontal = 1;
place = (597,80);
type = Stem;
},
{
place = (41,90);
type = Stem;
},
{
place = (331,110);
type = Stem;
}
);
layerId = m005;
shapes = (
{
closed = 1;
nodes = (
(138,230,l),
(176,231,l),
(180,237,l),
(198,236,l),
(210,248,l),
(206,280,l),
(207,295,l),
(205,306,l),
(226,318,l),
(230,335,l),
(248,345,l),
(270,356,l),
(278,370,l),
(281,372,l),
(293,390,l),
(304,398,l),
(319,414,l),
(320,426,l),
(323,444,l),
(320,456,l),
(324,466,l),
(335,487,l),
(334,510,l),
(337,533,l),
(322,541,l),
(321,555,l),
(313,574,l),
(309,587,l),
(311,600,l),
(304,612,l),
(282,623,l),
(277,632,l),
(261,643,l),
(256,655,l),
(239,656,l),
(228,666,l),
(207,672,l),
(198,671,l),
(183,677,l),
(166,678,l),
(143,675,l),
(121,678,l),
(103,676,l),
(86,666,l),
(69,657,l),
(45,649,l),
(20,635,l),
(20,625,l),
(17,608,l),
(19,592,l),
(35,574,l),
(52,569,l),
(62,566,l),
(81,574,l),
(91,578,l),
(116,589,l),
(144,594,l),
(175,596,l),
(195,590,l),
(214,576,l),
(226,571,l),
(236,560,l),
(235,539,l),
(244,529,l),
(244,514,l),
(247,488,l),
(240,470,l),
(235,451,l),
(231,446,l),
(218,430,l),
(210,425,l),
(190,414,l),
(177,405,l),
(168,395,l),
(148,379,l),
(128,363,l),
(130,349,l),
(116,334,l),
(113,324,l),
(109,303,l),
(109,288,l),
(107,276,l),
(116,246,l),
(120,232,l)
);
},
{
pos = (45,0);
ref = period;
}
);
width = 354;
},
{
hints = (
{
horizontal = 1;
place = (-5,120);
type = Stem;
},
{
horizontal = 1;
place = (597,70);
type = Stem;
},
{
place = (188,93);
type = Stem;
},
{
place = (313,100);
type = Stem;
},
{
place = (178,120);
type = Stem;
},
{
horizontal = 1;
place = (-10,85);
type = Stem;
},
{
horizontal = 1;
place = (597,80);
type = Stem;
},
{
place = (41,90);
type = Stem;
},
{
place = (331,110);
type = Stem;
}
);
layerId = m002;
shapes = (
{
closed = 1;
nodes = (
(159,218,l),
(183,211,l),
(207,206,l),
(218,209,l),
(229,222,l),
(248,224,l),
(263,237,l),
(279,255,l),
(286,270,l),
(287,286,l),
(285,312,l),
(294,328,l),
(313,342,l),
(334,345,l),
(350,358,l),
(360,370,l),
(376,376,l),
(378,390,l),
(395,399,l),
(400,407,l),
(403,425,l),
(416,458,l),
(419,470,l),
(410,487,l),
(420,517,l),
(410,545,l),
(409,560,l),
(397,573,l),
(399,580,l),
(391,593,l),
(377,612,l),
(368,623,l),
(351,628,l),
(331,645,l),
(319,653,l),
(314,665,l),
(293,673,l),
(251,683,l),
(218,694,l),
(200,690,l),
(179,691,l),
(164,695,l),
(147,693,l),
(131,684,l),
(121,687,l),
(93,678,l),
(75,664,l),
(36,650,l),
(15,632,l),
(11,607,l),
(1,594,l),
(-8,562,l),
(-2,532,l),
(17,520,l),
(35,503,l),
(65,487,l),
(81,483,l),
(103,478,l),
(126,487,l),
(140,492,l),
(154,492,l),
(165,502,l),
(188,508,l),
(202,510,l),
(224,507,l),
(227,494,l),
(231,475,l),
(212,464,l),
(203,448,l),
(188,444,l),
(169,438,l),
(157,427,l),
(143,414,l),
(138,407,l),
(121,393,l),
(106,373,l),
(99,356,l),
(105,340,l),
(92,327,l),
(101,312,l),
(103,277,l),
(108,262,l),
(107,247,l),
(135,224,l)
);
},
{
pos = (83,0);
ref = period;
}
);
width = 412;
},
{
hints = (
{
horizontal = 1;
place = (-5,120);
type = Stem;
},
{
horizontal = 1;
place = (597,70);
type = Stem;
},
{
place = (188,93);
type = Stem;
},
{
place = (313,100);
type = Stem;
},
{
place = (178,120);
type = Stem;
},
{
horizontal = 1;
place = (-10,85);
type = Stem;
},
{
horizontal = 1;
place = (597,80);
type = Stem;
},
{
place = (41,90);
type = Stem;
},
{
place = (331,110);
type = Stem;
}
);
layerId = m003;
shapes = (
{
closed = 1;
nodes = (
(163,231,l),
(180,237,l),
(186,242,l),
(193,268,l),
(194,286,l),
(193,301,l),
(208,318,l),
(212,327,l),
(227,340,l),
(240,354,l),
(265,367,l),
(270,377,l),
(276,389,l),
(291,394,l),
(298,413,l),
(305,421,l),
(308,441,l),
(322,453,l),
(322,471,l),
(317,485,l),
(326,510,l),
(319,529,l),
(319,542,l),
(314,565,l),
(307,578,l),
(299,590,l),
(290,603,l),
(287,614,l),
(283,629,l),
(272,637,l),
(263,650,l),
(238,656,l),
(236,660,l),
(207,670,l),
(204,669,l),
(180,676,l),
(171,677,l),
(131,675,l),
(130,679,l),
(115,669,l),
(95,673,l),
(79,668,l),
(62,665,l),
(25,640,l),
(23,621,l),
(21,605,l),
(38,587,l),
(56,590,l),
(60,585,l),
(92,592,l),
(94,602,l),
(115,606,l),
(119,609,l),
(141,615,l),
(174,612,l),
(183,609,l),
(191,611,l),
(212,606,l),
(217,596,l),
(227,584,l),
(234,568,l),
(241,559,l),
(247,538,l),
(245,525,l),
(254,518,l),
(253,487,l),
(251,473,l),
(249,458,l),
(235,444,l),
(231,429,l),
(211,421,l),
(196,402,l),
(185,396,l),
(179,385,l),
(146,366,l),
(136,353,l),
(133,339,l),
(133,326,l),
(117,317,l),
(116,296,l),
(127,277,l),
(120,264,l),
(119,234,l),
(134,230,l)
);
},
{
pos = (47,0);
ref = period;
}
);
width = 347;
}
);
metricLeft = "=S";
metricRight = "=|S";
note = question;
unicode = 63;
userData = {
KernOnSpecialSpacing = {
L = "spaced-off";
};
};
}
{
glyphname = A;
kernLeft = KO_A;
kernRight = KO_A;
layers = (
{
anchors = (
{
name = bottom;
pos = (275,0);
},
{
name = ogonek;
pos = (495,10);
},
{
name = top;
pos = (275,625);
}
);
hints = (
{
horizontal = 1;
place = (0,21);
target = up;
type = BottomGhost;
},
{
horizontal = 1;
place = (150,75);
type = Stem;
},
{
horizontal = 1;
place = (557,110);
type = Stem;
},
{
place = (12,516);
type = Stem;
}
);
layerId = m005;
shapes = (
{
closed = 1;
nodes = (
(102,2,l),
(114,7,l),
(121,25,l),
(131,37,l),
(139,62,l),
(138,73,l),
(150,92,l),
(146,106,l),
(146,118,l),
(156,145,l),
(178,144,l),
(193,141,l),
(206,144,l),
(229,146,l),
(234,149,l),
(257,145,l),
(266,148,l),
(278,142,l),
(291,148,l),
(316,148,l),
(321,148,l),
(335,144,l),
(357,143,l),
(372,142,l),
(396,143,l),
(403,123,l),
(398,112,l),
(401,90,l),
(409,79,l),
(409,45,l),
(416,37,l),
(434,26,l),
(438,12,l),
(445,5,l),
(469,1,l),
(491,4,l),
(506,2,l),
(508,19,l),
(514,26,l),
(528,40,l),
(517,70,l),
(504,87,l),
(501,101,l),
(501,115,l),
(506,128,l),
(502,142,l),
(496,165,l),
(492,179,l),
(492,191,l),
(474,208,l),
(475,222,l),
(477,232,l),
(475,252,l),
(465,259,l),
(458,274,l),
(461,292,l),
(447,301,l),
(450,320,l),
(444,330,l),
(442,350,l),
(439,367,l),
(430,376,l),
(423,388,l),
(426,407,l),
(410,415,l),
(405,430,l),
(403,447,l),
(408,458,l),
(391,482,l),
(393,491,l),
(385,510,l),
(379,522,l),
(373,531,l),
(376,546,l),
(372,561,l),
(365,580,l),
(358,587,l),
(355,604,l),
(345,621,l),
(338,642,l),
(319,659,l),
(309,670,l),
(298,675,l),
(288,677,l),
(260,676,l),
(250,677,l),
(242,664,l),
(223,656,l),
(222,650,l),
(205,621,l),
(204,601,l),
(186,593,l),
(189,564,l),
(185,548,l),
(173,539,l),
(174,516,l),
(166,507,l),
(158,488,l),
(157,478,l),
(149,462,l),
(145,450,l),
(137,432,l),
(137,425,l),
(134,410,l),
(127,392,l),
(127,380,l),
(116,362,l),
(117,352,l),
(104,338,l),
(102,311,l),
(89,294,l),
(96,280,l),
(92,267,l),
(81,251,l),
(67,233,l),
(59,231,l),
(44,228,l),
(26,225,l),
(6,214,l),
(0,208,l),
(1,187,l),
(-4,171,l),
(3,159,l),
(7,142,l),
(16,143,l),
(26,140,l),
(38,141,l),
(41,137,l),
(39,110,l),
(34,102,l),
(40,90,l),
(27,70,l),
(24,39,l),
(25,24,l),
(31,14,l),
(44,3,l),
(63,-2,l),
(93,-3,l)
);
},
{
closed = 1;
nodes = (
(174,227,l),
(179,248,l),
(186,271,l),
(191,291,l),
(201,308,l),
(199,323,l),
(201,342,l),
(199,357,l),
(206,372,l),
(211,386,l),
(211,400,l),
(218,413,l),
(222,423,l),
(233,443,l),
(244,468,l),
(243,480,l),
(251,494,l),
(250,509,l),
(259,522,l),
(266,537,l),
(271,559,l),
(294,532,l),
(290,520,l),
(290,508,l),
(297,489,l),
(308,477,l),
(308,469,l),
(322,446,l),
(326,436,l),
(330,419,l),
(335,407,l),
(338,388,l),
(334,380,l),
(345,364,l),
(351,351,l),
(349,323,l),
(350,308,l),
(357,290,l),
(360,277,l),
(362,263,l),
(374,239,l),
(345,234,l),
(322,229,l),
(309,234,l),
(282,225,l),
(255,231,l),
(246,226,l),
(228,226,l),
(210,229,l),
(195,225,l)
);
}
);
width = 550;
},
{
anchors = (
{
name = bottom;
pos = (325,0);
},
{
name = ogonek;
pos = (545,10);
},
{
name = top;
pos = (325,625);
}
);
hints = (
{
horizontal = 1;
place = (0,21);
target = up;
type = BottomGhost;
},
{
horizontal = 1;
place = (150,75);
type = Stem;
},
{
horizontal = 1;
place = (557,110);
type = Stem;
},
{
place = (12,516);
type = Stem;
}
);
layerId = m002;
shapes = (
{
closed = 1;
nodes = (
(153,-19,l),
(169,-20,l),
(204,-5,l),
(209,8,l),
(222,24,l),
(228,38,l),
(238,44,l),
(237,66,l),
(242,88,l),
(258,92,l),
(272,95,l),
(286,98,l),
(293,95,l),
(301,92,l),
(312,92,l),
(324,93,l),
(332,94,l),
(342,96,l),
(352,97,l),
(363,98,l),
(373,97,l),
(384,95,l),
(393,96,l),
(404,97,l),
(413,84,l),
(418,64,l),
(427,37,l),
(436,24,l),
(437,11,l),
(451,-4,l),
(490,-19,l),
(517,-20,l),
(542,-26,l),
(557,-19,l),
(583,-11,l),
(592,4,l),
(613,20,l),
(624,41,l),
(614,50,l),
(617,65,l),
(619,78,l),
(614,106,l),
(603,125,l),
(612,137,l),
(607,156,l),
(605,169,l),
(587,180,l),
(591,194,l),
(581,211,l),
(574,223,l),
(577,241,l),
(568,253,l),
(569,265,l),
(565,279,l),
(561,294,l),
(553,321,l),
(538,337,l),
(531,347,l),
(538,365,l),
(523,376,l),
(517,398,l),
(520,408,l),
(511,425,l),
(509,436,l),
(496,445,l),
(503,458,l),
(485,477,l),
(492,489,l),
(475,501,l),
(475,516,l),
(472,533,l),
(464,545,l),
(460,562,l),
(450,578,l),
(451,586,l),
(445,601,l),
(432,631,l),
(422,643,l),
(411,659,l),
(388,676,l),
(381,679,l),
(365,686,l),
(351,685,l),
(333,693,l),
(314,686,l),
(298,686,l),
(282,686,l),
(263,678,l),
(259,671,l),
(240,666,l),
(237,651,l),
(229,637,l),
(219,627,l),
(207,600,l),
(200,587,l),
(191,568,l),
(185,560,l),
(185,535,l),
(170,517,l),
(167,503,l),
(157,492,l),
(150,480,l),
(146,463,l),
(148,444,l),
(134,434,l),
(141,416,l),
(126,403,l),
(124,391,l),
(125,376,l),
(119,366,l),
(114,348,l),
(105,332,l),
(106,321,l),
(93,288,l),
(66,278,l),
(57,271,l),
(31,267,l),
(20,249,l),
(8,228,l),
(1,216,l),
(3,200,l),
(-6,184,l),
(-4,169,l),
(-3,149,l),
(6,137,l),
(21,125,l),
(33,111,l),
(33,98,l),
(27,82,l),
(31,68,l),
(30,47,l),
(31,31,l),
(39,10,l),
(56,1,l),
(71,-14,l),
(95,-17,l),
(115,-28,l),
(141,-29,l)
);
},
{
closed = 1;
nodes = (
(310,280,l),
(303,283,l),
(295,286,l),
(291,288,l),
(293,295,l),
(294,303,l),
(294,308,l),
(295,317,l),
(296,326,l),
(300,332,l),
(303,338,l),
(305,342,l),
(303,350,l),
(304,356,l),
(304,360,l),
(305,364,l),
(310,370,l),
(314,374,l),
(318,378,l),
(321,381,l),
(324,384,l),
(326,379,l),
(327,375,l),
(329,370,l),
(331,367,l),
(333,361,l),
(336,358,l),
(338,356,l),
(342,352,l),
(342,348,l),
(341,343,l),
(341,339,l),
(343,335,l),
(346,331,l),
(348,327,l),
(350,324,l),
(353,320,l),
(353,313,l),
(353,308,l),
(353,302,l),
(353,296,l),
(353,291,l),
(353,287,l),
(347,286,l),
(343,285,l),
(336,283,l),
(330,281,l),
(326,280,l),
(322,279,l),
(317,277,l)
);
}
);
width = 622;
},
{
anchors = (
{
name = bottom;
pos = (275,0);
},
{
name = ogonek;
pos = (495,10);
},
{
name = top;
pos = (275,625);
}
);
hints = (
{
horizontal = 1;
place = (0,21);
target = up;
type = BottomGhost;
},
{
horizontal = 1;
place = (150,75);
type = Stem;
},
{
horizontal = 1;
place = (557,110);
type = Stem;
},
{
place = (12,516);
type = Stem;
}
);
layerId = m003;
shapes = (
{
closed = 1;
nodes = (
(94,0,l),
(107,9,l),
(118,13,l),
(121,30,l),
(130,52,l),
(135,70,l),
(133,84,l),
(134,96,l),
(133,119,l),
(148,134,l),
(145,155,l),
(170,153,l),
(191,156,l),
(203,155,l),
(210,151,l),
(227,155,l),
(238,153,l),
(252,157,l),
(269,153,l),
(294,153,l),
(306,160,l),
(324,154,l),
(334,156,l),
(352,161,l),
(361,159,l),
(386,159,l),
(400,151,l),
(401,132,l),
(414,125,l),
(408,112,l),
(415,96,l),
(418,84,l),
(415,72,l),
(421,59,l),
(423,42,l),
(431,23,l),
(431,18,l),
(445,1,l),
(465,1,l),
(498,5,l),
(498,10,l),
(506,19,l),
(507,36,l),
(506,59,l),
(497,78,l),
(498,91,l),
(497,103,l),
(486,116,l),
(482,132,l),
(482,153,l),
(474,164,l),
(469,175,l),
(465,191,l),
(467,202,l),
(462,224,l),
(459,231,l),
(458,254,l),
(445,267,l),
(444,277,l),
(447,289,l),
(433,308,l),
(428,326,l),
(434,340,l),
(420,350,l),
(423,364,l),
(414,380,l),
(411,395,l),
(415,411,l),
(399,420,l),
(407,438,l),
(391,449,l),
(384,465,l),
(392,478,l),
(382,493,l),
(371,508,l),
(368,527,l),
(367,541,l),
(359,551,l),
(364,570,l),
(349,591,l),
(344,607,l),
(343,617,l),
(320,645,l),
(321,661,l),
(305,671,l),
(290,673,l),
(265,669,l),
(246,668,l),
(236,661,l),
(219,652,l),
(207,622,l),
(208,609,l),
(205,597,l),
(192,583,l),
(191,563,l),
(191,550,l),
(178,533,l),
(179,520,l),
(169,510,l),
(169,491,l),
(161,482,l),
(155,470,l),
(161,454,l),
(155,437,l),
(149,425,l),
(145,413,l),
(135,392,l),
(136,376,l),
(130,365,l),
(125,351,l),
(122,333,l),
(109,322,l),
(110,314,l),
(111,296,l),
(101,281,l),
(105,262,l),
(100,255,l),
(88,234,l),
(83,219,l),
(70,219,l),
(46,221,l),
(23,214,l),
(18,204,l),
(17,185,l),
(13,172,l),
(10,161,l),
(23,149,l),
(43,143,l),
(60,151,l),
(55,129,l),
(60,112,l),
(58,89,l),
(51,78,l),
(44,61,l),
(43,29,l),
(36,16,l),
(47,2,l),
(59,0,l)
);
},
{
closed = 1;
nodes = (
(170,217,l),
(164,242,l),
(177,271,l),
(176,287,l),
(189,313,l),
(193,329,l),
(199,340,l),
(199,355,l),
(204,378,l),
(207,406,l),
(218,418,l),
(210,429,l),
(215,450,l),
(230,458,l),
(235,479,l),
(231,489,l),
(246,536,l),
(254,545,l),
(254,563,l),
(275,598,l),
(287,558,l),
(288,547,l),
(302,530,l),
(301,515,l),
(316,509,l),
(308,495,l),
(312,472,l),
(327,463,l),
(320,446,l),
(335,436,l),
(339,420,l),
(337,391,l),
(349,380,l),
(345,365,l),
(351,349,l),
(355,332,l),
(370,300,l),
(362,294,l),
(369,273,l),
(387,251,l),
(383,227,l),
(369,222,l),
(343,221,l),
(318,218,l),
(299,224,l),
(288,220,l),
(253,221,l),
(242,218,l),
(224,222,l),
(204,216,l)
);
}
);
width = 550;
}
);
note = A;
unicode = 65;
userData = {
KernOnName = A;
};
}
{
glyphname = B;
kernLeft = KO_B;
kernRight = KO_B;
layers = (
{
hints = (
{
horizontal = 1;
place = (0,21);
target = up;
type = BottomGhost;
},
{
horizontal = 1;
place = (282,67);
type = Stem;
},
{
horizontal = 1;
place = (598,69);
type = Stem;
},
{
place = (70,100);
type = Stem;
},
{
place = (406,99);
type = Stem;
}
);
layerId = m005;
shapes = (
{
closed = 1;
nodes = (
(204,-4,l),
(224,-2,l),
(226,0,l),
(247,3,l),
(258,0,l),
(288,0,l),
(313,3,l),
(323,2,l),
(343,1,l),
(353,10,l),
(361,4,l),
(376,11,l),
(393,13,l),
(413,19,l),
(432,25,l),
(439,30,l),
(451,39,l),
(471,51,l),
(478,52,l),
(485,70,l),
(502,75,l),
(506,87,l),
(522,101,l),
(528,120,l),
(522,132,l),
(522,149,l),
(535,157,l),
(527,174,l),
(536,208,l),
(519,223,l),
(517,236,l),
(514,254,l),
(508,258,l),
(509,277,l),
(501,291,l),
(485,304,l),
(482,308,l),
(458,316,l),
(446,325,l),
(425,343,l),
(451,352,l),
(465,361,l),
(475,370,l),
(478,389,l),
(494,401,l),
(506,409,l),
(508,422,l),
(506,434,l),
(515,451,l),
(515,471,l),
(508,497,l),
(507,510,l),
(514,533,l),
(504,543,l),
(505,558,l),
(501,566,l),
(496,588,l),
(487,594,l),
(468,604,l),
(461,614,l),
(445,627,l),
(438,638,l),
(417,648,l),
(413,648,l),
(400,657,l),
(383,661,l),
(360,667,l),
(354,672,l),
(339,676,l),
(323,676,l),
(292,678,l),
(259,674,l),
(250,679,l),
(232,676,l),
(217,677,l),
(198,676,l),
(191,677,l),
(179,679,l),
(164,677,l),
(144,669,l),
(127,673,l),
(107,666,l),
(97,667,l),
(77,664,l),
(59,666,l),
(49,652,l),
(26,646,l),
(19,638,l),
(26,624,l),
(27,591,l),
(35,584,l),
(63,578,l),
(77,558,l),
(81,542,l),
(78,533,l),
(77,513,l),
(85,500,l),
(87,490,l),
(77,472,l),
(78,453,l),
(76,442,l),
(87,421,l),
(85,407,l),
(88,391,l),
(83,380,l),
(74,364,l),
(82,355,l),
(76,335,l),
(81,317,l),
(73,309,l),
(81,288,l),
(81,277,l),
(75,260,l),
(78,244,l),
(79,234,l),
(72,211,l),
(80,200,l),
(77,183,l),
(72,168,l),
(78,152,l),
(82,136,l),
(74,127,l),
(79,109,l),
(70,96,l),
(74,75,l),
(64,67,l),
(67,36,l),
(82,24,l),
(91,12,l),
(105,7,l),
(122,4,l),
(150,4,l),
(166,4,l),
(172,-4,l)
);
},
{
closed = 1;
nodes = (
(310,91,l),
(262,89,l),
(229,89,l),
(218,92,l),
(203,89,l),
(190,89,l),
(179,112,l),
(174,127,l),
(187,159,l),
(188,173,l),
(181,183,l),
(182,200,l),
(186,214,l),
(174,231,l),
(186,245,l),
(186,264,l),
(180,276,l),
(179,294,l),
(207,304,l),
(220,300,l),
(238,295,l),
(248,301,l),
(290,299,l),
(306,301,l),
(318,294,l),
(349,292,l),
(366,284,l),
(387,275,l),
(398,270,l),
(402,256,l),
(416,249,l),
(426,237,l),
(427,223,l),
(431,208,l),
(424,179,l),
(426,161,l),
(430,147,l),
(419,132,l),
(408,118,l),
(396,108,l),
(387,107,l),
(354,99,l),
(332,97,l),
(317,88,l)
);
},
{
closed = 1;
nodes = (
(247,383,l),
(240,377,l),
(215,376,l),
(210,384,l),
(187,378,l),
(182,401,l),
(178,423,l),
(178,434,l),
(174,467,l),
(178,486,l),
(169,496,l),
(177,515,l),
(170,531,l),
(174,541,l),
(167,562,l),
(178,584,l),
(198,583,l),
(217,586,l),
(229,582,l),
(250,588,l),
(255,583,l),
(285,585,l),
(311,582,l),
(333,580,l),
(349,574,l),
(367,570,l),
(384,564,l),
(398,552,l),
(401,544,l),
(408,515,l),
(420,501,l),
(416,468,l),
(416,458,l),
(402,437,l),
(407,427,l),
(393,416,l),
(385,403,l),
(373,396,l),
(355,393,l),
(329,380,l),
(312,382,l),
(291,376,l),
(258,375,l)
);
}
);
width = 548;
},
{
hints = (
{
horizontal = 1;
place = (0,21);
target = up;
type = BottomGhost;
},
{
horizontal = 1;
place = (282,67);
type = Stem;
},
{
horizontal = 1;
place = (598,69);
type = Stem;
},
{
place = (70,100);
type = Stem;
},
{
place = (406,99);
type = Stem;
}
);
layerId = m002;
shapes = (
{
closed = 1;
nodes = (
(259,-12,l),
(269,-18,l),
(290,-15,l),
(304,-17,l),
(322,-12,l),
(353,-13,l),
(360,-10,l),
(379,-9,l),
(398,-9,l),
(411,-13,l),
(417,-7,l),
(440,-1,l),
(449,-2,l),
(471,4,l),
(476,8,l),
(494,10,l),
(516,16,l),
(524,27,l),
(538,26,l),
(545,40,l),
(561,48,l),
(569,58,l),
(585,65,l),
(596,75,l),
(609,99,l),
(613,115,l),
(631,125,l),
(632,142,l),
(628,159,l),
(638,167,l),
(640,188,l),
(637,196,l),
(646,215,l),
(640,244,l),
(637,257,l),
(624,287,l),
(618,303,l),
(598,324,l),
(590,337,l),
(585,349,l),
(597,368,l),
(612,393,l),
(614,410,l),
(624,431,l),
(630,459,l),
(618,474,l),
(625,489,l),
(611,508,l),
(615,524,l),
(606,540,l),
(595,547,l),
(590,562,l),
(587,577,l),
(571,583,l),
(571,600,l),
(552,611,l),
(551,616,l),
(538,631,l),
(524,640,l),
(505,640,l),
(497,650,l),
(481,660,l),
(464,664,l),
(450,662,l),
(441,667,l),
(422,669,l),
(409,671,l),
(398,675,l),
(364,683,l),
(346,677,l),
(316,682,l),
(309,686,l),
(284,680,l),
(277,679,l),
(266,677,l),
(241,681,l),
(223,678,l),
(219,679,l),
(198,680,l),
(183,679,l),
(172,679,l),
(158,676,l),
(144,673,l),
(127,672,l),
(110,673,l),
(86,664,l),
(64,661,l),
(48,651,l),
(40,625,l),
(22,606,l),
(24,591,l),
(28,562,l),
(46,545,l),
(43,534,l),
(69,527,l),
(73,515,l),
(86,497,l),
(90,473,l),
(87,447,l),
(82,417,l),
(93,406,l),
(85,392,l),
(81,376,l),
(92,354,l),
(86,340,l),
(93,325,l),
(87,315,l),
(87,295,l),
(87,286,l),
(82,263,l),
(80,249,l),
(82,239,l),
(82,217,l),
(76,211,l),
(87,192,l),
(81,174,l),
(89,159,l),
(80,145,l),
(84,133,l),
(73,116,l),
(76,103,l),
(79,74,l),
(87,60,l),
(81,37,l),
(99,29,l),
(107,18,l),
(116,3,l),
(133,4,l),
(148,-9,l),
(159,-7,l),
(179,-12,l),
(201,-18,l),
(232,-18,l),
(242,-19,l)
);
},
{
closed = 1;
nodes = (
(337,158,l),
(325,159,l),
(314,160,l),
(308,162,l),
(301,172,l),
(298,177,l),
(293,185,l),
(288,194,l),
(283,203,l),
(287,213,l),
(290,220,l),
(295,232,l),
(295,240,l),
(294,248,l),
(306,257,l),
(314,264,l),
(322,270,l),
(332,270,l),
(346,269,l),
(356,271,l),
(365,270,l),
(376,269,l),
(389,267,l),
(395,262,l),
(400,258,l),
(411,258,l),
(422,258,l),
(424,252,l),
(428,240,l),
(432,236,l),
(439,230,l),
(440,222,l),
(442,210,l),
(443,201,l),
(433,189,l),
(425,182,l),
(420,177,l),
(412,169,l),
(400,161,l),
(391,160,l),
(383,159,l),
(372,158,l),
(365,157,l),
(351,157,l)
);
},
{
closed = 1;
nodes = (
(335,409,l),
(321,411,l),
(306,410,l),
(300,418,l),
(296,424,l),
(288,430,l),
(287,440,l),
(287,447,l),
(287,453,l),
(287,462,l),
(287,468,l),
(285,480,l),
(283,488,l),
(280,499,l),
(287,505,l),
(291,509,l),
(297,512,l),
(308,516,l),
(318,518,l),
(326,520,l),
(335,523,l),
(348,522,l),
(356,521,l),
(369,519,l),
(379,517,l),
(385,516,l),
(392,514,l),
(406,511,l),
(412,503,l),
(418,496,l),
(423,483,l),
(422,475,l),
(421,464,l),
(419,453,l),
(418,445,l),
(419,436,l),
(408,431,l),
(399,427,l),
(389,420,l),
(382,414,l),
(375,411,l),
(358,409,l),
(346,407,l)
);
}
);
width = 651;
},
{
hints = (
{
horizontal = 1;
place = (0,21);
target = up;
type = BottomGhost;
},
{
horizontal = 1;
place = (282,67);
type = Stem;
},
{
horizontal = 1;
place = (598,69);
type = Stem;
},
{
place = (70,100);
type = Stem;
},
{
place = (406,99);
type = Stem;
}
);
layerId = m003;
shapes = (
{
closed = 1;
nodes = (
(287,2,l),
(292,1,l),
(315,-1,l),
(319,7,l),
(338,11,l),
(355,15,l),
(363,12,l),
(382,22,l),
(397,22,l),
(415,32,l),
(420,34,l),
(431,45,l),
(448,56,l),
(450,63,l),
(464,77,l),
(478,89,l),
(478,98,l),
(481,117,l),
(496,127,l),
(500,144,l),
(491,158,l),
(492,178,l),
(489,201,l),
(495,221,l),
(489,228,l),
(482,245,l),
(472,265,l),
(470,269,l),
(457,284,l),
(451,296,l),
(447,303,l),
(435,317,l),
(425,322,l),
(396,342,l),
(417,363,l),
(428,372,l),
(440,380,l),
(449,388,l),
(455,404,l),
(470,414,l),
(474,430,l),
(472,440,l),
(474,458,l),
(472,472,l),
(480,496,l),
(483,514,l),
(473,526,l),
(468,544,l),
(473,558,l),
(467,568,l),
(459,582,l),
(446,592,l),
(435,609,l),
(425,615,l),
(422,622,l),
(412,639,l),
(398,638,l),
(376,647,l),
(365,651,l),
(351,660,l),
(331,661,l),
(319,671,l),
(293,669,l),
(282,668,l),
(261,671,l),
(240,675,l),
(214,670,l),
(203,674,l),
(186,672,l),
(183,676,l),
(155,669,l),
(144,668,l),
(136,668,l),
(117,674,l),
(97,672,l),
(94,670,l),
(69,662,l),
(54,665,l),
(35,664,l),
(23,655,l),
(14,643,l),
(4,634,l),
(12,606,l),
(24,592,l),
(40,594,l),
(48,596,l),
(58,566,l),
(62,553,l),
(67,536,l),
(67,527,l),
(62,510,l),
(66,498,l),
(70,482,l),
(67,463,l),
(65,444,l),
(65,430,l),
(58,419,l),
(69,401,l),
(68,389,l),
(58,374,l),
(66,360,l),
(68,339,l),
(65,328,l),
(58,307,l),
(60,300,l),
(66,285,l),
(58,267,l),
(66,253,l),
(61,236,l),
(62,220,l),
(57,206,l),
(66,189,l),
(66,170,l),
(67,155,l),
(66,145,l),
(66,127,l),
(56,114,l),
(50,94,l),
(63,80,l),
(51,64,l),
(56,50,l),
(51,21,l),
(57,10,l),
(78,6,l),
(91,-1,l),
(123,1,l),
(137,1,l),
(153,-2,l),
(173,2,l),
(197,0,l),
(211,1,l),
(225,-3,l),
(237,3,l),
(271,-5,l)
);
},
{
closed = 1;
nodes = (
(186,70,l),
(149,77,l),
(138,101,l),
(146,121,l),
(141,133,l),
(150,150,l),
(144,168,l),
(141,183,l),
(151,199,l),
(143,223,l),
(142,242,l),
(145,255,l),
(138,272,l),
(153,305,l),
(185,309,l),
(209,306,l),
(215,314,l),
(235,313,l),
(266,308,l),
(286,308,l),
(305,304,l),
(330,297,l),
(338,301,l),
(366,286,l),
(372,274,l),
(392,273,l),
(391,260,l),
(405,248,l),
(408,237,l),
(411,205,l),
(417,171,l),
(412,156,l),
(414,145,l),
(400,136,l),
(400,117,l),
(391,106,l),
(357,89,l),
(334,79,l),
(311,71,l),
(300,71,l),
(270,66,l),
(233,74,l),
(228,67,l),
(215,66,l)
);
},
{
closed = 1;
nodes = (
(229,371,l),
(195,373,l),
(175,370,l),
(144,370,l),
(139,407,l),
(145,421,l),
(141,429,l),
(141,447,l),
(144,465,l),
(139,489,l),
(146,528,l),
(137,536,l),
(143,549,l),
(135,570,l),
(147,594,l),
(185,606,l),
(201,599,l),
(218,607,l),
(231,601,l),
(273,602,l),
(298,599,l),
(322,591,l),
(343,594,l),
(354,581,l),
(363,578,l),
(381,569,l),
(381,555,l),
(391,543,l),
(388,525,l),
(405,512,l),
(402,494,l),
(400,466,l),
(404,450,l),
(398,443,l),
(391,427,l),
(385,409,l),
(361,406,l),
(350,388,l),
(335,383,l),
(317,371,l),
(295,377,l),
(270,373,l),
(231,367,l)
);
}
);
width = 515;
}
);
metricLeft = "=H";
metricRight = "=H/4";
note = P;
unicode = 66;
}
{
glyphname = C;
kernLeft = KO_C;
kernRight = KO_C;
layers = (
{
anchors = (
{
name = bottom;
pos = (280,0);
},
{
name = top;
pos = (280,625);
}
);
hints = (
{
horizontal = 1;
place = (-10,85);
type = Stem;
},
{
horizontal = 1;
place = (597,80);
type = Stem;
},
{
place = (35,110);
type = Stem;
}
);
layerId = m005;
shapes = (
{
closed = 1;
nodes = (
(337,-6,l),
(350,-1,l),
(364,1,l),
(379,-1,l),
(395,11,l),
(414,14,l),
(436,21,l),
(449,35,l),
(458,55,l),
(440,79,l),
(431,89,l),
(420,106,l),
(406,105,l),
(384,103,l),
(365,101,l),
(355,96,l),
(342,95,l),
(324,87,l),
(299,79,l),
(270,80,l),
(246,86,l),
(237,85,l),
(228,93,l),
(207,100,l),
(182,119,l),
(171,133,l),
(162,143,l),
(165,162,l),
(150,169,l),
(156,190,l),
(153,202,l),
(144,215,l),
(146,231,l),
(140,252,l),
(147,259,l),
(136,278,l),
(138,316,l),
(136,327,l),
(133,359,l),
(136,378,l),
(134,393,l),
(136,410,l),
(152,424,l),
(146,442,l),
(146,449,l),
(156,466,l),
(154,483,l),
(169,501,l),
(171,516,l),
(181,528,l),
(182,541,l),
(192,553,l),
(205,571,l),
(216,582,l),
(252,588,l),
(264,596,l),
(295,599,l),
(316,590,l),
(326,584,l),
(340,576,l),
(356,565,l),
(378,566,l),
(390,566,l),
(408,578,l),
(423,591,l),
(422,603,l),
(419,626,l),
(421,632,l),
(393,650,l),
(381,654,l),
(371,667,l),
(353,668,l),
(336,669,l),
(317,678,l),
(304,677,l),
(301,673,l),
(269,679,l),
(249,670,l),
(232,672,l),
(213,667,l),
(187,660,l),
(174,646,l),
(158,644,l),
(151,639,l),
(134,623,l),
(128,617,l),
(118,607,l),
(104,594,l),
(100,579,l),
(86,566,l),
(83,540,l),
(74,524,l),
(60,507,l),
(58,492,l),
(59,480,l),
(61,471,l),
(55,457,l),
(51,442,l),
(43,424,l),
(46,404,l),
(38,393,l),
(45,379,l),
(37,360,l),
(39,334,l),
(47,314,l),
(34,278,l),
(35,265,l),
(45,249,l),
(44,234,l),
(40,221,l),
(55,205,l),
(49,187,l),
(55,173,l),
(57,162,l),
(62,141,l),
(62,133,l),
(76,118,l),
(89,101,l),
(92,81,l),
(110,70,l),
(121,59,l),
(123,50,l),
(146,36,l),
(151,22,l),
(169,21,l),
(178,7,l),
(184,6,l),
(202,1,l),
(218,-2,l),
(239,-4,l),
(245,-9,l),
(259,-7,l),
(289,-7,l),
(309,-9,l),
(327,-12,l)
);
}
);
width = 467;
},
{
anchors = (
{
name = bottom;
pos = (278,0);
},
{
name = top;
pos = (278,625);
}
);
hints = (
{
horizontal = 1;
place = (-10,85);
type = Stem;
},
{
horizontal = 1;
place = (597,80);
type = Stem;
},
{
place = (35,110);
type = Stem;
}
);
layerId = m002;
shapes = (
{
closed = 1;
nodes = (
(315,-23,l),
(353,-24,l),
(360,-12,l),
(374,-12,l),
(398,-8,l),
(417,4,l),
(453,13,l),
(477,25,l),
(483,41,l),
(490,72,l),
(495,81,l),
(493,99,l),
(500,115,l),
(487,139,l),
(472,160,l),
(443,185,l),
(425,187,l),
(419,193,l),
(387,196,l),
(351,186,l),
(347,183,l),
(335,176,l),
(323,169,l),
(310,167,l),
(296,164,l),
(268,164,l),
(247,173,l),
(240,170,l),
(221,179,l),
(210,189,l),
(203,202,l),
(201,218,l),
(186,237,l),
(191,251,l),
(190,268,l),
(191,284,l),
(185,316,l),
(184,327,l),
(182,357,l),
(195,379,l),
(192,390,l),
(197,407,l),
(205,438,l),
(197,447,l),
(206,463,l),
(212,481,l),
(223,492,l),
(230,499,l),
(248,504,l),
(262,509,l),
(278,507,l),
(298,505,l),
(313,497,l),
(332,487,l),
(358,484,l),
(387,482,l),
(403,487,l),
(417,495,l),
(440,503,l),
(451,527,l),
(461,531,l),
(472,553,l),
(482,562,l),
(472,577,l),
(475,594,l),
(469,605,l),
(453,632,l),
(449,640,l),
(415,659,l),
(409,662,l),
(391,670,l),
(358,684,l),
(332,688,l),
(310,689,l),
(286,687,l),
(262,687,l),
(244,690,l),
(234,684,l),
(218,684,l),
(192,679,l),
(181,672,l),
(161,666,l),
(147,656,l),
(114,643,l),
(108,635,l),
(92,626,l),
(85,609,l),
(77,601,l),
(60,585,l),
(57,575,l),
(46,561,l),
(41,555,l),
(21,520,l),
(14,507,l),
(17,499,l),
(13,480,l),
(1,470,l),
(6,453,l),
(-6,438,l),
(2,424,l),
(-1,404,l),
(-11,397,l),
(-16,379,l),
(-6,362,l),
(-16,327,l),
(-5,283,l),
(-4,267,l),
(-6,251,l),
(-15,230,l),
(-12,215,l),
(5,200,l),
(1,193,l),
(5,172,l),
(22,151,l),
(24,137,l),
(35,118,l),
(32,103,l),
(48,91,l),
(51,78,l),
(66,74,l),
(70,58,l),
(88,45,l),
(102,42,l),
(118,23,l),
(127,9,l),
(144,3,l),
(156,3,l),
(179,-9,l),
(190,-16,l),
(199,-13,l),
(211,-23,l),
(233,-21,l),
(244,-25,l),
(261,-22,l),
(287,-27,l)
);
}
);
width = 496;
},
{
anchors = (
{
name = bottom;
pos = (280,0);
},
{
name = top;
pos = (280,625);
}
);
hints = (
{
horizontal = 1;
place = (-10,85);
type = Stem;
},
{
horizontal = 1;
place = (597,80);
type = Stem;
},
{
place = (35,110);
type = Stem;
}
);
layerId = m003;
shapes = (
{
closed = 1;
nodes = (
(331,5,l),
(349,6,l),
(352,8,l),
(376,10,l),
(382,13,l),
(399,24,l),
(426,32,l),
(437,52,l),
(431,75,l),
(418,93,l),
(407,98,l),
(384,96,l),
(366,84,l),
(348,82,l),
(336,76,l),
(317,75,l),
(308,69,l),
(289,67,l),
(266,68,l),
(246,68,l),
(239,80,l),
(213,86,l),
(213,84,l),
(196,100,l),
(184,104,l),
(174,116,l),
(161,135,l),
(151,143,l),
(144,161,l),
(151,173,l),
(135,189,l),
(142,200,l),
(136,216,l),
(134,238,l),
(127,244,l),
(134,265,l),
(134,276,l),
(134,311,l),
(129,331,l),
(131,360,l),
(126,376,l),
(129,394,l),
(132,410,l),
(140,421,l),
(139,435,l),
(146,455,l),
(144,473,l),
(141,486,l),
(159,499,l),
(153,509,l),
(163,529,l),
(173,543,l),
(173,554,l),
(186,563,l),
(200,578,l),
(215,582,l),
(227,591,l),
(231,600,l),
(256,604,l),
(266,610,l),
(295,608,l),
(312,603,l),
(327,598,l),
(333,586,l),
(362,574,l),
(378,574,l),
(397,584,l),
(419,601,l),
(412,618,l),
(418,622,l),
(389,646,l),
(377,649,l),
(355,651,l),
(346,662,l),
(331,659,l),
(313,664,l),
(292,669,l),
(268,670,l),
(244,669,l),
(239,661,l),
(226,655,l),
(202,657,l),
(195,644,l),
(185,641,l),
(161,632,l),
(151,622,l),
(143,615,l),
(128,605,l),
(128,586,l),
(113,578,l),
(98,569,l),
(103,548,l),
(93,537,l),
(78,526,l),
(76,513,l),
(74,498,l),
(74,487,l),
(66,472,l),
(55,448,l),
(62,439,l),
(53,424,l),
(46,403,l),
(44,388,l),
(46,376,l),
(43,365,l),
(51,327,l),
(54,315,l),
(57,279,l),
(50,265,l),
(48,247,l),
(54,229,l),
(50,215,l),
(60,207,l),
(54,187,l),
(67,178,l),
(69,160,l),
(79,144,l),
(86,129,l),
(89,119,l),
(105,91,l),
(115,78,l),
(122,65,l),
(136,59,l),
(138,42,l),
(153,36,l),
(158,30,l),
(183,19,l),
(197,20,l),
(210,10,l),
(222,11,l),
(228,5,l),
(245,6,l),
(268,3,l),
(300,4,l),
(309,-1,l)
);
}
);
width = 448;
}
);
metricLeft = "=O";
metricRight = "=O/4";
note = C;
unicode = 67;
userData = {
KernOnName = C;
};
}
{
glyphname = D;
kernLeft = KO_D;
kernRight = KO_D;
layers = (
{
anchors = (
{
name = bottom;
pos = (293,0);
},
{
name = center;
pos = (146,334);
},
{
name = top;
pos = (293,667);
}
);
hints = (
{
horizontal = 1;
place = (-10,80);
type = Stem;
},
{
horizontal = 1;
place = (597,80);
type = Stem;
},
{
place = (35,110);
type = Stem;
},
{
place = (425,110);
type = Stem;
}
);
layerId = m005;
shapes = (
{
closed = 1;
nodes = (
(165,2,l),
(178,3,l),
(184,-3,l),
(200,-2,l),
(224,-3,l),
(233,4,l),
(243,0,l),
(264,-2,l),
(293,4,l),
(312,-2,l),
(329,5,l),
(349,7,l),
(373,16,l),
(379,21,l),
(395,27,l),
(413,37,l),
(412,46,l),
(425,48,l),
(444,59,l),
(456,71,l),
(470,77,l),
(476,90,l),
(484,107,l),
(494,118,l),
(490,125,l),
(499,148,l),
(512,158,l),
(523,170,l),
(518,186,l),
(524,196,l),
(529,213,l),
(534,232,l),
(539,242,l),
(533,253,l),
(539,275,l),
(548,288,l),
(542,306,l),
(547,318,l),
(551,329,l),
(542,365,l),
(550,380,l),
(551,396,l),
(541,406,l),
(548,428,l),
(543,437,l),
(544,452,l),
(542,470,l),
(532,484,l),
(528,500,l),
(524,511,l),
(523,529,l),
(508,546,l),
(511,552,l),
(496,567,l),
(493,577,l),
(491,598,l),
(482,602,l),
(469,616,l),
(452,626,l),
(428,639,l),
(418,646,l),
(401,652,l),
(398,667,l),
(378,668,l),
(372,670,l),
(350,676,l),
(331,680,l),
(323,672,l),
(292,679,l),
(271,679,l),
(265,674,l),
(247,680,l),
(226,672,l),
(214,677,l),
(193,674,l),
(186,679,l),
(173,674,l),
(158,671,l),
(135,675,l),
(128,667,l),
(106,666,l),
(98,671,l),
(64,668,l),
(57,660,l),
(30,649,l),
(19,640,l),
(27,627,l),
(23,598,l),
(47,590,l),
(57,580,l),
(71,557,l),
(74,540,l),
(80,527,l),
(82,513,l),
(78,497,l),
(70,483,l),
(80,469,l),
(73,457,l),
(75,436,l),
(74,420,l),
(83,413,l),
(77,395,l),
(78,378,l),
(77,368,l),
(79,344,l),
(79,329,l),
(74,321,l),
(72,302,l),
(77,289,l),
(83,272,l),
(83,257,l),
(74,226,l),
(82,213,l),
(76,202,l),
(76,184,l),
(72,170,l),
(76,155,l),
(72,143,l),
(73,122,l),
(67,105,l),
(69,96,l),
(78,80,l),
(69,60,l),
(76,38,l),
(83,18,l),
(90,13,l),
(96,4,l),
(119,-3,l),
(138,-5,l)
);
},
{
closed = 1;
nodes = (
(189,91,l),
(173,97,l),
(178,118,l),
(180,131,l),
(167,149,l),
(179,164,l),
(174,175,l),
(176,190,l),
(176,210,l),
(172,219,l),
(182,240,l),
(175,255,l),
(175,263,l),
(184,284,l),
(180,294,l),
(171,309,l),
(182,331,l),
(173,345,l),
(177,357,l),
(185,372,l),
(174,392,l),
(177,400,l),
(182,415,l),
(183,431,l),
(175,450,l),
(174,468,l),
(177,481,l),
(181,496,l),
(178,512,l),
(180,523,l),
(175,545,l),
(173,559,l),
(167,581,l),
(186,581,l),
(203,581,l),
(215,577,l),
(224,582,l),
(237,577,l),
(259,580,l),
(274,582,l),
(285,582,l),
(300,581,l),
(312,580,l),
(325,579,l),
(328,581,l),
(345,575,l),
(367,573,l),
(370,567,l),
(385,553,l),
(392,547,l),
(409,534,l),
(416,522,l),
(416,508,l),
(432,499,l),
(425,483,l),
(436,470,l),
(442,452,l),
(445,431,l),
(446,425,l),
(449,410,l),
(443,389,l),
(439,381,l),
(444,359,l),
(449,329,l),
(443,314,l),
(443,299,l),
(446,281,l),
(437,273,l),
(431,255,l),
(436,242,l),
(437,221,l),
(433,212,l),
(428,196,l),
(415,178,l),
(411,165,l),
(408,153,l),
(389,142,l),
(379,135,l),
(367,127,l),
(358,111,l),
(344,106,l),
(341,96,l),
(323,98,l),
(310,90,l),
(296,94,l),
(265,93,l),
(245,94,l),
(237,94,l),
(221,89,l),
(203,94,l),
(202,86,l)
);
}
);
width = 585;
},
{
anchors = (
{
name = bottom;
pos = (322,0);
},
{
name = center;
pos = (161,334);
},
{
name = top;
pos = (322,667);
}
);
hints = (
{
horizontal = 1;
place = (-10,80);
type = Stem;
},
{
horizontal = 1;
place = (597,80);
type = Stem;
},
{
place = (35,110);
type = Stem;
},
{
place = (425,110);
type = Stem;
}
);
layerId = m002;
shapes = (
{
closed = 1;
nodes = (
(203,-23,l),
(216,-29,l),
(233,-27,l),
(254,-28,l),
(266,-21,l),
(276,-30,l),
(293,-21,l),
(315,-26,l),
(352,-21,l),
(383,-26,l),
(399,-17,l),
(419,-18,l),
(431,-9,l),
(448,-2,l),
(469,2,l),
(476,14,l),
(501,17,l),
(511,31,l),
(533,41,l),
(543,51,l),
(551,66,l),
(566,74,l),
(573,92,l),
(585,100,l),
(584,113,l),
(598,130,l),
(606,145,l),
(606,156,l),
(623,167,l),
(626,185,l),
(636,194,l),
(634,211,l),
(632,227,l),
(645,237,l),
(639,255,l),
(642,283,l),
(655,300,l),
(655,317,l),
(659,334,l),
(653,362,l),
(651,380,l),
(650,408,l),
(653,419,l),
(653,436,l),
(640,455,l),
(635,470,l),
(637,485,l),
(639,493,l),
(628,510,l),
(620,526,l),
(619,538,l),
(603,562,l),
(596,582,l),
(581,588,l),
(584,603,l),
(564,611,l),
(561,622,l),
(551,636,l),
(530,647,l),
(516,649,l),
(498,666,l),
(475,670,l),
(454,682,l),
(444,679,l),
(425,689,l),
(413,693,l),
(390,695,l),
(372,696,l),
(341,692,l),
(334,695,l),
(315,693,l),
(293,691,l),
(281,694,l),
(264,686,l),
(256,694,l),
(242,687,l),
(225,692,l),
(202,687,l),
(186,686,l),
(182,680,l),
(170,678,l),
(147,682,l),
(122,670,l),
(114,672,l),
(90,660,l),
(86,661,l),
(61,651,l),
(60,640,l),
(45,630,l),
(30,618,l),
(22,606,l),
(28,598,l),
(37,565,l),
(40,552,l),
(56,534,l),
(72,515,l),
(78,488,l),
(84,469,l),
(79,456,l),
(79,440,l),
(91,424,l),
(91,414,l),
(81,394,l),
(91,363,l),
(84,353,l),
(80,336,l),
(87,307,l),
(90,291,l),
(86,271,l),
(91,264,l),
(81,243,l),
(91,229,l),
(81,218,l),
(83,197,l),
(83,171,l),
(81,152,l),
(75,139,l),
(86,127,l),
(77,103,l),
(80,88,l),
(72,57,l),
(73,48,l),
(83,30,l),
(101,21,l),
(110,2,l),
(122,-13,l),
(148,-13,l),
(151,-26,l),
(172,-29,l)
);
},
{
closed = 1;
nodes = (
(317,165,l),
(311,168,l),
(299,169,l),
(285,171,l),
(282,180,l),
(280,186,l),
(276,198,l),
(277,206,l),
(278,214,l),
(278,219,l),
(282,232,l),
(276,241,l),
(270,248,l),
(277,253,l),
(284,258,l),
(283,266,l),
(283,273,l),
(278,287,l),
(275,294,l),
(278,307,l),
(284,323,l),
(278,332,l),
(274,339,l),
(278,348,l),
(280,354,l),
(278,369,l),
(283,382,l),
(278,393,l),
(275,399,l),
(274,416,l),
(273,424,l),
(272,438,l),
(273,455,l),
(273,470,l),
(274,477,l),
(280,484,l),
(287,493,l),
(290,496,l),
(291,501,l),
(306,501,l),
(323,502,l),
(342,510,l),
(342,503,l),
(357,505,l),
(372,507,l),
(385,508,l),
(392,500,l),
(406,502,l),
(422,495,l),
(432,484,l),
(434,478,l),
(439,466,l),
(444,458,l),
(448,450,l),
(454,437,l),
(450,430,l),
(445,421,l),
(446,413,l),
(448,403,l),
(449,393,l),
(459,382,l),
(455,373,l),
(449,357,l),
(450,352,l),
(452,341,l),
(454,334,l),
(454,314,l),
(450,300,l),
(448,292,l),
(445,282,l),
(443,276,l),
(439,263,l),
(437,252,l),
(444,240,l),
(438,225,l),
(433,220,l),
(427,214,l),
(423,206,l),
(421,202,l),
(416,194,l),
(408,191,l),
(401,188,l),
(394,182,l),
(390,178,l),
(382,177,l),
(376,175,l),
(368,173,l),
(362,172,l),
(356,162,l),
(344,161,l),
(330,160,l)
);
}
);
width = 644;
},
{
anchors = (
{
name = bottom;
pos = (278,0);
},
{
name = center;
pos = (139,334);
},
{
name = top;
pos = (278,667);
}
);
hints = (
{
horizontal = 1;
place = (-10,80);
type = Stem;
},
{
horizontal = 1;
place = (597,80);
type = Stem;
},
{
place = (35,110);
type = Stem;
},
{
place = (425,110);
type = Stem;
}
);
layerId = m003;
shapes = (
{
closed = 1;
nodes = (
(115,3,l),
(123,-1,l),
(141,0,l),
(156,4,l),
(176,-5,l),
(202,-5,l),
(217,-3,l),
(239,-3,l),
(272,-5,l),
(287,0,l),
(298,2,l),
(309,2,l),
(322,13,l),
(342,14,l),
(352,18,l),
(361,28,l),
(379,38,l),
(397,47,l),
(401,58,l),
(405,66,l),
(417,71,l),
(437,88,l),
(444,98,l),
(444,108,l),
(460,128,l),
(461,138,l),
(470,156,l),
(473,165,l),
(486,184,l),
(487,196,l),
(486,207,l),
(492,228,l),
(500,239,l),
(492,259,l),
(507,272,l),
(499,286,l),
(510,298,l),
(510,318,l),
(497,333,l),
(499,360,l),
(510,376,l),
(497,394,l),
(496,406,l),
(505,428,l),
(497,436,l),
(501,452,l),
(487,473,l),
(497,487,l),
(481,500,l),
(482,517,l),
(480,528,l),
(472,544,l),
(469,561,l),
(453,568,l),
(456,587,l),
(440,601,l),
(428,606,l),
(424,618,l),
(408,634,l),
(401,640,l),
(396,648,l),
(377,656,l),
(368,661,l),
(351,668,l),
(331,665,l),
(324,673,l),
(307,675,l),
(286,669,l),
(258,672,l),
(248,671,l),
(233,675,l),
(209,671,l),
(201,669,l),
(187,675,l),
(163,675,l),
(155,673,l),
(143,671,l),
(129,673,l),
(107,665,l),
(91,670,l),
(78,664,l),
(57,669,l),
(33,664,l),
(17,659,l),
(14,644,l),
(6,634,l),
(4,606,l),
(26,594,l),
(34,598,l),
(50,590,l),
(52,566,l),
(59,554,l),
(55,536,l),
(61,519,l),
(58,502,l),
(53,486,l),
(56,479,l),
(52,461,l),
(57,449,l),
(57,428,l),
(53,417,l),
(52,404,l),
(63,390,l),
(50,367,l),
(55,359,l),
(61,339,l),
(54,326,l),
(51,308,l),
(55,295,l),
(57,283,l),
(56,260,l),
(52,253,l),
(52,237,l),
(60,222,l),
(60,200,l),
(58,191,l),
(50,169,l),
(55,157,l),
(61,147,l),
(53,130,l),
(59,112,l),
(46,95,l),
(50,80,l),
(51,66,l),
(53,53,l),
(55,25,l),
(57,10,l),
(71,5,l),
(82,1,l)
);
},
{
closed = 1;
nodes = (
(131,77,l),
(127,108,l),
(131,122,l),
(135,138,l),
(137,149,l),
(136,169,l),
(139,183,l),
(133,193,l),
(141,214,l),
(139,228,l),
(130,240,l),
(143,256,l),
(139,270,l),
(134,290,l),
(138,307,l),
(136,318,l),
(143,336,l),
(138,354,l),
(138,367,l),
(135,376,l),
(142,396,l),
(143,411,l),
(129,424,l),
(137,443,l),
(131,454,l),
(142,472,l),
(140,486,l),
(140,504,l),
(132,521,l),
(139,528,l),
(129,550,l),
(136,562,l),
(139,588,l),
(157,601,l),
(166,597,l),
(184,598,l),
(204,602,l),
(214,600,l),
(227,601,l),
(253,601,l),
(260,594,l),
(297,603,l),
(308,596,l),
(323,592,l),
(331,587,l),
(354,582,l),
(367,574,l),
(374,566,l),
(375,555,l),
(387,542,l),
(394,525,l),
(408,508,l),
(408,497,l),
(412,484,l),
(413,467,l),
(411,453,l),
(416,442,l),
(423,426,l),
(420,405,l),
(422,397,l),
(423,380,l),
(428,364,l),
(419,332,l),
(419,310,l),
(430,301,l),
(427,282,l),
(418,272,l),
(411,249,l),
(410,235,l),
(404,222,l),
(413,206,l),
(407,188,l),
(396,180,l),
(390,158,l),
(378,150,l),
(380,141,l),
(369,120,l),
(355,118,l),
(351,100,l),
(326,93,l),
(321,89,l),
(308,84,l),
(300,75,l),
(274,71,l),
(266,70,l),
(229,72,l),
(222,70,l),
(199,71,l),
(186,68,l),
(171,70,l),
(158,67,l)
);
}
);
width = 555;
}
);
metricLeft = "=H";
metricRight = "=O";
note = O;
unicode = 68;
userData = {
KernOnName = D;
};
}
{
glyphname = E;
kernLeft = KO_E;
kernRight = KO_E;
layers = (
{
anchors = (
{
name = bottom;
pos = (245,0);
},
{
name = ogonek;
pos = (441,10);
},
{
name = top;
pos = (245,625);
},
{
name = topleft;
pos = (20,667);
}
);
hints = (
{
horizontal = 1;
place = (0,75);
type = Stem;
},
{
horizontal = 1;
place = (305,74);
type = Stem;
},
{
horizontal = 1;
place = (592,75);
type = Stem;
},
{
place = (70,100);
type = Stem;
}
);
layerId = m005;
shapes = (
{
closed = 1;
nodes = (
(110,-1,l),
(130,0,l),
(145,-5,l),
(159,4,l),
(182,-3,l),
(198,-3,l),
(207,-2,l),
(222,1,l),
(230,2,l),
(258,4,l),
(271,3,l),
(282,-3,l),
(297,0,l),
(318,-5,l),
(327,-2,l),
(345,-5,l),
(356,1,l),
(370,-3,l),
(396,-4,l),
(406,3,l),
(432,0,l),
(454,11,l),
(456,20,l),
(460,52,l),
(453,65,l),
(452,78,l),
(431,84,l),
(401,92,l),
(385,87,l),
(378,84,l),
(355,82,l),
(354,88,l),
(335,79,l),
(318,85,l),
(298,84,l),
(294,83,l),
(276,78,l),
(251,84,l),
(236,75,l),
(229,81,l),
(217,82,l),
(193,83,l),
(177,84,l),
(162,86,l),
(157,111,l),
(155,132,l),
(158,148,l),
(157,163,l),
(165,174,l),
(162,193,l),
(155,211,l),
(158,220,l),
(156,243,l),
(165,255,l),
(166,283,l),
(188,293,l),
(201,296,l),
(224,292,l),
(230,295,l),
(255,296,l),
(280,295,l),
(297,304,l),
(316,304,l),
(319,298,l),
(342,295,l),
(359,302,l),
(379,297,l),
(398,305,l),
(411,323,l),
(411,358,l),
(401,369,l),
(392,380,l),
(391,389,l),
(354,391,l),
(348,386,l),
(330,379,l),
(311,378,l),
(301,382,l),
(276,377,l),
(271,380,l),
(259,375,l),
(240,378,l),
(230,372,l),
(213,372,l),
(194,370,l),
(182,374,l),
(166,379,l),
(161,401,l),
(160,422,l),
(158,432,l),
(159,449,l),
(162,468,l),
(154,482,l),
(155,497,l),
(152,521,l),
(156,539,l),
(158,551,l),
(156,570,l),
(155,586,l),
(187,582,l),
(196,583,l),
(210,588,l),
(228,584,l),
(246,585,l),
(265,584,l),
(272,588,l),
(297,587,l),
(305,589,l),
(328,587,l),
(337,578,l),
(360,580,l),
(368,577,l),
(388,577,l),
(400,578,l),
(425,575,l),
(438,588,l),
(451,600,l),
(448,612,l),
(457,637,l),
(450,657,l),
(431,665,l),
(404,671,l),
(380,664,l),
(371,662,l),
(362,669,l),
(342,671,l),
(330,666,l),
(316,670,l),
(301,667,l),
(281,665,l),
(262,664,l),
(244,671,l),
(234,663,l),
(212,663,l),
(201,670,l),
(185,663,l),
(172,666,l),
(164,670,l),
(151,662,l),
(127,665,l),
(116,663,l),
(84,663,l),
(69,658,l),
(57,651,l),
(52,643,l),
(46,610,l),
(48,599,l),
(53,580,l),
(53,566,l),
(63,552,l),
(53,537,l),
(63,526,l),
(60,511,l),
(62,496,l),
(68,481,l),
(67,466,l),
(60,448,l),
(64,434,l),
(65,415,l),
(70,404,l),
(68,383,l),
(63,367,l),
(67,355,l),
(66,338,l),
(59,321,l),
(65,307,l),
(66,296,l),
(64,280,l),
(63,261,l),
(57,251,l),
(63,238,l),
(62,217,l),
(57,200,l),
(60,193,l),
(58,174,l),
(64,164,l),
(54,148,l),
(50,133,l),
(56,115,l),
(61,95,l),
(48,81,l),
(52,66,l),
(48,55,l),
(48,26,l),
(59,14,l),
(73,10,l),
(87,-3,l)
);
}
);
width = 494;
},
{
anchors = (
{
name = bottom;
pos = (267,0);
},
{
name = ogonek;
pos = (463,10);
},
{
name = top;
pos = (267,625);
},
{
name = topleft;
pos = (42,667);
}
);
hints = (
{
horizontal = 1;
place = (0,75);
type = Stem;
},
{
horizontal = 1;
place = (305,74);
type = Stem;
},
{
horizontal = 1;
place = (592,75);
type = Stem;
},
{
place = (70,100);
type = Stem;
}
);
layerId = m002;
shapes = (
{
closed = 1;
nodes = (
(92,-22,l),
(139,-28,l),
(148,-21,l),
(168,-28,l),
(202,-28,l),
(220,-22,l),
(226,-25,l),
(262,-25,l),
(277,-22,l),
(285,-30,l),
(310,-21,l),
(321,-25,l),
(340,-28,l),
(345,-22,l),
(368,-28,l),
(387,-30,l),
(403,-24,l),
(430,-23,l),
(462,-28,l),
(472,-16,l),
(494,-16,l),
(516,3,l),
(516,22,l),
(525,29,l),
(533,48,l),
(527,83,l),
(535,92,l),
(524,106,l),
(518,120,l),
(505,139,l),
(486,154,l),
(474,164,l),
(454,160,l),
(433,160,l),
(416,160,l),
(411,158,l),
(386,162,l),
(377,154,l),
(362,154,l),
(343,158,l),
(329,152,l),
(314,157,l),
(298,158,l),
(286,159,l),
(269,150,l),
(262,152,l),
(248,154,l),
(228,156,l),
(228,172,l),
(223,183,l),
(223,201,l),
(231,213,l),
(225,230,l),
(238,243,l),
(261,241,l),
(276,248,l),
(282,241,l),
(294,244,l),
(309,247,l),
(338,248,l),
(346,246,l),
(368,246,l),
(378,246,l),
(404,253,l),
(418,258,l),
(434,265,l),
(452,269,l),
(461,283,l),
(466,288,l),
(474,303,l),
(487,322,l),
(475,349,l),
(472,370,l),
(480,386,l),
(469,397,l),
(464,408,l),
(448,417,l),
(435,422,l),
(427,436,l),
(413,433,l),
(399,442,l),
(364,432,l),
(355,437,l),
(343,429,l),
(325,434,l),
(303,428,l),
(288,428,l),
(281,423,l),
(267,421,l),
(253,419,l),
(240,419,l),
(235,433,l),
(228,447,l),
(233,457,l),
(232,463,l),
(220,469,l),
(224,481,l),
(228,495,l),
(231,503,l),
(246,507,l),
(256,510,l),
(265,507,l),
(289,507,l),
(303,514,l),
(309,510,l),
(328,507,l),
(345,512,l),
(353,508,l),
(375,510,l),
(391,503,l),
(396,508,l),
(418,503,l),
(452,501,l),
(464,503,l),
(479,506,l),
(493,521,l),
(512,539,l),
(513,558,l),
(529,571,l),
(532,587,l),
(532,612,l),
(519,631,l),
(524,643,l),
(504,655,l),
(506,665,l),
(496,679,l),
(477,680,l),
(450,690,l),
(428,692,l),
(406,690,l),
(396,696,l),
(379,696,l),
(355,690,l),
(323,692,l),
(299,696,l),
(251,696,l),
(232,692,l),
(205,687,l),
(190,687,l),
(180,696,l),
(159,689,l),
(140,687,l),
(98,694,l),
(95,685,l),
(82,685,l),
(67,671,l),
(45,653,l),
(25,640,l),
(27,632,l),
(22,616,l),
(22,583,l),
(22,571,l),
(27,554,l),
(25,536,l),
(32,518,l),
(32,489,l),
(37,478,l),
(26,460,l),
(27,444,l),
(41,431,l),
(39,417,l),
(32,404,l),
(43,385,l),
(38,375,l),
(36,356,l),
(30,339,l),
(35,327,l),
(41,315,l),
(39,294,l),
(36,284,l),
(35,266,l),
(36,248,l),
(40,240,l),
(35,216,l),
(40,205,l),
(29,175,l),
(24,157,l),
(34,141,l),
(31,128,l),
(22,119,l),
(26,100,l),
(22,81,l),
(20,57,l),
(30,26,l),
(45,4,l),
(55,-6,l),
(76,-13,l)
);
}
);
width = 520;
},
{
anchors = (
{
name = bottom;
pos = (246,0);
},
{
name = ogonek;
pos = (442,10);
},
{
name = top;
pos = (246,625);
},
{
name = topleft;
pos = (21,667);
}
);
hints = (
{
horizontal = 1;
place = (0,75);
type = Stem;
},
{
horizontal = 1;
place = (305,74);
type = Stem;
},
{
horizontal = 1;
place = (592,75);
type = Stem;
},
{
place = (70,100);
type = Stem;
}
);
layerId = m003;
shapes = (
{
closed = 1;
nodes = (
(116,0,l),
(126,0,l),
(139,3,l),
(159,4,l),
(178,2,l),
(193,-3,l),
(206,-1,l),
(220,-1,l),
(244,1,l),
(258,-2,l),
(261,1,l),
(279,0,l),
(303,1,l),
(313,-3,l),
(335,4,l),
(338,1,l),
(353,0,l),
(370,-3,l),
(389,-2,l),
(402,0,l),
(440,3,l),
(450,17,l),
(444,40,l),
(446,52,l),
(429,63,l),
(406,63,l),
(395,64,l),
(382,63,l),
(366,67,l),
(342,66,l),
(331,60,l),
(317,63,l),
(299,65,l),
(285,60,l),
(279,57,l),
(259,58,l),
(247,56,l),
(231,58,l),
(208,62,l),
(203,60,l),
(178,55,l),
(155,68,l),
(152,75,l),
(144,105,l),
(144,125,l),
(148,135,l),
(154,155,l),
(146,161,l),
(154,176,l),
(157,200,l),
(156,215,l),
(152,226,l),
(157,244,l),
(145,258,l),
(150,284,l),
(169,299,l),
(189,299,l),
(206,308,l),
(223,301,l),
(242,305,l),
(249,308,l),
(274,306,l),
(286,305,l),
(299,309,l),
(316,305,l),
(330,311,l),
(348,314,l),
(350,314,l),
(387,316,l),
(393,321,l),
(405,348,l),
(388,369,l),
(393,380,l),
(357,374,l),
(340,380,l),
(326,378,l),
(314,371,l),
(301,370,l),
(292,375,l),
(267,372,l),
(257,368,l),
(244,363,l),
(223,369,l),
(215,364,l),
(200,368,l),
(165,368,l),
(161,375,l),
(154,404,l),
(154,419,l),
(153,435,l),
(152,456,l),
(156,463,l),
(151,486,l),
(152,494,l),
(148,513,l),
(149,534,l),
(153,544,l),
(147,561,l),
(144,589,l),
(161,606,l),
(190,606,l),
(197,605,l),
(213,608,l),
(232,611,l),
(255,604,l),
(262,604,l),
(281,610,l),
(288,601,l),
(313,601,l),
(329,606,l),
(345,601,l),
(360,604,l),
(366,603,l),
(392,596,l),
(405,596,l),
(427,596,l),
(439,613,l),
(438,618,l),
(444,641,l),
(448,657,l),
(429,667,l),
(400,662,l),
(380,671,l),
(368,671,l),
(360,662,l),
(345,666,l),
(319,662,l),
(318,662,l),
(294,666,l),
(280,666,l),
(262,668,l),
(249,671,l),
(233,665,l),
(225,671,l),
(201,668,l),
(189,670,l),
(172,666,l),
(156,662,l),
(151,662,l),
(124,668,l),
(108,667,l),
(91,663,l),
(76,662,l),
(60,654,l),
(65,624,l),
(65,609,l),
(61,589,l),
(69,584,l),
(63,564,l),
(66,553,l),
(62,533,l),
(67,519,l),
(71,509,l),
(66,487,l),
(79,477,l),
(72,457,l),
(74,444,l),
(73,435,l),
(67,412,l),
(70,398,l),
(81,382,l),
(68,368,l),
(79,356,l),
(71,342,l),
(69,326,l),
(73,307,l),
(72,297,l),
(80,284,l),
(68,264,l),
(68,251,l),
(74,233,l),
(81,221,l),
(68,209,l),
(66,196,l),
(65,175,l),
(68,166,l),
(69,146,l),
(70,136,l),
(67,118,l),
(61,99,l),
(62,85,l),
(58,72,l),
(70,55,l),
(58,42,l),
(58,14,l),
(72,2,l),
(82,-4,l)
);
}
);
width = 495;
}
);
metricLeft = "=|H";
metricRight = "=O";
note = E;
unicode = 69;
userData = {
KernOnName = E;
};
}
{
glyphname = F;
kernLeft = KO_L;
kernRight = KO_F;
layers = (
{
hints = (
{
horizontal = 1;
place = (0,75);
type = Stem;
},
{
horizontal = 1;
place = (305,74);
type = Stem;
},
{
horizontal = 1;
place = (592,75);
type = Stem;
},
{
place = (70,100);
type = Stem;
}
);
layerId = m005;
shapes = (
{
closed = 1;
nodes = (
(120,5,l),
(126,2,l),
(153,6,l),
(154,10,l),
(168,24,l),
(164,50,l),
(174,70,l),
(169,82,l),
(159,98,l),
(168,118,l),
(162,131,l),
(155,143,l),
(165,162,l),
(158,179,l),
(164,188,l),
(160,209,l),
(158,218,l),
(167,239,l),
(158,253,l),
(154,269,l),
(163,290,l),
(183,289,l),
(199,292,l),
(218,300,l),
(235,300,l),
(253,293,l),
(260,299,l),
(284,303,l),
(294,298,l),
(330,299,l),
(341,297,l),
(358,303,l),
(385,305,l),
(399,307,l),
(402,326,l),
(409,357,l),
(402,371,l),
(396,381,l),
(391,391,l),
(353,388,l),
(338,381,l),
(325,383,l),
(291,381,l),
(280,384,l),
(259,379,l),
(245,383,l),
(232,376,l),
(220,383,l),
(208,379,l),
(190,383,l),
(158,384,l),
(164,404,l),
(166,419,l),
(156,441,l),
(164,449,l),
(162,466,l),
(154,479,l),
(162,501,l),
(161,509,l),
(159,531,l),
(152,545,l),
(157,562,l),
(160,582,l),
(170,586,l),
(186,584,l),
(202,583,l),
(226,590,l),
(235,587,l),
(259,582,l),
(271,586,l),
(282,587,l),
(295,583,l),
(319,580,l),
(329,585,l),
(346,584,l),
(357,585,l),
(372,584,l),
(383,577,l),
(403,583,l),
(432,574,l),
(443,583,l),
(449,597,l),
(449,615,l),
(455,639,l),
(450,658,l),
(426,660,l),
(405,671,l),
(385,671,l),
(359,663,l),
(340,664,l),
(326,669,l),
(311,664,l),
(295,668,l),
(278,668,l),
(263,665,l),
(246,667,l),
(239,666,l),
(220,663,l),
(206,663,l),
(186,666,l),
(176,663,l),
(159,666,l),
(138,664,l),
(132,670,l),
(118,669,l),
(79,669,l),
(74,658,l),
(56,650,l),
(51,639,l),
(48,617,l),
(50,602,l),
(47,584,l),
(47,564,l),
(54,552,l),
(51,539,l),
(59,524,l),
(56,509,l),
(53,488,l),
(50,477,l),
(54,464,l),
(63,443,l),
(57,436,l),
(53,421,l),
(58,401,l),
(52,384,l),
(52,372,l),
(53,354,l),
(51,344,l),
(62,325,l),
(64,306,l),
(53,295,l),
(55,278,l),
(54,264,l),
(60,251,l),
(56,234,l),
(58,219,l),
(52,200,l),
(59,187,l),
(51,177,l),
(60,158,l),
(53,144,l),
(49,128,l),
(56,118,l),
(49,99,l),
(54,87,l),
(50,69,l),
(46,53,l),
(51,27,l),
(74,4,l),
(86,5,l)
);
}
);
width = 478;
},
{
hints = (
{
horizontal = 1;
place = (0,75);
type = Stem;
},
{
horizontal = 1;
place = (305,74);
type = Stem;
},
{
horizontal = 1;
place = (592,75);
type = Stem;
},
{
place = (70,100);
type = Stem;
}
);
layerId = m002;
shapes = (
{
closed = 1;
nodes = (
(82,-14,l),
(96,-17,l),
(107,-24,l),
(159,-25,l),
(167,-22,l),
(179,-18,l),
(202,-14,l),
(215,-8,l),
(223,3,l),
(233,15,l),
(230,31,l),
(235,38,l),
(243,59,l),
(236,85,l),
(238,101,l),
(235,117,l),
(241,131,l),
(230,150,l),
(233,162,l),
(241,177,l),
(238,193,l),
(234,204,l),
(231,231,l),
(264,246,l),
(282,244,l),
(308,249,l),
(328,246,l),
(348,253,l),
(373,246,l),
(382,251,l),
(426,250,l),
(442,265,l),
(472,275,l),
(470,297,l),
(485,309,l),
(477,326,l),
(486,358,l),
(477,366,l),
(480,377,l),
(468,407,l),
(451,414,l),
(450,429,l),
(437,436,l),
(415,438,l),
(399,444,l),
(368,441,l),
(348,433,l),
(329,432,l),
(313,430,l),
(302,427,l),
(281,433,l),
(265,434,l),
(263,427,l),
(246,430,l),
(230,433,l),
(231,445,l),
(232,459,l),
(232,466,l),
(231,481,l),
(231,491,l),
(237,499,l),
(246,509,l),
(273,514,l),
(289,513,l),
(305,516,l),
(313,507,l),
(324,507,l),
(339,513,l),
(357,505,l),
(372,512,l),
(397,508,l),
(421,505,l),
(455,505,l),
(465,500,l),
(483,511,l),
(499,529,l),
(511,545,l),
(516,559,l),
(527,573,l),
(522,585,l),
(528,618,l),
(531,628,l),
(515,645,l),
(508,663,l),
(493,673,l),
(471,690,l),
(449,694,l),
(410,695,l),
(394,690,l),
(382,696,l),
(370,691,l),
(329,691,l),
(327,687,l),
(305,692,l),
(285,696,l),
(278,691,l),
(263,695,l),
(248,693,l),
(227,687,l),
(217,688,l),
(192,695,l),
(168,693,l),
(160,687,l),
(138,687,l),
(103,695,l),
(98,688,l),
(75,680,l),
(60,673,l),
(49,666,l),
(38,657,l),
(35,632,l),
(26,614,l),
(27,590,l),
(21,575,l),
(32,553,l),
(29,542,l),
(24,523,l),
(25,513,l),
(31,497,l),
(33,477,l),
(24,462,l),
(30,454,l),
(32,433,l),
(36,424,l),
(30,405,l),
(39,389,l),
(34,380,l),
(28,348,l),
(29,337,l),
(32,322,l),
(29,307,l),
(37,288,l),
(36,275,l),
(36,258,l),
(27,243,l),
(28,227,l),
(30,219,l),
(26,201,l),
(29,181,l),
(34,158,l),
(26,144,l),
(33,129,l),
(31,113,l),
(20,97,l),
(26,78,l),
(32,48,l),
(34,31,l),
(39,27,l),
(45,6,l),
(61,-4,l)
);
}
);
width = 541;
},
{
hints = (
{
horizontal = 1;
place = (0,75);
type = Stem;
},
{
horizontal = 1;
place = (305,74);
type = Stem;
},
{
horizontal = 1;
place = (592,75);
type = Stem;
},
{
place = (70,100);
type = Stem;
}
);
layerId = m003;
shapes = (
{
closed = 1;
nodes = (
(121,4,l),
(134,2,l),
(147,8,l),
(161,14,l),
(155,40,l),
(158,62,l),
(151,69,l),
(150,84,l),
(161,102,l),
(153,118,l),
(159,135,l),
(157,143,l),
(149,163,l),
(150,177,l),
(158,189,l),
(151,204,l),
(152,219,l),
(146,235,l),
(159,252,l),
(147,267,l),
(159,296,l),
(183,302,l),
(198,301,l),
(209,309,l),
(229,306,l),
(252,309,l),
(275,305,l),
(287,310,l),
(295,310,l),
(329,306,l),
(341,306,l),
(358,309,l),
(382,316,l),
(393,327,l),
(407,355,l),
(393,371,l),
(392,374,l),
(362,381,l),
(351,375,l),
(339,370,l),
(324,371,l),
(297,374,l),
(290,376,l),
(270,375,l),
(253,372,l),
(243,371,l),
(224,373,l),
(214,365,l),
(197,365,l),
(189,370,l),
(160,374,l),
(150,409,l),
(154,420,l),
(159,437,l),
(159,451,l),
(148,464,l),
(145,476,l),
(154,498,l),
(156,511,l),
(155,528,l),
(155,535,l),
(149,554,l),
(151,569,l),
(147,602,l),
(183,607,l),
(195,607,l),
(214,610,l),
(219,603,l),
(242,608,l),
(257,609,l),
(276,609,l),
(283,605,l),
(315,605,l),
(322,601,l),
(350,605,l),
(367,607,l),
(374,599,l),
(396,602,l),
(404,595,l),
(431,599,l),
(441,613,l),
(444,620,l),
(447,649,l),
(435,667,l),
(404,671,l),
(388,663,l),
(370,668,l),
(365,669,l),
(344,662,l),
(327,667,l),
(320,667,l),
(293,668,l),
(283,670,l),
(274,669,l),
(248,664,l),
(230,670,l),
(220,662,l),
(210,663,l),
(186,669,l),
(175,671,l),
(161,671,l),
(153,667,l),
(132,669,l),
(114,662,l),
(95,666,l),
(75,659,l),
(69,646,l),
(68,618,l),
(65,603,l),
(62,596,l),
(70,578,l),
(71,562,l),
(68,551,l),
(61,536,l),
(62,522,l),
(65,502,l),
(63,487,l),
(72,475,l),
(76,460,l),
(64,441,l),
(73,430,l),
(66,412,l),
(75,403,l),
(72,386,l),
(66,369,l),
(72,354,l),
(65,340,l),
(66,324,l),
(76,310,l),
(68,291,l),
(66,277,l),
(64,264,l),
(65,254,l),
(69,237,l),
(74,224,l),
(63,207,l),
(73,189,l),
(75,181,l),
(67,161,l),
(66,144,l),
(66,129,l),
(68,118,l),
(66,100,l),
(61,83,l),
(67,69,l),
(70,56,l),
(58,48,l),
(67,17,l),
(79,5,l),
(89,-4,l)
);
}
);
width = 476;
}
);
metricLeft = "=|H";
metricRight = "=H/2";
note = E;
unicode = 70;
userData = {
KernOnName = F;
};
}
{
glyphname = I;
kernLeft = KO_I;
kernRight = KO_I;
layers = (
{
anchors = (
{
name = bottom;
pos = (169,0);
},
{
name = ogonek;
pos = (257,10);
},
{
name = top;
pos = (169,625);
},
{
name = topleft;
pos = (79,667);
}
);
hints = (
{
horizontal = 1;
place = (0,21);
target = up;
type = BottomGhost;
},
{
place = (70,100);
type = Stem;
}
);
layerId = m005;
shapes = (
{
closed = 1;
nodes = (
(134,-5,l),
(150,-4,l),
(167,-6,l),
(178,-4,l),
(202,-5,l),
(208,1,l),
(235,1,l),
(248,7,l),
(274,9,l),
(279,16,l),
(300,19,l),
(313,26,l),
(314,44,l),
(314,61,l),
(303,71,l),
(294,79,l),
(286,92,l),
(270,95,l),
(246,90,l),
(227,93,l),
(212,118,l),
(226,146,l),
(216,163,l),
(226,208,l),
(213,232,l),
(217,250,l),
(212,263,l),
(220,276,l),
(214,314,l),
(226,323,l),
(220,339,l),
(219,359,l),
(213,373,l),
(225,387,l),
(215,399,l),
(217,419,l),
(226,434,l),
(216,462,l),
(226,506,l),
(224,525,l),
(214,532,l),
(212,549,l),
(226,569,l),
(221,590,l),
(236,589,l),
(248,583,l),
(263,590,l),
(280,592,l),
(294,598,l),
(302,612,l),
(301,629,l),
(300,646,l),
(295,658,l),
(281,661,l),
(268,663,l),
(245,667,l),
(233,669,l),
(209,667,l),
(199,674,l),
(185,672,l),
(167,669,l),
(155,673,l),
(132,673,l),
(127,665,l),
(109,667,l),
(97,670,l),
(86,669,l),
(67,667,l),
(56,666,l),
(42,660,l),
(40,641,l),
(40,629,l),
(39,612,l),
(45,594,l),
(52,588,l),
(63,580,l),
(81,577,l),
(99,575,l),
(110,578,l),
(126,561,l),
(112,546,l),
(122,532,l),
(120,509,l),
(113,496,l),
(119,481,l),
(112,455,l),
(124,440,l),
(115,423,l),
(124,405,l),
(115,389,l),
(126,377,l),
(126,366,l),
(115,334,l),
(119,300,l),
(112,268,l),
(123,237,l),
(115,208,l),
(114,192,l),
(119,185,l),
(124,134,l),
(116,116,l),
(123,109,l),
(121,86,l),
(109,84,l),
(97,82,l),
(77,81,l),
(64,80,l),
(52,77,l),
(48,56,l),
(41,42,l),
(34,26,l),
(40,15,l),
(47,9,l),
(59,1,l),
(69,1,l),
(82,-3,l),
(97,-7,l),
(125,-9,l)
);
}
);
width = 348;
},
{
anchors = (
{
name = bottom;
pos = (171,0);
},
{
name = ogonek;
pos = (259,10);
},
{
name = top;
pos = (171,625);
},
{
name = topleft;
pos = (81,667);
}
);
hints = (
{
horizontal = 1;
place = (0,21);
target = up;
type = BottomGhost;
},
{
place = (70,100);
type = Stem;
}
);
layerId = m002;
shapes = (
{
closed = 1;
nodes = (
(108,-24,l),
(131,-23,l),
(172,-28,l),
(213,-20,l),
(228,-22,l),
(239,-15,l),
(250,-21,l),
(299,-11,l),
(307,-2,l),
(332,10,l),
(335,18,l),
(358,40,l),
(356,56,l),
(366,91,l),
(355,104,l),
(358,138,l),
(342,153,l),
(343,167,l),
(323,172,l),
(292,174,l),
(268,179,l),
(271,194,l),
(273,209,l),
(269,221,l),
(265,230,l),
(271,239,l),
(273,256,l),
(270,277,l),
(268,290,l),
(267,302,l),
(268,317,l),
(268,330,l),
(270,350,l),
(274,363,l),
(277,372,l),
(278,383,l),
(278,393,l),
(272,402,l),
(266,411,l),
(269,425,l),
(268,435,l),
(273,454,l),
(277,467,l),
(271,486,l),
(267,500,l),
(294,508,l),
(331,512,l),
(333,531,l),
(348,556,l),
(343,563,l),
(355,577,l),
(345,614,l),
(352,624,l),
(335,653,l),
(325,669,l),
(301,675,l),
(281,688,l),
(239,688,l),
(215,693,l),
(207,691,l),
(156,690,l),
(155,686,l),
(136,691,l),
(119,689,l),
(87,685,l),
(67,686,l),
(41,676,l),
(27,678,l),
(16,664,l),
(5,655,l),
(2,626,l),
(-14,615,l),
(-13,579,l),
(-16,565,l),
(-9,532,l),
(-10,523,l),
(2,504,l),
(12,499,l),
(34,501,l),
(74,490,l),
(72,478,l),
(70,468,l),
(67,456,l),
(71,445,l),
(76,431,l),
(69,416,l),
(68,395,l),
(72,384,l),
(70,365,l),
(73,357,l),
(78,342,l),
(73,333,l),
(67,324,l),
(71,311,l),
(73,291,l),
(76,284,l),
(69,269,l),
(65,251,l),
(75,237,l),
(72,227,l),
(68,217,l),
(67,205,l),
(65,192,l),
(64,172,l),
(41,160,l),
(-1,152,l),
(-6,138,l),
(1,117,l),
(-15,101,l),
(-9,88,l),
(-3,58,l),
(-6,40,l),
(1,14,l),
(16,8,l),
(18,-4,l),
(57,-22,l),
(60,-27,l),
(99,-30,l)
);
}
);
width = 351;
},
{
anchors = (
{
name = bottom;
pos = (168,0);
},
{
name = ogonek;
pos = (256,10);
},
{
name = top;
pos = (168,625);
},
{
name = topleft;
pos = (78,667);
}
);
hints = (
{
horizontal = 1;
place = (0,21);
target = up;
type = BottomGhost;
},
{
place = (70,100);
type = Stem;
}
);
layerId = m003;
shapes = (
{
closed = 1;
nodes = (
(76,-1,l),
(89,1,l),
(101,1,l),
(109,-1,l),
(122,-5,l),
(139,-5,l),
(152,-6,l),
(163,-4,l),
(180,-1,l),
(201,1,l),
(207,-2,l),
(221,6,l),
(235,1,l),
(250,6,l),
(268,13,l),
(278,14,l),
(294,28,l),
(296,41,l),
(299,57,l),
(296,69,l),
(277,79,l),
(262,78,l),
(252,78,l),
(238,78,l),
(216,73,l),
(201,103,l),
(212,120,l),
(203,149,l),
(214,169,l),
(206,182,l),
(203,209,l),
(210,229,l),
(210,241,l),
(201,259,l),
(202,273,l),
(211,286,l),
(210,318,l),
(203,349,l),
(209,377,l),
(213,396,l),
(211,409,l),
(214,424,l),
(201,435,l),
(212,468,l),
(211,482,l),
(205,517,l),
(210,546,l),
(202,578,l),
(211,604,l),
(230,608,l),
(249,612,l),
(262,609,l),
(279,605,l),
(290,621,l),
(289,637,l),
(289,647,l),
(279,662,l),
(266,666,l),
(252,670,l),
(247,672,l),
(226,673,l),
(219,665,l),
(206,668,l),
(194,670,l),
(179,668,l),
(163,667,l),
(156,667,l),
(138,672,l),
(115,671,l),
(114,669,l),
(99,672,l),
(85,670,l),
(71,667,l),
(57,665,l),
(56,647,l),
(54,639,l),
(51,626,l),
(48,611,l),
(55,607,l),
(68,599,l),
(86,599,l),
(98,597,l),
(108,596,l),
(119,594,l),
(131,571,l),
(124,548,l),
(134,527,l),
(121,503,l),
(134,464,l),
(135,443,l),
(131,434,l),
(129,412,l),
(134,402,l),
(122,373,l),
(134,359,l),
(122,341,l),
(134,315,l),
(130,292,l),
(124,269,l),
(130,238,l),
(131,215,l),
(122,206,l),
(124,177,l),
(133,162,l),
(134,144,l),
(124,116,l),
(125,95,l),
(118,73,l),
(106,69,l),
(92,64,l),
(76,65,l),
(57,67,l),
(49,54,l),
(46,40,l),
(43,23,l),
(50,8,l),
(58,3,l),
(66,-3,l)
);
}
);
width = 344;
}
);
metricLeft = "=O";
metricRight = "=O";
note = I;
unicode = 73;
userData = {
KernOnName = I;
};
}
